SplineFontDB: 3.0
FontName: KAN-KaveriNormal
FullName: KAN Kaveri Normal
FamilyName: KAN Kaveri
Weight: Book
Copyright: Copyright (c) 2009-2015, NLCI (http://www.nlci.in/fonts/)
Version: 1.0 Wed May 17 15:30:32 1995
ItalicAngle: 0
UnderlinePosition: -307.571
UnderlineWidth: 21.2118
Ascent: 1638
Descent: 410
InvalidEm: 0
LayerCount: 2
Layer: 0 0 "Back" 1
Layer: 1 0 "Fore" 0
XUID: [1021 915 2070801671 66543]
FSType: 0
OS2Version: 0
OS2_WeightWidthSlopeOnly: 0
OS2_UseTypoMetrics: 1
CreationTime: 1250825681
ModificationTime: 1522367372
PfmFamily: 81
TTFWeight: 400
TTFWidth: 5
LineGap: 0
VLineGap: 0
Panose: 5 0 0 0 0 0 0 0 0 0
OS2TypoAscent: -146
OS2TypoAOffset: 1
OS2TypoDescent: -323
OS2TypoDOffset: 1
OS2TypoLinegap: 0
OS2WinAscent: -474
OS2WinAOffset: 1
OS2WinDescent: -291
OS2WinDOffset: 1
HheadAscent: -474
HheadAOffset: 1
HheadDescent: 291
HheadDOffset: 1
OS2SubXSize: 1434
OS2SubYSize: 1331
OS2SubXOff: 0
OS2SubYOff: 293
OS2SupXSize: 1434
OS2SupYSize: 1331
OS2SupXOff: 0
OS2SupYOff: 928
OS2StrikeYSize: 102
OS2StrikeYPos: 530
OS2Vendor: 'Alts'
OS2UnicodeRanges: 00000000.00000000.00000000.00000000
Lookup: 262 0 0 "blwm" { "blwm-2sub"  } []
MarkAttachClasses: 1
DEI: 91125
TtTable: prep
NPUSHB
 1
 1
SCANTYPE
PUSHW_1
 511
SCANCTRL
EndTTInstrs
ShortTable: maxp 16
  1
  0
  319
  161
  5
  150
  6
  2
  8
  64
  10
  0
  3
  557
  4
  2
EndShort
LangName: 1033 "" "" "Normal" "NLCI:KAN Kaveri Normal" "" "1.0 Wed May 17 15:30:32 1995"
Encoding: Original
UnicodeInterp: none
NameList: Adobe Glyph List
DisplaySize: -48
AntiAlias: 1
FitToEm: 1
BeginPrivate: 0
EndPrivate
AnchorClass2: "Sub" "blwm-2sub" "Nukta"""  "s"""  "V""" 
BeginChars: 608 608

StartChar: .notdef
Encoding: 0 -1 0
Width: 1023
VWidth: 2047
Flags: HW
LayerCount: 2
Fore
SplineSet
64 0 m 1
 64 1401 l 1
 960 1401 l 1
 960 0 l 1
 64 0 l 1
896 64 m 1
 896 1337 l 1
 127 1337 l 1
 127 64 l 1
 896 64 l 1
EndSplineSet
EndChar

StartChar: exclam
Encoding: 4 33 4
Width: 552
VWidth: 1023
Flags: HW
LayerCount: 2
Fore
SplineSet
171 8 m 0
 163.666992188 14.6669921875 160 23.6669921875 160 35 c 0
 160 229 l 0
 160 255 173 268 199 268 c 0
 344 268 l 0
 370 268 383 255 383 229 c 0
 383 35 l 0
 383 10.3330078125 370 -2 344 -2 c 0
 199 -2 l 0
 187.666992188 -2 178.333007812 1.3330078125 171 8 c 0
147 1509 m 0
 401 1509 l 0
 365 414 l 0
 178 414 l 0
 147 1509 l 0
EndSplineSet
EndChar

StartChar: quotedbl
Encoding: 5 34 5
Width: 735
VWidth: 1023
Flags: HW
LayerCount: 2
Fore
SplineSet
277 457 m 0
 259 457 l 0
 223 722 l 0
 223 739 226 753 234 762 c 0
 242 771 253 775 268 775 c 0
 283 775 295 771 303 762 c 0
 311 753 315 739 315 722 c 0
 277 457 l 0
102 457 m 0
 85 457 l 0
 47 722 l 0
 47 739 51 753 59 762 c 0
 67 771 78 775 93 775 c 0
 108 775 120 771 128 762 c 0
 136 753 139 739 139 722 c 0
 102 457 l 0
EndSplineSet
Refer: 10 39 N 1 0 0 1 332 0 2
Refer: 10 39 N 1 0 0 1 0 0 2
EndChar

StartChar: numbersign
Encoding: 6 35 6
Width: 1454
VWidth: 1023
Flags: HW
LayerCount: 2
Fore
SplineSet
827 608 m 0
 874 887 l 0
 604 887 l 0
 559 608 l 0
 827 608 l 0
356 440 m 0
 37 440 l 0
 63 608 l 0
 389 608 l 0
 436 887 l 0
 106 887 l 0
 133 1055 l 0
 469 1055 l 0
 549 1499 l 0
 717 1499 l 0
 639 1055 l 0
 901 1055 l 0
 979 1499 l 0
 1147 1499 l 0
 1071 1055 l 0
 1421 1055 l 0
 1397 887 l 0
 1044 887 l 0
 997 608 l 0
 1350 608 l 0
 1327 440 l 0
 958 440 l 0
 883 0 l 0
 713 0 l 0
 791 440 l 0
 526 440 l 0
 449 0 l 0
 281 0 l 0
 356 440 l 0
EndSplineSet
EndChar

StartChar: dollar
Encoding: 7 36 7
Width: 1247
VWidth: 1023
Flags: HW
LayerCount: 2
Fore
SplineSet
996.5 771 m 0
 1062.83300781 702.333007812 1096 611.333007812 1096 498 c 0
 1096 401 l 0
 1096 256.333007812 1059 153.666992188 985 93 c 0
 911 32.3330078125 804.666992188 -2 666 -10 c 0
 666 -182 l 0
 520 -182 l 0
 520 -10 l 0
 450.666992188 -7.3330078125 378.833007812 -2.3330078125 304.5 5 c 0
 230.166992188 12.3330078125 168.333007812 21.6669921875 119 33 c 0
 119 231 l 0
 241.666992188 220.333007812 393.666992188 215 575 215 c 0
 666.333007812 215 735.666992188 228 783 254 c 0
 830.333007812 280 854 327 854 395 c 0
 854 467 l 0
 854 520.333007812 839 561.333007812 809 590 c 0
 779 618.666992188 734.666992188 633 676 633 c 0
 535 633 l 0
 391.666992188 633 284 664.333007812 212 727 c 0
 140 789.666992188 104 891.333007812 104 1032 c 0
 104 1110 l 0
 104 1245.33300781 139.833007812 1346.33300781 211.5 1413 c 0
 283.166992188 1479.66699219 389.333007812 1516.66699219 530 1524 c 0
 520 1610 l 0
 649 1688 l 0
 666 1561 l 0
 602 1524 l 0
 670 1522.66699219 742.333007812 1517.5 819 1508.5 c 0
 895.666992188 1499.5 964 1489 1024 1477 c 0
 1024 1278 l 0
 840 1290 700 1296 604 1296 c 0
 518 1296 453.5 1282 410.5 1254 c 0
 367.5 1226 346 1174.66699219 346 1100 c 0
 346 1049 l 0
 346 987.666992188 362.666992188 943.166992188 396 915.5 c 0
 429.333007812 887.833007812 480.333007812 874 549 874 c 0
 707 874 l 0
 833.666992188 874 930.166992188 839.666992188 996.5 771 c 0
EndSplineSet
EndChar

StartChar: percent
Encoding: 8 37 8
Width: 1970
VWidth: 1023
Flags: HW
LayerCount: 2
Fore
SplineSet
1587 170 m 0
 1640.33300781 170 1678 180.5 1700 201.5 c 0
 1722 222.5 1733 259 1733 311 c 0
 1733 487 l 0
 1733 539 1722.33300781 575.333007812 1701 596 c 0
 1679.66699219 616.666992188 1643 627 1591 627 c 0
 1446 627 l 0
 1396.66699219 627 1360.83300781 617.333007812 1338.5 598 c 0
 1316.16699219 578.666992188 1305 541.666992188 1305 487 c 0
 1305 311 l 0
 1305 260.333007812 1314.83300781 224.166992188 1334.5 202.5 c 0
 1354.16699219 180.833007812 1390 170 1442 170 c 0
 1587 170 l 0
1203.5 72.5 m 0
 1161.83300781 116.833007812 1141 184 1141 274 c 0
 1141 522 l 0
 1141 613.333007812 1161.83300781 681 1203.5 725 c 0
 1245.16699219 769 1315.66699219 791 1415 791 c 0
 1624 791 l 0
 1720.66699219 791 1790.16699219 768.666992188 1832.5 724 c 0
 1874.83300781 679.333007812 1896 612 1896 522 c 0
 1896 274 l 0
 1896 184 1874.83300781 116.833007812 1832.5 72.5 c 0
 1790.16699219 28.1669921875 1719.33300781 6 1620 6 c 0
 1411 6 l 0
 1314.33300781 6 1245.16699219 28.1669921875 1203.5 72.5 c 0
526 879 m 0
 579.333007812 879 616.333007812 889.5 637 910.5 c 0
 657.666992188 931.5 668 968 668 1020 c 0
 668 1196 l 0
 668 1248 658 1284.16699219 638 1304.5 c 0
 618 1324.83300781 582 1335 530 1335 c 0
 383 1335 l 0
 333.666992188 1335 297.833007812 1325.5 275.5 1306.5 c 0
 253.166992188 1287.5 242 1250.66699219 242 1196 c 0
 242 1020 l 0
 242 969.333007812 251.833007812 933.166992188 271.5 911.5 c 0
 291.166992188 889.833007812 327 879 379 879 c 0
 526 879 l 0
1352 1499 m 0
 1520 1499 l 0
 610 0 l 0
 436 0 l 0
 1352 1499 l 0
140.5 781.5 m 0
 98.8330078125 825.833007812 78 893 78 983 c 0
 78 1231 l 0
 78 1322.33300781 98.8330078125 1389.83300781 140.5 1433.5 c 0
 182.166992188 1477.16699219 252.666992188 1499 352 1499 c 0
 559 1499 l 0
 655.666992188 1499 725.166992188 1476.83300781 767.5 1432.5 c 0
 809.833007812 1388.16699219 831 1321 831 1231 c 0
 831 983 l 0
 831 893 810 825.833007812 768 781.5 c 0
 726 737.166992188 655 715 555 715 c 0
 348 715 l 0
 251.333007812 715 182.166992188 737.166992188 140.5 781.5 c 0
EndSplineSet
EndChar

StartChar: ampersand
Encoding: 9 38 9
Width: 1411
VWidth: 1023
Flags: HW
LayerCount: 2
Fore
SplineSet
616.5 241.5 m 0
 648.166992188 255.166992188 681.666992188 278.333007812 717 311 c 0
 772 367 l 0
 514 711 l 0
 426 633 l 0
 386.666992188 599 358.666992188 564.833007812 342 530.5 c 0
 325.333007812 496.166992188 317 459.333007812 317 420 c 0
 317 361.333007812 335.166992188 313.5 371.5 276.5 c 0
 407.833007812 239.5 456 221 516 221 c 0
 551.333007812 221 584.833007812 227.833007812 616.5 241.5 c 0
268 40 m 0
 208 73.3330078125 161 120.333007812 127 181 c 0
 93 241.666992188 76 311.666992188 76 391 c 0
 76 542.333007812 138.666992188 670.666992188 264 776 c 0
 391 885 l 0
 360 932 l 0
 320.666992188 989.333007812 294.5 1039.83300781 281.5 1083.5 c 0
 268.5 1127.16699219 262 1171.66699219 262 1217 c 0
 262 1318.33300781 296.166992188 1392 364.5 1438 c 0
 432.833007812 1484 523 1507 635 1507 c 0
 779.666992188 1507 906.666992188 1494 1016 1468 c 0
 1016 1284 l 0
 682 1284 l 0
 571.333007812 1284 516 1243 516 1161 c 0
 516 1133.66699219 523.5 1104 538.5 1072 c 0
 553.5 1040 578.666992188 1000 614 952 c 0
 942 504 l 0
 1239 776 l 0
 1333 664 l 0
 1192 461 l 0
 1067 340 l 0
 1323 0 l 0
 1059 0 l 0
 905 197 l 0
 834 131 l 0
 775.333007812 79 718 42.5 662 21.5 c 0
 606 0.5 543 -10 473 -10 c 0
 396.333007812 -10 328 6.6669921875 268 40 c 0
EndSplineSet
EndChar

StartChar: quotesingle
Encoding: 10 39 10
Width: 403
VWidth: 1023
Flags: HW
LayerCount: 2
Fore
SplineSet
74 1401 m 0
 74 1538 l 0
 317 1538 l 0
 317 1401 l 0
 301 1026 l 0
 94 1026 l 0
 74 1401 l 0
EndSplineSet
EndChar

StartChar: parenleft
Encoding: 11 40 11
Width: 763
VWidth: 1023
Flags: HW
LayerCount: 2
Fore
SplineSet
230.5 62.5 m 0
 166.833007812 235.5 135 437.333007812 135 668 c 0
 135 888 167.833007812 1086.33300781 233.5 1263 c 0
 299.166992188 1439.66699219 387.333007812 1605.66699219 498 1761 c 0
 727 1761 l 0
 621.666992188 1585 539 1409.33300781 479 1234 c 0
 419 1058.66699219 389 870 389 668 c 0
 389 463.333007812 417 277 473 109 c 0
 529 -59 613.666992188 -238.666992188 727 -430 c 0
 498 -430 l 0
 383.333007812 -274.666992188 294.166992188 -110.5 230.5 62.5 c 0
EndSplineSet
EndChar

StartChar: parenright
Encoding: 12 41 12
Width: 761
VWidth: 1023
Flags: HW
LayerCount: 2
Fore
SplineSet
285 97 m 0
 343.666992188 271 373 460.666992188 373 666 c 0
 373 872 345.666992188 1058.33300781 291 1225 c 0
 236.333007812 1391.66699219 151.666992188 1570.33300781 37 1761 c 0
 264 1761 l 0
 380 1605.66699219 469.5 1442 532.5 1270 c 0
 595.5 1098 627 896.666992188 627 666 c 0
 627 443.333007812 594.833007812 244.166992188 530.5 68.5 c 0
 466.166992188 -107.166992188 377.333007812 -273.333007812 264 -430 c 0
 37 -430 l 0
 143.666992188 -252.666992188 226.333007812 -77 285 97 c 0
EndSplineSet
EndChar

StartChar: asterisk
Encoding: 13 42 13
Width: 899
VWidth: 1023
Flags: HW
LayerCount: 2
Fore
SplineSet
414 971 m 0
 485 1085 l 0
 723 907 l 0
 666 831 l 0
 414 971 l 0
217 848 m 0
 274 1128 l 0
 406 1096 l 0
 307 819 l 0
 217 848 l 0
92 1182 m 0
 92 1278 l 0
 379 1303 l 0
 385 1169 l 0
 92 1182 l 0
516 1153 m 0
 754 1321 l 0
 809 1243 l 0
 602 1049 l 0
 516 1153 l 0
362 1479 m 0
 455 1509 l 0
 584 1253 l 0
 459 1204 l 0
 362 1479 l 0
EndSplineSet
EndChar

StartChar: plus
Encoding: 14 43 14
Width: 1247
VWidth: 1023
Flags: HW
LayerCount: 2
Fore
SplineSet
1081 627 m 0
 725 627 l 0
 725 270 l 0
 520 270 l 0
 520 627 l 0
 164 627 l 0
 164 831 l 0
 520 831 l 0
 520 1188 l 0
 725 1188 l 0
 725 831 l 0
 1081 831 l 0
 1081 627 l 0
EndSplineSet
EndChar

StartChar: comma
Encoding: 15 44 15
Width: 454
VWidth: 1023
Flags: HW
LayerCount: 2
Fore
SplineSet
153.5 -170 m 0
 137.166992188 -167.333007812 127 -165.333007812 123 -164 c 0
 123 -84 l 0
 142.333007812 -84 155.666992188 -81.3330078125 163 -76 c 0
 170.333007812 -70.6669921875 174 -60.3330078125 174 -45 c 0
 174 16 l 0
 156 16 l 0
 145.333007812 16 136.166992188 19.8330078125 128.5 27.5 c 0
 120.833007812 35.1669921875 117 45 117 57 c 0
 117 225 l 0
 117 253.666992188 130 268 156 268 c 0
 299 268 l 0
 325 268 338 253.666992188 338 225 c 0
 338 -45 l 0
 338 -131 293.666992188 -174 205 -174 c 0
 187 -174 169.833007812 -172.666992188 153.5 -170 c 0
EndSplineSet
EndChar

StartChar: hyphen
Encoding: 16 45 16
Width: 710
VWidth: 1023
Flags: HW
LayerCount: 2
Fore
SplineSet
47 696 m 0
 666 696 l 0
 666 492 l 0
 47 492 l 0
 47 696 l 0
EndSplineSet
EndChar

StartChar: period
Encoding: 17 46 17
Width: 454
VWidth: 1023
Flags: HW
LayerCount: 2
Fore
SplineSet
128 8 m 0
 120.666992188 14.6669921875 117 23.6669921875 117 35 c 0
 117 229 l 0
 117 255 130 268 156 268 c 0
 301 268 l 0
 327 268 340 255 340 229 c 0
 340 35 l 0
 340 10.3330078125 327 -2 301 -2 c 0
 156 -2 l 0
 144.666992188 -2 135.333007812 1.3330078125 128 8 c 0
EndSplineSet
EndChar

StartChar: slash
Encoding: 18 47 18
Width: 903
VWidth: 1023
Flags: HW
LayerCount: 2
Fore
SplineSet
612 1577 m 0
 866 1577 l 0
 291 -147 l 0
 37 -147 l 0
 612 1577 l 0
EndSplineSet
EndChar

StartChar: zero
Encoding: 19 48 19
Width: 1331
VWidth: 1023
Flags: HW
LayerCount: 2
Fore
SplineSet
760 221 m 0
 886.666992188 221 950 284 950 410 c 0
 950 1108 l 0
 950 1233.33300781 890 1296 770 1296 c 0
 567 1296 l 0
 507 1296 461 1280 429 1248 c 0
 397 1216 381 1169.33300781 381 1108 c 0
 381 410 l 0
 381 347.333007812 397.666992188 300.166992188 431 268.5 c 0
 464.333007812 236.833007812 512.333007812 221 575 221 c 0
 760 221 l 0
229.5 89 m 0
 161.166992188 153.666992188 127 248.333007812 127 373 c 0
 127 1133 l 0
 127 1258.33300781 161.833007812 1354.83300781 231.5 1422.5 c 0
 301.166992188 1490.16699219 396.666992188 1524 518 1524 c 0
 827 1524 l 0
 951 1524 1044.5 1489.83300781 1107.5 1421.5 c 0
 1170.5 1353.16699219 1202 1257 1202 1133 c 0
 1202 373 l 0
 1202 249 1169 154.5 1103 89.5 c 0
 1037 24.5 944.333007812 -8 825 -8 c 0
 516 -8 l 0
 393.333007812 -8 297.833007812 24.3330078125 229.5 89 c 0
EndSplineSet
EndChar

StartChar: one
Encoding: 20 49 20
Width: 755
VWidth: 1023
Flags: HW
LayerCount: 2
Fore
SplineSet
356 1282 m 0
 72 1231 l 0
 72 1393 l 0
 383 1526 l 0
 610 1526 l 0
 610 0 l 0
 356 0 l 0
 356 1282 l 0
EndSplineSet
EndChar

StartChar: two
Encoding: 21 50 21
Width: 1206
VWidth: 1023
Flags: HW
LayerCount: 2
Fore
SplineSet
100 205 m 0
 625 719 l 0
 694.333007812 785.666992188 744.333007812 846.333007812 775 901 c 0
 805.666992188 955.666992188 821 1015.66699219 821 1081 c 0
 821 1146.33300781 801.666992188 1196.5 763 1231.5 c 0
 724.333007812 1266.5 657 1284 561 1284 c 0
 141 1284 l 0
 141 1483 l 0
 229.666992188 1495 309.833007812 1504.83300781 381.5 1512.5 c 0
 453.166992188 1520.16699219 530 1524 612 1524 c 0
 780 1524 899.166992188 1489.83300781 969.5 1421.5 c 0
 1039.83300781 1353.16699219 1075 1252.66699219 1075 1120 c 0
 1075 1020 1054.83300781 930.833007812 1014.5 852.5 c 0
 974.166992188 774.166992188 909.666992188 691.333007812 821 604 c 0
 438 229 l 0
 1124 229 l 0
 1124 0 l 0
 100 0 l 0
 100 205 l 0
EndSplineSet
EndChar

StartChar: three
Encoding: 22 51 22
Width: 1189
VWidth: 1023
Flags: HW
LayerCount: 2
Fore
SplineSet
82 25 m 0
 82 227 l 0
 557 227 l 0
 647 227 713.5 239.333007812 756.5 264 c 0
 799.5 288.666992188 821 333.666992188 821 399 c 0
 821 475 l 0
 821 533.666992188 800.5 576.666992188 759.5 604 c 0
 718.5 631.333007812 665.333007812 646.333007812 600 649 c 0
 223 666 l 0
 223 858 l 0
 590 877 l 0
 659.333007812 879.666992188 712.166992188 892.833007812 748.5 916.5 c 0
 784.833007812 940.166992188 803 978 803 1030 c 0
 803 1100 l 0
 803 1162.66699219 782.166992188 1209 740.5 1239 c 0
 698.833007812 1269 633.666992188 1284 545 1284 c 0
 121 1284 l 0
 121 1487 l 0
 315 1514.33300781 489.666992188 1526.66699219 645 1524 c 0
 777.666992188 1522.66699219 879.166992188 1490.5 949.5 1427.5 c 0
 1019.83300781 1364.5 1055 1274.33300781 1055 1157 c 0
 1055 1040 l 0
 1055 962 1035.83300781 900.166992188 997.5 854.5 c 0
 959.166992188 808.833007812 911.333007812 778 854 762 c 0
 912.666992188 745.333007812 964.5 709 1009.5 653 c 0
 1054.5 597 1077 526.666992188 1077 442 c 0
 1077 354 l 0
 1077 236.666992188 1039.5 146.333007812 964.5 83 c 0
 889.5 19.6669921875 784.333007812 -12 649 -12 c 0
 436.333007812 -12 247.333007812 0.3330078125 82 25 c 0
EndSplineSet
EndChar

StartChar: four
Encoding: 23 52 23
Width: 1249
VWidth: 1023
Flags: HW
LayerCount: 2
Fore
SplineSet
780 344 m 0
 98 344 l 0
 49 469 l 0
 567 1511 l 0
 827 1511 l 0
 348 559 l 0
 780 559 l 0
 780 893 l 0
 831 1055 l 0
 1032 1055 l 0
 1032 559 l 0
 1206 559 l 0
 1206 385 l 0
 1032 344 l 0
 1032 2 l 0
 780 2 l 0
 780 344 l 0
EndSplineSet
EndChar

StartChar: five
Encoding: 24 53 24
Width: 1261
VWidth: 1023
Flags: HW
LayerCount: 2
Fore
SplineSet
139 18 m 0
 139 217 l 0
 670 217 l 0
 746.666992188 217 804.333007812 235.833007812 843 273.5 c 0
 881.666992188 311.166992188 901 358.666992188 901 416 c 0
 901 543 l 0
 901 600.333007812 885.333007812 644.666992188 854 676 c 0
 822.666992188 707.333007812 775 723 711 723 c 0
 578 723 l 0
 527.333007812 723 488 712 460 690 c 0
 432 668 414 634.666992188 406 590 c 0
 166 590 l 0
 209 1511 l 0
 1100 1511 l 0
 1100 1284 l 0
 428 1284 l 0
 408 856 l 0
 428.666992188 880.666992188 458 900.5 496 915.5 c 0
 534 930.5 578.333007812 938 629 938 c 0
 799 938 l 0
 913.666992188 938 1001.66699219 905.5 1063 840.5 c 0
 1124.33300781 775.5 1155 691.333007812 1155 588 c 0
 1155 365 l 0
 1155 115 989.666992188 -10 659 -10 c 0
 493.666992188 -10.6669921875 320.333007812 -1.3330078125 139 18 c 0
EndSplineSet
EndChar

StartChar: six
Encoding: 25 54 25
Width: 1255
VWidth: 1023
Flags: HW
LayerCount: 2
Fore
SplineSet
729 219 m 0
 782.333007812 219 823.666992188 232 853 258 c 0
 882.333007812 284 897 327 897 387 c 0
 897 508 l 0
 897 573.333007812 879.666992188 617.666992188 845 641 c 0
 810.333007812 664.333007812 753.333007812 676 674 676 c 0
 373 676 l 0
 373 557.333007812 381.5 464.833007812 398.5 398.5 c 0
 415.5 332.166992188 441 285.666992188 475 259 c 0
 509 232.333007812 553.333007812 219 608 219 c 0
 729 219 l 0
314.5 57.5 m 0
 250.833007812 101.166992188 202.333007812 177.666992188 169 287 c 0
 135.666992188 396.333007812 119 548.333007812 119 743 c 0
 119 1020.33300781 166 1219.83300781 260 1341.5 c 0
 354 1463.16699219 493.333007812 1524 678 1524 c 0
 820 1524 947 1514.33300781 1059 1495 c 0
 1059 1296 l 0
 696 1296 l 0
 480 1296 372.333007812 1150.66699219 373 860 c 0
 460.333007812 880.666992188 583 891 741 891 c 0
 883 891 986.5 863 1051.5 807 c 0
 1116.5 751 1149 667 1149 555 c 0
 1149 340 l 0
 1149 220 1116.16699219 132 1050.5 76 c 0
 984.833007812 20 896 -8 784 -8 c 0
 559 -8 l 0
 459.666992188 -8 378.166992188 13.8330078125 314.5 57.5 c 0
EndSplineSet
EndChar

StartChar: seven
Encoding: 26 55 26
Width: 1126
VWidth: 1023
Flags: HW
LayerCount: 2
Fore
SplineSet
739 1260 m 0
 53 1260 l 0
 53 1511 l 0
 995 1511 l 0
 1065 1399 l 0
 547 0 l 0
 262 0 l 0
 739 1260 l 0
EndSplineSet
EndChar

StartChar: eight
Encoding: 27 56 27
Width: 1296
VWidth: 1023
Flags: HW
LayerCount: 2
Fore
SplineSet
743 209 m 0
 803 209 845.333007812 221 870 245 c 0
 894.666992188 269 907 306 907 356 c 0
 907 510 l 0
 907 563.333007812 893.666992188 602.333007812 867 627 c 0
 840.333007812 651.666992188 797.666992188 664 739 664 c 0
 565 664 l 0
 519.666992188 664 479 651 443 625 c 0
 407 599 389 560.666992188 389 510 c 0
 389 356 l 0
 389 304 404 266.5 434 243.5 c 0
 464 220.5 507.666992188 209 565 209 c 0
 743 209 l 0
737 881 m 0
 835 881 884.333007812 932.666992188 885 1036 c 0
 885 1149 l 0
 885 1209 873.333007812 1250.66699219 850 1274 c 0
 826.666992188 1297.33300781 791 1309 743 1309 c 0
 565 1309 l 0
 510.333007812 1309 471.5 1297 448.5 1273 c 0
 425.5 1249 414 1207.66699219 414 1149 c 0
 414 1036 l 0
 414 982.666992188 425.833007812 943.5 449.5 918.5 c 0
 473.166992188 893.5 511.666992188 881 565 881 c 0
 737 881 l 0
135 311 m 0
 135 522 l 0
 135 583.333007812 152.166992188 637 186.5 683 c 0
 220.833007812 729 263 757.333007812 313 768 c 0
 254.333007812 796.666992188 215.166992188 832.5 195.5 875.5 c 0
 175.833007812 918.5 166 971.333007812 166 1034 c 0
 166 1208 l 0
 166 1316 197.666992188 1395.66699219 261 1447 c 0
 324.333007812 1498.33300781 408 1524 512 1524 c 0
 797 1524 l 0
 899.666992188 1524 981.333007812 1498.66699219 1042 1448 c 0
 1102.66699219 1397.33300781 1133 1317.33300781 1133 1208 c 0
 1133 1034 l 0
 1133 984.666992188 1121 934.833007812 1097 884.5 c 0
 1073 834.166992188 1037.66699219 803.666992188 991 793 c 0
 1051 779.666992188 1094.33300781 747.666992188 1121 697 c 0
 1147.66699219 646.333007812 1161 590.666992188 1161 530 c 0
 1161 311 l 0
 1161 195 1129 112.833007812 1065 64.5 c 0
 1001 16.1669921875 913 -8 801 -8 c 0
 524 -8 l 0
 264.666992188 -8 135 98.3330078125 135 311 c 0
EndSplineSet
EndChar

StartChar: nine
Encoding: 28 57 28
Width: 1255
VWidth: 1023
Flags: HW
LayerCount: 2
Fore
SplineSet
887 840 m 0
 887 958.666992188 878.5 1051.16699219 861.5 1117.5 c 0
 844.5 1183.83300781 819.166992188 1229.83300781 785.5 1255.5 c 0
 751.833007812 1281.16699219 707 1294 651 1294 c 0
 530 1294 l 0
 475.333007812 1294 433.666992188 1281.5 405 1256.5 c 0
 376.333007812 1231.5 362 1188 362 1126 c 0
 362 1006 l 0
 362 940.666992188 379.5 896.666992188 414.5 874 c 0
 449.5 851.333007812 506.666992188 840 586 840 c 0
 887 840 l 0
199 18 m 0
 199 217 l 0
 561 217 l 0
 778.333007812 217 887 362.333007812 887 653 c 0
 799.666992188 632.333007812 676.666992188 622.333007812 518 623 c 0
 376 623 272.333007812 651 207 707 c 0
 141.666992188 763 109 847.666992188 109 961 c 0
 109 1176 l 0
 109 1294.66699219 142 1382 208 1438 c 0
 274 1494 363 1522 475 1522 c 0
 700 1522 l 0
 800 1522 881.666992188 1500.16699219 945 1456.5 c 0
 1008.33300781 1412.83300781 1056.83300781 1336.33300781 1090.5 1227 c 0
 1124.16699219 1117.66699219 1141 965.333007812 1141 770 c 0
 1141 492.666992188 1093.83300781 293.333007812 999.5 172 c 0
 905.166992188 50.6669921875 766 -10 582 -10 c 0
 441.333007812 -10.6669921875 313.666992188 -1.3330078125 199 18 c 0
EndSplineSet
EndChar

StartChar: colon
Encoding: 29 58 29
Width: 454
VWidth: 1023
Flags: HW
LayerCount: 2
Fore
SplineSet
213 463 m 0
 213 453 211 444 207 435 c 0
 203 426 198 419 191 412 c 0
 184 405 176 401 167 397 c 0
 158 393 149 391 139 391 c 0
 129 391 120 393 111 397 c 0
 102 401 94 405 87 412 c 0
 80 419 76 426 72 435 c 0
 68 444 66 453 66 463 c 0
 66 473 68 483 72 492 c 0
 76 501 80 508 87 515 c 0
 94 522 102 527 111 531 c 0
 120 535 129 537 139 537 c 0
 149 537 158 535 167 531 c 0
 176 527 184 522 191 515 c 0
 198 508 203 501 207 492 c 0
 211 483 213 473 213 463 c 0
213 60 m 0
 213 50 211 40 207 31 c 0
 203 22 198 15 191 8 c 0
 184 1 176 -3 167 -7 c 0
 158 -11 149 -13 139 -13 c 0
 129 -13 120 -11 111 -7 c 0
 102 -3 94 1 87 8 c 0
 80 15 76 22 72 31 c 0
 68 40 66 50 66 60 c 0
 66 70 68 79 72 88 c 0
 76 97 80 104 87 111 c 0
 94 118 102 123 111 127 c 0
 120 131 129 133 139 133 c 0
 149 133 158 131 167 127 c 0
 176 123 184 118 191 111 c 0
 198 104 203 97 207 88 c 0
 211 79 213 70 213 60 c 0
EndSplineSet
Refer: 17 46 N 1 0 0 1 0 831 2
Refer: 17 46 N 1 0 0 1 0 0 2
EndChar

StartChar: semicolon
Encoding: 30 59 30
Width: 454
VWidth: 1023
Flags: HW
LayerCount: 2
Fore
SplineSet
212 463 m 0
 212 453 210 444 206 435 c 0
 202 426 197 419 190 412 c 0
 183 405 176 401 167 397 c 0
 158 393 149 391 139 391 c 0
 129 391 120 393 111 397 c 0
 102 401 94 405 87 412 c 0
 80 419 76 426 72 435 c 0
 68 444 66 453 66 463 c 0
 66 473 68 483 72 492 c 0
 76 501 81 508 88 515 c 0
 95 522 102 527 111 531 c 0
 120 535 130 537 140 537 c 0
 150 537 159 535 168 531 c 0
 177 527 185 522 191 515 c 0
 197 508 202 501 206 492 c 0
 210 483 212 473 212 463 c 0
224 11 m 0
 224 -16 218 -41 208 -64 c 0
 198 -87 184 -107 166 -124 c 0
 149 -141 129 -156 106 -166 c 0
 83 -176 60 -183 35 -185 c 0
 35 -145 l 0
 54 -141 71 -135 86 -128 c 0
 101 -121 114 -111 124 -99 c 0
 134 -87 142 -73 147 -56 c 0
 152 -39 154 -18 154 7 c 0
 86 7 l 0
 85 8 84 9 82 12 c 0
 80 15 77 19 75 23 c 0
 73 27 71 32 69 38 c 0
 67 44 66 51 66 58 c 0
 66 68 68 76 71 85 c 0
 74 94 79 102 85 109 c 0
 91 116 99 122 107 126 c 0
 115 130 124 133 134 133 c 0
 150 133 163 129 174 123 c 0
 185 117 195 109 202 98 c 0
 209 87 214 74 218 59 c 0
 222 44 224 28 224 11 c 0
EndSplineSet
Refer: 15 44 N 1 0 0 1 0 0 2
Refer: 17 46 N 1 0 0 1 0 831 2
EndChar

StartChar: less
Encoding: 31 60 31
Width: 1247
VWidth: 1023
Flags: HW
LayerCount: 2
Fore
SplineSet
197 604 m 0
 197 829 l 0
 1047 1100 l 0
 1047 879 l 0
 442 719 l 0
 1047 547 l 0
 1047 326 l 0
 197 604 l 0
EndSplineSet
EndChar

StartChar: equal
Encoding: 32 61 32
Width: 1247
VWidth: 1023
Flags: HW
LayerCount: 2
Fore
SplineSet
217 391 m 0
 217 458 l 0
 869 458 l 0
 869 391 l 0
 217 391 l 0
217 194 m 0
 217 261 l 0
 869 261 l 0
 869 194 l 0
 217 194 l 0
EndSplineSet
Refer: 387 8722 N 1 0 0 1 0 246 2
Refer: 387 8722 N 1 0 0 1 0 -246 2
EndChar

StartChar: greater
Encoding: 33 62 33
Width: 1247
VWidth: 1023
Flags: HW
LayerCount: 2
Fore
SplineSet
201 547 m 0
 805 719 l 0
 201 879 l 0
 201 1100 l 0
 1051 829 l 0
 1051 604 l 0
 201 326 l 0
 201 547 l 0
EndSplineSet
EndChar

StartChar: question
Encoding: 34 63 34
Width: 1085
VWidth: 1023
Flags: HW
LayerCount: 2
Fore
SplineSet
314.5 8 m 0
 306.833007812 14.6669921875 303 23.6669921875 303 35 c 0
 303 229 l 0
 303 255 316 268 342 268 c 0
 487 268 l 0
 513 268 526 255 526 229 c 0
 526 35 l 0
 526 10.3330078125 513 -2 487 -2 c 0
 342 -2 l 0
 331.333007812 -2 322.166992188 1.3330078125 314.5 8 c 0
319 788 m 0
 446 788 l 0
 534.666992188 788 598.833007812 801.666992188 638.5 829 c 0
 678.166992188 856.333007812 698 905.666992188 698 977 c 0
 698 1063 l 0
 698 1142.33300781 678 1199.33300781 638 1234 c 0
 598 1268.66699219 535.666992188 1286 451 1286 c 0
 391 1286 332.5 1280.16699219 275.5 1268.5 c 0
 218.5 1256.83300781 156 1238.66699219 88 1214 c 0
 88 1399 l 0
 216.666992188 1475.66699219 363.333007812 1513.66699219 528 1513 c 0
 668.666992188 1513 774.166992188 1476.5 844.5 1403.5 c 0
 914.833007812 1330.5 950 1230 950 1102 c 0
 950 973 l 0
 950 846.333007812 914.5 751.833007812 843.5 689.5 c 0
 772.5 627.166992188 662 596 512 596 c 0
 512 412 l 0
 319 412 l 0
 319 788 l 0
EndSplineSet
EndChar

StartChar: at
Encoding: 35 64 35
Width: 1800
VWidth: 1023
Flags: HW
LayerCount: 2
Fore
SplineSet
968 253 m 0
 1022 271.666992188 1063.33300781 293.666992188 1092 319 c 0
 1092 524 l 0
 823 508 l 0
 779 505.333007812 745.166992188 497.166992188 721.5 483.5 c 0
 697.833007812 469.833007812 686 441 686 397 c 0
 686 344 l 0
 686 306 697.333007812 276.666992188 720 256 c 0
 742.666992188 235.333007812 776.333007812 225 821 225 c 0
 865 225 914 234.333007812 968 253 c 0
237.5 -256 m 0
 158.5 -185.333007812 119 -75.3330078125 119 74 c 0
 119 690 l 0
 119 803.333007812 150.666992188 899.666992188 214 979 c 0
 277.333007812 1058.33300781 388.333007812 1098 547 1098 c 0
 924 1098 l 0
 1033.33300781 1098 1121 1076.16699219 1187 1032.5 c 0
 1253 988.833007812 1286 903.333007812 1286 776 c 0
 1286 49 l 0
 1130 49 l 0
 1096 168 l 0
 1094.66699219 166.666992188 1062.16699219 143.5 998.5 98.5 c 0
 934.833007812 53.5 849 31 741 31 c 0
 657.666992188 31 593.166992188 58.3330078125 547.5 113 c 0
 501.833007812 167.666992188 479 232.333007812 479 307 c 0
 479 391 l 0
 479 478.333007812 505.333007812 544.833007812 558 590.5 c 0
 610.666992188 636.166992188 684.666992188 659 780 659 c 0
 1092 659 l 0
 1092 760 l 0
 1092 812 1078.33300781 849.166992188 1051 871.5 c 0
 1023.66699219 893.833007812 982.666992188 905 928 905 c 0
 547 905 l 0
 473 905 415.5 888.333007812 374.5 855 c 0
 333.5 821.666992188 313 762.666992188 313 678 c 0
 313 98 l 0
 313 4 336.333007812 -63.8330078125 383 -105.5 c 0
 429.666992188 -147.166992188 484.333007812 -168 547 -168 c 0
 1200 -168 l 0
 1290 -168 1354.83300781 -145.5 1394.5 -100.5 c 0
 1434.16699219 -55.5 1454 10.6669921875 1454 98 c 0
 1454 1026 l 0
 1454 1113.33300781 1431.83300781 1182 1387.5 1232 c 0
 1343.16699219 1282 1280.66699219 1307 1200 1307 c 0
 385 1307 l 0
 385 1460 l 0
 437 1470.66699219 523.333007812 1480.16699219 644 1488.5 c 0
 764.666992188 1496.83300781 887.333007812 1501 1012 1501 c 0
 1200 1501 l 0
 1326.66699219 1501 1432.83300781 1462.5 1518.5 1385.5 c 0
 1604.16699219 1308.5 1647 1188.66699219 1647 1026 c 0
 1647 98 l 0
 1647 -56 1611.16699219 -171.166992188 1539.5 -247.5 c 0
 1467.83300781 -323.833007812 1358.66699219 -362 1212 -362 c 0
 547 -362 l 0
 419.666992188 -362 316.5 -326.666992188 237.5 -256 c 0
EndSplineSet
EndChar

StartChar: A
Encoding: 36 65 36
Width: 1394
VWidth: 1023
Flags: HW
LayerCount: 2
Fore
SplineSet
907 586 m 0
 694 1294 l 0
 481 586 l 0
 907 586 l 0
539 1511 m 0
 858 1511 l 0
 1350 0 l 0
 1085 0 l 0
 969 358 l 0
 422 358 l 0
 307 0 l 0
 47 0 l 0
 539 1511 l 0
EndSplineSet
EndChar

StartChar: B
Encoding: 37 66 37
Width: 1267
VWidth: 1023
Flags: HW
LayerCount: 2
Fore
SplineSet
735 227 m 0
 803 227 854.833007812 245.166992188 890.5 281.5 c 0
 926.166992188 317.833007812 944 377.666992188 944 461 c 0
 944 527.666992188 924.5 580.166992188 885.5 618.5 c 0
 846.5 656.833007812 796.333007812 676 735 676 c 0
 393 676 l 0
 393 227 l 0
 735 227 l 0
723 872 m 0
 775 872 816.666992188 891.166992188 848 929.5 c 0
 879.333007812 967.833007812 895 1019 895 1083 c 0
 895 1217 835.666992188 1284 717 1284 c 0
 393 1284 l 0
 393 872 l 0
 723 872 l 0
141 1511 m 0
 719 1511 l 0
 997.666992188 1511 1137 1380 1137 1118 c 0
 1137 1029.33300781 1117.5 956 1078.5 898 c 0
 1039.5 840 988 802.666992188 924 786 c 0
 996.666992188 768 1058.5 728.833007812 1109.5 668.5 c 0
 1160.5 608.166992188 1186 524.666992188 1186 418 c 0
 1186 268 1149.16699219 160.833007812 1075.5 96.5 c 0
 1001.83300781 32.1669921875 891 0 743 0 c 0
 141 0 l 0
 141 1511 l 0
EndSplineSet
EndChar

StartChar: C
Encoding: 38 67 38
Width: 1196
VWidth: 1023
Flags: HW
LayerCount: 2
Fore
SplineSet
338 48.5 m 0
 261.333007812 88.8330078125 202.833007812 164.833007812 162.5 276.5 c 0
 122.166992188 388.166992188 102 550 102 762 c 0
 102 962.666992188 122.5 1118.66699219 163.5 1230 c 0
 204.5 1341.33300781 264.666992188 1418.5 344 1461.5 c 0
 423.333007812 1504.5 525.666992188 1526 651 1526 c 0
 733 1526 815.333007812 1519.5 898 1506.5 c 0
 980.666992188 1493.5 1051.33300781 1478 1110 1460 c 0
 1110 1266 l 0
 1069.33300781 1274 1011 1281.33300781 935 1288 c 0
 859 1294.66699219 781.333007812 1298 702 1298 c 0
 612 1298 542.833007812 1284 494.5 1256 c 0
 446.166992188 1228 411 1175.83300781 389 1099.5 c 0
 367 1023.16699219 356 909.333007812 356 758 c 0
 356 606.666992188 366.333007812 492.666992188 387 416 c 0
 407.666992188 339.333007812 441.833007812 286.666992188 489.5 258 c 0
 537.166992188 229.333007812 607.333007812 215 700 215 c 0
 855.333007812 215 992 222.666992188 1110 238 c 0
 1110 43 l 0
 986 6.3330078125 831 -12 645 -12 c 0
 517 -12 414.666992188 8.1669921875 338 48.5 c 0
EndSplineSet
EndChar

StartChar: D
Encoding: 39 68 39
Width: 1384
VWidth: 1023
Flags: HW
LayerCount: 2
Fore
SplineSet
741 227 m 0
 841 227 914.166992188 271.833007812 960.5 361.5 c 0
 1006.83300781 451.166992188 1030 582.666992188 1030 756 c 0
 1030 892.666992188 1019.83300781 999.166992188 999.5 1075.5 c 0
 979.166992188 1151.83300781 948.166992188 1205.66699219 906.5 1237 c 0
 864.833007812 1268.33300781 809.666992188 1284 741 1284 c 0
 393 1284 l 0
 393 227 l 0
 741 227 l 0
141 1511 m 0
 766 1511 l 0
 953.333007812 1511 1086.16699219 1446.83300781 1164.5 1318.5 c 0
 1242.83300781 1190.16699219 1282 1002.66699219 1282 756 c 0
 1282 506 1239 317.5 1153 190.5 c 0
 1067 63.5 938 0 766 0 c 0
 141 0 l 0
 141 1511 l 0
EndSplineSet
EndChar

StartChar: E
Encoding: 40 69 40
Width: 1216
VWidth: 1023
Flags: HW
LayerCount: 2
Fore
SplineSet
244.5 53.5 m 0
 175.5 95.8330078125 141 181 141 309 c 0
 141 1182 l 0
 141 1298 172.5 1381.83300781 235.5 1433.5 c 0
 298.5 1485.16699219 374.333007812 1511 463 1511 c 0
 591.666992188 1511 702.333007812 1509 795 1505 c 0
 887.666992188 1501 994 1495.66699219 1114 1489 c 0
 1114 1278 l 0
 543 1278 l 0
 495 1278 458 1266 432 1242 c 0
 406 1218 393 1182.33300781 393 1135 c 0
 393 866 l 0
 1022 852 l 0
 1022 653 l 0
 393 639 l 0
 393 379 l 0
 393 277.666992188 442.333007812 227 541 227 c 0
 1114 227 l 0
 1114 16 l 0
 942 0.6669921875 734.666992188 -8 492 -10 c 0
 396 -10 313.5 11.1669921875 244.5 53.5 c 0
EndSplineSet
EndChar

StartChar: F
Encoding: 41 70 41
Width: 1181
VWidth: 1023
Flags: HW
LayerCount: 2
Fore
SplineSet
141 1182 m 0
 141 1298 172.5 1381.83300781 235.5 1433.5 c 0
 298.5 1485.16699219 374.333007812 1511 463 1511 c 0
 731.666992188 1511 948.666992188 1503.66699219 1114 1489 c 0
 1114 1278 l 0
 537 1278 l 0
 491.666992188 1278 456.333007812 1265.66699219 431 1241 c 0
 405.666992188 1216.33300781 393 1181.66699219 393 1137 c 0
 393 831 l 0
 1022 817 l 0
 1022 618 l 0
 393 604 l 0
 393 0 l 0
 141 0 l 0
 141 1182 l 0
EndSplineSet
EndChar

StartChar: G
Encoding: 42 71 42
Width: 1353
VWidth: 1023
Flags: HW
LayerCount: 2
Fore
SplineSet
285.5 78 m 0
 216.5 136.666992188 168.666992188 221.666992188 142 333 c 0
 115.333007812 444.333007812 102 586 102 758 c 0
 102 934 117.5 1077 148.5 1187 c 0
 179.5 1297 234.166992188 1381 312.5 1439 c 0
 390.833007812 1497 501.666992188 1526 645 1526 c 0
 811.666992188 1526 979 1505.33300781 1147 1464 c 0
 1147 1270 l 0
 1096.33300781 1276.66699219 1028.33300781 1283 943 1289 c 0
 857.666992188 1295 772.666992188 1298 688 1298 c 0
 596.666992188 1298 527.5 1281 480.5 1247 c 0
 433.5 1213 401 1157.83300781 383 1081.5 c 0
 365 1005.16699219 356 896.666992188 356 756 c 0
 356 612.666992188 365 503 383 427 c 0
 401 351 430.833007812 298 472.5 268 c 0
 514.166992188 238 574.333007812 223 653 223 c 0
 709 223 765 228.5 821 239.5 c 0
 877 250.5 927 263.666992188 971 279 c 0
 971 627 l 0
 666 627 l 0
 666 823 l 0
 706.666992188 828.333007812 759.166992188 833.166992188 823.5 837.5 c 0
 887.833007812 841.833007812 950.666992188 844 1012 844 c 0
 1094 844 1161.33300781 842 1214 838 c 0
 1214 0 l 0
 1024 0 l 0
 989 104 l 0
 935.666992188 74 872.166992188 47.5 798.5 24.5 c 0
 724.833007812 1.5 649 -10 571 -10 c 0
 449.666992188 -10 354.5 19.3330078125 285.5 78 c 0
EndSplineSet
EndChar

StartChar: H
Encoding: 43 72 43
Width: 1425
VWidth: 1023
Flags: HW
LayerCount: 2
Fore
SplineSet
141 1511 m 0
 393 1511 l 0
 393 858 l 0
 1030 858 l 0
 1030 1511 l 0
 1284 1511 l 0
 1284 0 l 0
 1030 0 l 0
 1030 631 l 0
 393 631 l 0
 393 0 l 0
 141 0 l 0
 141 1511 l 0
EndSplineSet
EndChar

StartChar: I
Encoding: 44 73 44
Width: 534
VWidth: 1023
Flags: HW
LayerCount: 2
Fore
SplineSet
141 1511 m 0
 393 1511 l 0
 393 0 l 0
 141 0 l 0
 141 1511 l 0
EndSplineSet
EndChar

StartChar: J
Encoding: 45 74 45
Width: 813
VWidth: 1023
Flags: HW
LayerCount: 2
Fore
SplineSet
169 0 m 0
 124.333007812 8 85.6669921875 18.3330078125 53 31 c 0
 53 231 l 0
 129.666992188 220.333007812 192.666992188 215 242 215 c 0
 300.666992188 215 345 228.666992188 375 256 c 0
 405 283.333007812 420 329 420 393 c 0
 420 1511 l 0
 674 1511 l 0
 674 356 l 0
 674 229.333007812 644 136.333007812 584 77 c 0
 524 17.6669921875 428.333007812 -12 297 -12 c 0
 256.333007812 -12 213.666992188 -8 169 0 c 0
EndSplineSet
EndChar

StartChar: K
Encoding: 46 75 46
Width: 1292
VWidth: 1023
Flags: HW
LayerCount: 2
Fore
SplineSet
141 1511 m 0
 393 1511 l 0
 393 866 l 0
 618 866 l 0
 965 1511 l 0
 1235 1511 l 0
 819 754 l 0
 1245 0 l 0
 975 0 l 0
 616 637 l 0
 393 637 l 0
 393 0 l 0
 141 0 l 0
 141 1511 l 0
EndSplineSet
EndChar

StartChar: L
Encoding: 47 76 47
Width: 1093
VWidth: 1023
Flags: HW
LayerCount: 2
Fore
SplineSet
226 79 m 0
 169.333007812 131.666992188 141 218 141 338 c 0
 141 1511 l 0
 393 1511 l 0
 393 379 l 0
 393 323 406.333007812 284 433 262 c 0
 459.666992188 240 496.333007812 229 543 229 c 0
 1044 229 l 0
 1044 0 l 0
 479 0 l 0
 367 0 282.666992188 26.3330078125 226 79 c 0
EndSplineSet
EndChar

StartChar: M
Encoding: 48 77 48
Width: 1773
VWidth: 1023
Flags: HW
LayerCount: 2
Fore
SplineSet
1430 0 m 0
 1303 1081 l 0
 1004 0 l 0
 766 0 l 0
 465 1075 l 0
 344 0 l 0
 100 0 l 0
 274 1511 l 0
 520 1511 l 0
 887 301 l 0
 1251 1511 l 0
 1497 1511 l 0
 1675 0 l 0
 1430 0 l 0
EndSplineSet
EndChar

StartChar: N
Encoding: 49 78 49
Width: 1427
VWidth: 1023
Flags: HW
LayerCount: 2
Fore
SplineSet
158 1511 m 0
 360 1511 l 0
 1049 432 l 0
 1049 1511 l 0
 1303 1511 l 0
 1303 0 l 0
 1100 0 l 0
 412 1079 l 0
 412 0 l 0
 158 0 l 0
 158 1511 l 0
EndSplineSet
EndChar

StartChar: O
Encoding: 50 79 50
Width: 1423
VWidth: 1023
Flags: HW
LayerCount: 2
Fore
SplineSet
926.5 256 m 0
 976.166992188 283.333007812 1012 334.833007812 1034 410.5 c 0
 1056 486.166992188 1067 600 1067 752 c 0
 1067 909.333007812 1055.66699219 1026.83300781 1033 1104.5 c 0
 1010.33300781 1182.16699219 974.5 1233.83300781 925.5 1259.5 c 0
 876.5 1285.16699219 805 1298 711 1298 c 0
 619.666992188 1298 549.333007812 1284.83300781 500 1258.5 c 0
 450.666992188 1232.16699219 414.333007812 1180.33300781 391 1103 c 0
 367.666992188 1025.66699219 356 908.666992188 356 752 c 0
 356 599.333007812 366.666992188 485.333007812 388 410 c 0
 409.333007812 334.666992188 444.5 283.333007812 493.5 256 c 0
 542.5 228.666992188 615 215 711 215 c 0
 805 215 876.833007812 228.666992188 926.5 256 c 0
362.5 46 m 0
 276.166992188 84.6669921875 211.166992188 159 167.5 269 c 0
 123.833007812 379 102 540 102 752 c 0
 102 963.333007812 124.333007812 1125 169 1237 c 0
 213.666992188 1349 279 1425.16699219 365 1465.5 c 0
 451 1505.83300781 566.333007812 1526 711 1526 c 0
 857 1526 973.333007812 1505.83300781 1060 1465.5 c 0
 1146.66699219 1425.16699219 1211.83300781 1349.33300781 1255.5 1238 c 0
 1299.16699219 1126.66699219 1321 964.666992188 1321 752 c 0
 1321 540.666992188 1298.83300781 379.833007812 1254.5 269.5 c 0
 1210.16699219 159.166992188 1145.33300781 84.6669921875 1060 46 c 0
 974.666992188 7.3330078125 858.333007812 -12 711 -12 c 0
 565 -12 448.833007812 7.3330078125 362.5 46 c 0
EndSplineSet
EndChar

StartChar: P
Encoding: 51 80 51
Width: 1259
VWidth: 1023
Flags: HW
LayerCount: 2
Fore
SplineSet
733 715 m 0
 795.666992188 715 844.5 737.5 879.5 782.5 c 0
 914.5 827.5 932 901.333007812 932 1004 c 0
 932 1191.33300781 868.333007812 1284.66699219 741 1284 c 0
 393 1284 l 0
 393 715 l 0
 733 715 l 0
141 1511 m 0
 766 1511 l 0
 887.333007812 1511 987.666992188 1476.66699219 1067 1408 c 0
 1146.33300781 1339.33300781 1186 1205.33300781 1186 1006 c 0
 1186 659.333007812 1047.33300781 485.666992188 770 485 c 0
 728 485 666 488.5 584 495.5 c 0
 502 502.5 438.333007812 509.333007812 393 516 c 0
 393 0 l 0
 141 0 l 0
 141 1511 l 0
EndSplineSet
EndChar

StartChar: Q
Encoding: 52 81 52
Width: 1423
VWidth: 1023
Flags: HW
LayerCount: 2
Fore
SplineSet
791.5 -303 m 0
 718.5 -249.666992188 678 -173.333007812 670 -74 c 0
 846 -74 l 0
 856.666992188 -116 879.833007812 -147.333007812 915.5 -168 c 0
 951.166992188 -188.666992188 991.333007812 -199 1036 -199 c 0
 1063.33300781 -199 1103 -192.666992188 1155 -180 c 0
 1155 -369 l 0
 1114.33300781 -378.333007812 1078.33300781 -383 1047 -383 c 0
 949.666992188 -383 864.5 -356.333007812 791.5 -303 c 0
926.5 256 m 0
 976.166992188 283.333007812 1012 334.833007812 1034 410.5 c 0
 1056 486.166992188 1067 600 1067 752 c 0
 1067 909.333007812 1055.66699219 1026.83300781 1033 1104.5 c 0
 1010.33300781 1182.16699219 974.5 1233.83300781 925.5 1259.5 c 0
 876.5 1285.16699219 805 1298 711 1298 c 0
 619.666992188 1298 549.333007812 1284.83300781 500 1258.5 c 0
 450.666992188 1232.16699219 414.333007812 1180.33300781 391 1103 c 0
 367.666992188 1025.66699219 356 908.666992188 356 752 c 0
 356 599.333007812 366.666992188 485.333007812 388 410 c 0
 409.333007812 334.666992188 444.5 283.333007812 493.5 256 c 0
 542.5 228.666992188 615 215 711 215 c 0
 805 215 876.833007812 228.666992188 926.5 256 c 0
362.5 46 m 0
 276.166992188 84.6669921875 211.166992188 159 167.5 269 c 0
 123.833007812 379 102 540 102 752 c 0
 102 963.333007812 124.333007812 1125 169 1237 c 0
 213.666992188 1349 279 1425.16699219 365 1465.5 c 0
 451 1505.83300781 566.333007812 1526 711 1526 c 0
 857 1526 973.333007812 1505.83300781 1060 1465.5 c 0
 1146.66699219 1425.16699219 1211.83300781 1349.33300781 1255.5 1238 c 0
 1299.16699219 1126.66699219 1321 964.666992188 1321 752 c 0
 1321 540.666992188 1298.83300781 379.833007812 1254.5 269.5 c 0
 1210.16699219 159.166992188 1145.33300781 84.6669921875 1060 46 c 0
 974.666992188 7.3330078125 858.333007812 -12 711 -12 c 0
 565 -12 448.833007812 7.3330078125 362.5 46 c 0
EndSplineSet
EndChar

StartChar: R
Encoding: 53 82 53
Width: 1269
VWidth: 1023
Flags: HW
LayerCount: 2
Fore
SplineSet
713 784 m 0
 778.333007812 784 829.166992188 802.833007812 865.5 840.5 c 0
 901.833007812 878.166992188 920 945.333007812 920 1042 c 0
 920 1134.66699219 901.833007812 1198.16699219 865.5 1232.5 c 0
 829.166992188 1266.83300781 778.333007812 1284 713 1284 c 0
 393 1284 l 0
 393 784 l 0
 713 784 l 0
141 1511 m 0
 756 1511 l 0
 884.666992188 1511 986.5 1477.33300781 1061.5 1410 c 0
 1136.5 1342.66699219 1174 1220 1174 1042 c 0
 1174 908 1150.33300781 810.333007812 1103 749 c 0
 1055.66699219 687.666992188 994 644 918 618 c 0
 1208 0 l 0
 952 0 l 0
 690 582 l 0
 606.666992188 582 507.666992188 583.333007812 393 586 c 0
 393 0 l 0
 141 0 l 0
 141 1511 l 0
EndSplineSet
EndChar

StartChar: S
Encoding: 54 83 54
Width: 1198
VWidth: 1023
Flags: HW
LayerCount: 2
Fore
SplineSet
342 0 m 0
 252 8 177.666992188 19 119 33 c 0
 119 231 l 0
 241.666992188 220.333007812 393.666992188 215 575 215 c 0
 666.333007812 215 735.666992188 228 783 254 c 0
 830.333007812 280 854 327 854 395 c 0
 854 467 l 0
 854 520.333007812 839 561.333007812 809 590 c 0
 779 618.666992188 734.666992188 633 676 633 c 0
 535 633 l 0
 391.666992188 633 284 664.333007812 212 727 c 0
 140 789.666992188 104 891.333007812 104 1032 c 0
 104 1110 l 0
 104 1252 143.666992188 1356.5 223 1423.5 c 0
 302.333007812 1490.5 419.666992188 1524 575 1524 c 0
 645.666992188 1524 723.166992188 1519.16699219 807.5 1509.5 c 0
 891.833007812 1499.83300781 964 1489 1024 1477 c 0
 1024 1278 l 0
 840 1290 700 1296 604 1296 c 0
 518 1296 453.5 1282 410.5 1254 c 0
 367.5 1226 346 1174.66699219 346 1100 c 0
 346 1049 l 0
 346 987.666992188 362.666992188 943.166992188 396 915.5 c 0
 429.333007812 887.833007812 480.333007812 874 549 874 c 0
 707 874 l 0
 833.666992188 874 930.166992188 839.666992188 996.5 771 c 0
 1062.83300781 702.333007812 1096 611.333007812 1096 498 c 0
 1096 401 l 0
 1096 243.666992188 1052.33300781 135.5 965 76.5 c 0
 877.666992188 17.5 752 -12 588 -12 c 0
 514 -12 432 -8 342 0 c 0
EndSplineSet
EndChar

StartChar: T
Encoding: 55 84 55
Width: 1185
VWidth: 1023
Flags: HW
LayerCount: 2
Fore
SplineSet
467 1284 m 0
 33 1284 l 0
 33 1511 l 0
 1153 1511 l 0
 1153 1284 l 0
 721 1284 l 0
 721 0 l 0
 467 0 l 0
 467 1284 l 0
EndSplineSet
EndChar

StartChar: U
Encoding: 56 85 56
Width: 1396
VWidth: 1023
Flags: HW
LayerCount: 2
Fore
SplineSet
269.5 97.5 m 0
 170.5 169.166992188 121 297 121 481 c 0
 121 1511 l 0
 373 1511 l 0
 373 481 l 0
 373 385.666992188 400.333007812 317.833007812 455 277.5 c 0
 509.666992188 237.166992188 590.666992188 217 698 217 c 0
 806 217 887.333007812 237.166992188 942 277.5 c 0
 996.666992188 317.833007812 1024 385.666992188 1024 481 c 0
 1024 1511 l 0
 1276 1511 l 0
 1276 481 l 0
 1276 297 1226.5 169.166992188 1127.5 97.5 c 0
 1028.5 25.8330078125 885.333007812 -10 698 -10 c 0
 511.333007812 -10 368.5 25.8330078125 269.5 97.5 c 0
EndSplineSet
EndChar

StartChar: V
Encoding: 57 86 57
Width: 1394
VWidth: 1023
Flags: HW
LayerCount: 2
Fore
SplineSet
47 1511 m 0
 309 1511 l 0
 698 272 l 0
 1087 1511 l 0
 1350 1511 l 0
 858 0 l 0
 539 0 l 0
 47 1511 l 0
EndSplineSet
EndChar

StartChar: W
Encoding: 58 87 58
Width: 2029
VWidth: 1023
Flags: HW
LayerCount: 2
Fore
SplineSet
47 1511 m 0
 309 1511 l 0
 582 369 l 0
 897 1511 l 0
 1135 1511 l 0
 1448 369 l 0
 1720 1511 l 0
 1982 1511 l 0
 1612 0 l 0
 1350 0 l 0
 1016 1145 l 0
 680 0 l 0
 418 0 l 0
 47 1511 l 0
EndSplineSet
EndChar

StartChar: X
Encoding: 59 88 59
Width: 1329
VWidth: 1023
Flags: HW
LayerCount: 2
Fore
SplineSet
811 741 m 0
 1276 0 l 0
 995 0 l 0
 653 545 l 0
 334 0 l 0
 55 0 l 0
 520 758 l 0
 49 1511 l 0
 328 1511 l 0
 678 954 l 0
 1001 1511 l 0
 1282 1511 l 0
 811 741 l 0
EndSplineSet
EndChar

StartChar: Y
Encoding: 60 89 60
Width: 1277
VWidth: 1023
Flags: HW
LayerCount: 2
Fore
SplineSet
512 473 m 0
 49 1511 l 0
 311 1511 l 0
 643 731 l 0
 975 1511 l 0
 1231 1511 l 0
 766 473 l 0
 766 0 l 0
 512 0 l 0
 512 473 l 0
EndSplineSet
EndChar

StartChar: Z
Encoding: 61 90 61
Width: 1165
VWidth: 1023
Flags: HW
LayerCount: 2
Fore
SplineSet
82 205 m 0
 782 1284 l 0
 82 1284 l 0
 82 1511 l 0
 1090 1511 l 0
 1090 1309 l 0
 391 227 l 0
 1090 227 l 0
 1090 0 l 0
 82 0 l 0
 82 205 l 0
EndSplineSet
EndChar

StartChar: bracketleft
Encoding: 62 91 62
Width: 690
VWidth: 1023
Flags: HW
LayerCount: 2
Fore
SplineSet
229.5 -308 m 0
 180.5 -226.666992188 156 -130 156 -18 c 0
 156 1335 l 0
 156 1452.33300781 182.833007812 1546.5 236.5 1617.5 c 0
 290.166992188 1688.5 380 1724 506 1724 c 0
 655 1724 l 0
 655 1520 l 0
 578 1520 l 0
 466 1520 410 1446.66699219 410 1300 c 0
 410 -6 l 0
 410 -152 466 -225 578 -225 c 0
 655 -225 l 0
 655 -430 l 0
 506 -430 l 0
 370.666992188 -430 278.5 -389.333007812 229.5 -308 c 0
EndSplineSet
EndChar

StartChar: backslash
Encoding: 63 92 63
Width: 903
VWidth: 1023
Flags: HW
LayerCount: 2
Fore
SplineSet
37 1577 m 0
 291 1577 l 0
 866 -147 l 0
 612 -147 l 0
 37 1577 l 0
EndSplineSet
EndChar

StartChar: bracketright
Encoding: 64 93 64
Width: 690
VWidth: 1023
Flags: HW
LayerCount: 2
Fore
SplineSet
37 -225 m 0
 115 -225 l 0
 227 -225 283 -152 283 -6 c 0
 283 1300 l 0
 283 1446 227 1519.33300781 115 1520 c 0
 37 1520 l 0
 37 1724 l 0
 186 1724 l 0
 311.333007812 1724 401.166992188 1688.5 455.5 1617.5 c 0
 509.833007812 1546.5 537 1452.33300781 537 1335 c 0
 537 -18 l 0
 537 -130 512.333007812 -226.666992188 463 -308 c 0
 413.666992188 -389.333007812 321.333007812 -430 186 -430 c 0
 37 -430 l 0
 37 -225 l 0
EndSplineSet
EndChar

StartChar: asciicircum
Encoding: 65 94 65
Width: 798
VWidth: 1023
Flags: HW
LayerCount: 2
Fore
SplineSet
324 1366 m 0
 498 1366 l 0
 709 1087 l 0
 559 1087 l 0
 406 1245 l 0
 242 1087 l 0
 92 1087 l 0
 324 1366 l 0
EndSplineSet
EndChar

StartChar: underscore
Encoding: 66 95 66
Width: 1247
VWidth: 1023
Flags: HW
LayerCount: 2
Fore
SplineSet
0 -168 m 0
 1247 -168 l 0
 1247 -373 l 0
 0 -373 l 0
 0 -168 l 0
EndSplineSet
EndChar

StartChar: grave
Encoding: 67 96 67
Width: 462
VWidth: 1023
Flags: HW
LayerCount: 2
Fore
SplineSet
37 1577 m 0
 244 1577 l 0
 428 1292 l 0
 279 1292 l 0
 37 1577 l 0
EndSplineSet
EndChar

StartChar: a
Encoding: 68 97 68
Width: 1122
VWidth: 1023
Flags: HW
LayerCount: 2
Fore
SplineSet
632 195.5 m 0
 695.333007812 215.166992188 733 228.666992188 745 236 c 0
 745 522 l 0
 508 510 l 0
 389.333007812 500.666992188 330 448 330 352 c 0
 330 307 l 0
 330 257.666992188 344 222.166992188 372 200.5 c 0
 400 178.833007812 435.666992188 167.333007812 479 166 c 0
 517.666992188 166 568.666992188 175.833007812 632 195.5 c 0
154.5 62.5 m 0
 103.5 112.166992188 78 179.333007812 78 264 c 0
 78 356 l 0
 78 443.333007812 107.666992188 513 167 565 c 0
 226.333007812 617 314.666992188 643 432 643 c 0
 745 643 l 0
 745 739 l 0
 745 779.666992188 738.333007812 812.333007812 725 837 c 0
 711.666992188 861.666992188 686.5 880.5 649.5 893.5 c 0
 612.5 906.5 559 913 489 913 c 0
 158 913 l 0
 158 1061 l 0
 282 1095 425.333007812 1112 588 1112 c 0
 727.333007812 1112 830.666992188 1084.66699219 898 1030 c 0
 965.333007812 975.333007812 999 884 999 756 c 0
 999 0 l 0
 801 0 l 0
 758 119 l 0
 744.666992188 107 716.666992188 90.3330078125 674 69 c 0
 631.333007812 47.6669921875 581.666992188 28.8330078125 525 12.5 c 0
 468.333007812 -3.8330078125 412 -12 356 -12 c 0
 272.666992188 -12 205.5 12.8330078125 154.5 62.5 c 0
EndSplineSet
EndChar

StartChar: b
Encoding: 69 98 69
Width: 1193
VWidth: 1023
Flags: HW
LayerCount: 2
Fore
SplineSet
787.5 278.5 m 0
 825.166992188 334.166992188 844 425 844 551 c 0
 844 649 834.666992188 724 816 776 c 0
 797.333007812 828 772.666992188 862.833007812 742 880.5 c 0
 711.333007812 898.166992188 673 907 627 907 c 0
 550.333007812 907 469 883.333007812 383 836 c 0
 383 262 l 0
 467.666992188 216.666992188 549 194.333007812 627 195 c 0
 696.333007812 195 749.833007812 222.833007812 787.5 278.5 c 0
535.5 19.5 m 0
 481.833007812 40.5 431 69.3330078125 383 106 c 0
 340 0 l 0
 129 0 l 0
 129 1563 l 0
 383 1563 l 0
 383 1014 l 0
 435 1042.66699219 490 1066.16699219 548 1084.5 c 0
 606 1102.83300781 659 1112 707 1112 c 0
 799.666992188 1112 874.666992188 1092.83300781 932 1054.5 c 0
 989.333007812 1016.16699219 1031.33300781 955 1058 871 c 0
 1084.66699219 787 1098 676.333007812 1098 539 c 0
 1098 356.333007812 1067.16699219 218.833007812 1005.5 126.5 c 0
 943.833007812 34.1669921875 848.333007812 -12 719 -12 c 0
 650.333007812 -12 589.166992188 -1.5 535.5 19.5 c 0
EndSplineSet
EndChar

StartChar: c
Encoding: 70 99 70
Width: 1003
VWidth: 1023
Flags: HW
LayerCount: 2
Fore
SplineSet
214 112 m 0
 135.333007812 194.666992188 96 339 96 545 c 0
 96 691 113.833007812 805.333007812 149.5 888 c 0
 185.166992188 970.666992188 236 1028.66699219 302 1062 c 0
 368 1095.33300781 452.333007812 1112 555 1112 c 0
 686.333007812 1112 811.333007812 1097.66699219 930 1069 c 0
 930 924 l 0
 631 924 l 0
 563 924 508.833007812 913.333007812 468.5 892 c 0
 428.166992188 870.666992188 398 832.666992188 378 778 c 0
 358 723.333007812 348 645.666992188 348 545 c 0
 348 445 358 368.833007812 378 316.5 c 0
 398 264.166992188 428 228.333007812 468 209 c 0
 508 189.666992188 563 180 633 180 c 0
 946 180 l 0
 946 37 l 0
 892.666992188 23.6669921875 830.166992188 12.1669921875 758.5 2.5 c 0
 686.833007812 -7.1669921875 617 -12 549 -12 c 0
 404.333007812 -12 292.666992188 29.3330078125 214 112 c 0
EndSplineSet
EndChar

StartChar: d
Encoding: 71 100 71
Width: 1187
VWidth: 1023
Flags: HW
LayerCount: 2
Fore
SplineSet
809 264 m 0
 809 874 l 0
 765 889.333007812 726.666992188 901.166992188 694 909.5 c 0
 661.333007812 917.833007812 626 922 588 922 c 0
 528 922 480.833007812 911.333007812 446.5 890 c 0
 412.166992188 868.666992188 387.166992188 831.333007812 371.5 778 c 0
 355.833007812 724.666992188 348 649 348 551 c 0
 348 458.333007812 355.5 386.333007812 370.5 335 c 0
 385.5 283.666992188 409 247.166992188 441 225.5 c 0
 473 203.833007812 517 193 573 193 c 0
 647 192.333007812 725.666992188 216 809 264 c 0
192.5 118 m 0
 128.166992188 204.666992188 96 345 96 539 c 0
 96 678.333007812 109 789.166992188 135 871.5 c 0
 161 953.833007812 204 1014.5 264 1053.5 c 0
 324 1092.5 406 1112 510 1112 c 0
 606.666992188 1112 706.333007812 1093.66699219 809 1057 c 0
 809 1563 l 0
 1063 1563 l 0
 1063 0 l 0
 852 0 l 0
 809 106 l 0
 773.666992188 74.6669921875 725.166992188 47.1669921875 663.5 23.5 c 0
 601.833007812 -0.1669921875 543.666992188 -12 489 -12 c 0
 355.666992188 -12 256.833007812 31.3330078125 192.5 118 c 0
EndSplineSet
EndChar

StartChar: e
Encoding: 72 101 72
Width: 1103
VWidth: 1023
Flags: HW
LayerCount: 2
Fore
SplineSet
643 610 m 0
 692.333007812 610 727.833007812 619.666992188 749.5 639 c 0
 771.166992188 658.333007812 782 691.666992188 782 739 c 0
 782 809.666992188 766.333007812 858.833007812 735 886.5 c 0
 703.666992188 914.166992188 649 928 571 928 c 0
 512.333007812 928 467 918.666992188 435 900 c 0
 403 881.333007812 379.833007812 849.5 365.5 804.5 c 0
 351.166992188 759.5 344 694.666992188 344 610 c 0
 643 610 l 0
291.5 40 m 0
 222.5 73.3330078125 172.666992188 130 142 210 c 0
 111.333007812 290 96 403 96 549 c 0
 96 697.666992188 110.666992188 812.333007812 140 893 c 0
 169.333007812 973.666992188 217.833007812 1030.33300781 285.5 1063 c 0
 353.166992188 1095.66699219 448.333007812 1112 571 1112 c 0
 679 1112 764.5 1101.16699219 827.5 1079.5 c 0
 890.5 1057.83300781 936.333007812 1020 965 966 c 0
 993.666992188 912 1008 836.333007812 1008 739 c 0
 1008 637.666992188 979 565.333007812 921 522 c 0
 863 478.666992188 778.666992188 457 668 457 c 0
 346 457 l 0
 348.666992188 386.333007812 358.166992188 331.333007812 374.5 292 c 0
 390.833007812 252.666992188 419.833007812 224.166992188 461.5 206.5 c 0
 503.166992188 188.833007812 563.666992188 180 643 180 c 0
 975 180 l 0
 975 31 l 0
 901 17.6669921875 835 7.5 777 0.5 c 0
 719 -6.5 652.666992188 -10 578 -10 c 0
 456 -10 360.5 6.6669921875 291.5 40 c 0
EndSplineSet
EndChar

StartChar: f
Encoding: 73 102 73
Width: 786
VWidth: 1023
Flags: HW
LayerCount: 2
Fore
SplineSet
201 893 m 0
 41 893 l 0
 41 1057 l 0
 201 1098 l 0
 201 1190 l 0
 201 1324 227.5 1421.66699219 280.5 1483 c 0
 333.5 1544.33300781 423 1575 549 1575 c 0
 623 1575 696.666992188 1566 770 1548 c 0
 770 1368 l 0
 596 1368 l 0
 541.333007812 1368 504.166992188 1355 484.5 1329 c 0
 464.833007812 1303 455 1260.66699219 455 1202 c 0
 455 1098 l 0
 756 1098 l 0
 756 893 l 0
 455 893 l 0
 455 0 l 0
 201 0 l 0
 201 893 l 0
EndSplineSet
EndChar

StartChar: g
Encoding: 74 103 74
Width: 1187
VWidth: 1023
Flags: HW
LayerCount: 2
Fore
SplineSet
471 -4 m 0
 417.666992188 -4 374 -16.6669921875 340 -42 c 0
 306 -67.3330078125 289 -104 289 -152 c 0
 289 -184 l 0
 289 -232 305.333007812 -267.666992188 338 -291 c 0
 370.666992188 -314.333007812 417 -326 477 -326 c 0
 700 -326 l 0
 764 -326 813.833007812 -313.666992188 849.5 -289 c 0
 885.166992188 -264.333007812 903 -228 903 -180 c 0
 903 -145 l 0
 903 -51 840.333007812 -4 715 -4 c 0
 471 -4 l 0
781 588 m 0
 809 619.333007812 823 662.333007812 823 717 c 0
 823 785 807.666992188 833.666992188 777 863 c 0
 746.333007812 892.333007812 701.666992188 907 643 907 c 0
 528 907 l 0
 465.333007812 907 418.333007812 893 387 865 c 0
 355.666992188 837 340 791 340 727 c 0
 340 663 354.666992188 616 384 586 c 0
 413.333007812 556 456.666992188 541 514 541 c 0
 633 541 l 0
 703.666992188 541 753 556.666992188 781 588 c 0
1147 958 m 0
 952 932 l 0
 982 904.666992188 1006.33300781 873.166992188 1025 837.5 c 0
 1043.66699219 801.833007812 1053 750.666992188 1053 684 c 0
 1053 584 1021.5 503.333007812 958.5 442 c 0
 895.5 380.666992188 795.666992188 350 659 350 c 0
 473 350 l 0
 375 350 326 320 326 260 c 0
 326 234 335.833007812 215.166992188 355.5 203.5 c 0
 375.166992188 191.833007812 399.333007812 186 428 186 c 0
 754 186 l 0
 884 186 981.333007812 160.5 1046 109.5 c 0
 1110.66699219 58.5 1143 -22.3330078125 1143 -133 c 0
 1143 -168 l 0
 1143 -276 1108.5 -359.333007812 1039.5 -418 c 0
 970.5 -476.666992188 867.666992188 -506 731 -506 c 0
 410 -506 l 0
 302 -506 214.833007812 -482.833007812 148.5 -436.5 c 0
 82.1669921875 -390.166992188 49 -324.666992188 49 -240 c 0
 49 -201 l 0
 49 -145 64.3330078125 -96.1669921875 95 -54.5 c 0
 125.666992188 -12.8330078125 167 19.6669921875 219 43 c 0
 183.666992188 62.3330078125 156.833007812 87.3330078125 138.5 118 c 0
 120.166992188 148.666992188 111 182.333007812 111 219 c 0
 111 272.333007812 127 317.166992188 159 353.5 c 0
 191 389.833007812 235.666992188 414 293 426 c 0
 227.666992188 457.333007812 181 500.666992188 153 556 c 0
 125 611.333007812 111 673 111 741 c 0
 111 863.666992188 148.166992188 954.166992188 222.5 1012.5 c 0
 296.833007812 1070.83300781 407.666992188 1100 555 1100 c 0
 1147 1100 l 0
 1147 958 l 0
EndSplineSet
EndChar

StartChar: h
Encoding: 75 104 75
Width: 1214
VWidth: 1023
Flags: HW
LayerCount: 2
Fore
SplineSet
129 1561 m 0
 383 1561 l 0
 383 983 l 0
 431 1019.66699219 488.333007812 1051 555 1077 c 0
 621.666992188 1103 687.333007812 1116 752 1116 c 0
 868 1116 953.333007812 1081.5 1008 1012.5 c 0
 1062.66699219 943.5 1090 850.333007812 1090 733 c 0
 1090 0 l 0
 836 0 l 0
 836 702 l 0
 836 759.333007812 819.166992188 804.5 785.5 837.5 c 0
 751.833007812 870.5 707.666992188 887 653 887 c 0
 603.666992188 887 558 879.5 516 864.5 c 0
 474 849.5 429.666992188 827 383 797 c 0
 383 0 l 0
 129 0 l 0
 129 1561 l 0
EndSplineSet
EndChar

StartChar: i
Encoding: 76 105 76
Width: 514
VWidth: 1023
Flags: HW
LayerCount: 2
Fore
SplineSet
129 1098 m 0
 383 1098 l 0
 383 0 l 0
 129 0 l 0
 129 1098 l 0
134 1282 m 0
 126.666992188 1288.66699219 123 1297.66699219 123 1309 c 0
 123 1495 l 0
 123 1507 126.333007812 1516.83300781 133 1524.5 c 0
 139.666992188 1532.16699219 149.333007812 1536 162 1536 c 0
 354 1536 l 0
 366 1536 375.166992188 1532.16699219 381.5 1524.5 c 0
 387.833007812 1516.83300781 391 1507 391 1495 c 0
 391 1309 l 0
 391 1284.33300781 378.666992188 1272 354 1272 c 0
 162 1272 l 0
 150.666992188 1272 141.333007812 1275.33300781 134 1282 c 0
EndSplineSet
EndChar

StartChar: j
Encoding: 77 106 77
Width: 514
VWidth: 1023
Flags: HW
LayerCount: 2
Fore
SplineSet
129 1098 m 0
 383 1098 l 0
 383 18 l 0
 383 -72 377.5 -162.333007812 366.5 -253 c 0
 355.5 -343.666992188 340.666992188 -421 322 -485 c 0
 129 -485 l 0
 129 1098 l 0
134 1282 m 0
 126.666992188 1288.66699219 123 1297.66699219 123 1309 c 0
 123 1495 l 0
 123 1522.33300781 136 1536 162 1536 c 0
 352 1536 l 0
 376.666992188 1536 389 1522.33300781 389 1495 c 0
 389 1309 l 0
 389 1284.33300781 376.666992188 1272 352 1272 c 0
 162 1272 l 0
 150.666992188 1272 141.333007812 1275.33300781 134 1282 c 0
EndSplineSet
EndChar

StartChar: k
Encoding: 78 107 78
Width: 1099
VWidth: 1023
Flags: HW
LayerCount: 2
Fore
SplineSet
129 1563 m 0
 383 1563 l 0
 383 696 l 0
 522 696 l 0
 797 1098 l 0
 1057 1098 l 0
 709 582 l 0
 1085 0 l 0
 825 0 l 0
 518 469 l 0
 383 469 l 0
 383 0 l 0
 129 0 l 0
 129 1563 l 0
EndSplineSet
EndChar

StartChar: l
Encoding: 79 108 79
Width: 626
VWidth: 1023
Flags: HW
LayerCount: 2
Fore
SplineSet
209 81 m 0
 155.666992188 137.666992188 129 228.666992188 129 354 c 0
 129 1563 l 0
 383 1563 l 0
 383 389 l 0
 383 319.666992188 393.166992188 271 413.5 243 c 0
 433.833007812 215 466.666992188 198.333007812 512 193 c 0
 604 180 l 0
 604 -4 l 0
 455 -4 l 0
 344.333007812 -4 262.333007812 24.3330078125 209 81 c 0
EndSplineSet
EndChar

StartChar: m
Encoding: 80 109 80
Width: 1918
VWidth: 1023
Flags: HW
LayerCount: 2
Fore
SplineSet
129 1098 m 0
 336 1098 l 0
 383 983 l 0
 441.666992188 1025 501 1057.66699219 561 1081 c 0
 621 1104.33300781 689.333007812 1116 766 1116 c 0
 831.333007812 1116 887.666992188 1101.66699219 935 1073 c 0
 982.333007812 1044.33300781 1018.66699219 1006 1044 958 c 0
 1101.33300781 1000 1166.66699219 1036.83300781 1240 1068.5 c 0
 1313.33300781 1100.16699219 1383.33300781 1116 1450 1116 c 0
 1680.66699219 1116 1796 984.333007812 1796 721 c 0
 1796 0 l 0
 1542 0 l 0
 1542 700 l 0
 1542 758.666992188 1525.66699219 804.5 1493 837.5 c 0
 1460.33300781 870.5 1416 887 1360 887 c 0
 1313.33300781 887 1265.16699219 878.166992188 1215.5 860.5 c 0
 1165.83300781 842.833007812 1119 818.666992188 1075 788 c 0
 1084.33300781 760.666992188 1089.33300781 729.333007812 1090 694 c 0
 1090 0 l 0
 836 0 l 0
 836 700 l 0
 836 758.666992188 819.5 804.5 786.5 837.5 c 0
 753.5 870.5 709 887 653 887 c 0
 602.333007812 887 556 879.5 514 864.5 c 0
 472 849.5 428.333007812 827 383 797 c 0
 383 0 l 0
 129 0 l 0
 129 1098 l 0
EndSplineSet
EndChar

StartChar: n
Encoding: 81 110 81
Width: 1214
VWidth: 1023
Flags: HW
LayerCount: 2
Fore
SplineSet
129 1098 m 0
 336 1098 l 0
 383 983 l 0
 433.666992188 1021 491.333007812 1052.66699219 556 1078 c 0
 620.666992188 1103.33300781 685.333007812 1116 750 1116 c 0
 870 1116 956.666992188 1080.83300781 1010 1010.5 c 0
 1063.33300781 940.166992188 1090 847 1090 731 c 0
 1090 0 l 0
 836 0 l 0
 836 700 l 0
 836 758.666992188 819.5 804.5 786.5 837.5 c 0
 753.5 870.5 709 887 653 887 c 0
 602.333007812 887 556 879.5 514 864.5 c 0
 472 849.5 428.333007812 827 383 797 c 0
 383 0 l 0
 129 0 l 0
 129 1098 l 0
EndSplineSet
EndChar

StartChar: o
Encoding: 82 111 82
Width: 1179
VWidth: 1023
Flags: HW
LayerCount: 2
Fore
SplineSet
730 217.5 m 0
 763.333007812 233.833007812 788.166992188 267.5 804.5 318.5 c 0
 820.833007812 369.5 829 447.666992188 829 553 c 0
 829 657 820.833007812 734.5 804.5 785.5 c 0
 788.166992188 836.5 763.333007812 869.833007812 730 885.5 c 0
 696.666992188 901.166992188 649.333007812 909 588 909 c 0
 528 909 481.166992188 901.166992188 447.5 885.5 c 0
 413.833007812 869.833007812 388.833007812 836.5 372.5 785.5 c 0
 356.166992188 734.5 348 657 348 553 c 0
 348 447.666992188 356.166992188 369.5 372.5 318.5 c 0
 388.833007812 267.5 413.833007812 233.833007812 447.5 217.5 c 0
 481.166992188 201.166992188 528 193 588 193 c 0
 649.333007812 193 696.666992188 201.166992188 730 217.5 c 0
303.5 41 m 0
 232.5 75 180.166992188 132.333007812 146.5 213 c 0
 112.833007812 293.666992188 96 406.333007812 96 551 c 0
 96 701 112.833007812 816.333007812 146.5 897 c 0
 180.166992188 977.666992188 232.166992188 1033.66699219 302.5 1065 c 0
 372.833007812 1096.33300781 468 1112 588 1112 c 0
 709.333007812 1112 805.166992188 1096 875.5 1064 c 0
 945.833007812 1032 998 975.333007812 1032 894 c 0
 1066 812.666992188 1083 698.333007812 1083 551 c 0
 1083 403.666992188 1066.66699219 289.666992188 1034 209 c 0
 1001.33300781 128.333007812 949.5 71.6669921875 878.5 39 c 0
 807.5 6.3330078125 710.666992188 -10 588 -10 c 0
 469.333007812 -10 374.5 7 303.5 41 c 0
EndSplineSet
EndChar

StartChar: p
Encoding: 83 112 83
Width: 1193
VWidth: 1023
Flags: HW
LayerCount: 2
Fore
SplineSet
844 549 m 0
 844 674.333007812 824.5 765.333007812 785.5 822 c 0
 746.5 878.666992188 694.333007812 907 629 907 c 0
 555 907 473 883.333007812 383 836 c 0
 383 262 l 0
 417 241.333007812 455.833007812 225 499.5 213 c 0
 543.166992188 201 585.666992188 195 627 195 c 0
 771.666992188 195 844 313 844 549 c 0
129 1098 m 0
 340 1098 l 0
 383 989 l 0
 427 1023 477.166992188 1052 533.5 1076 c 0
 589.833007812 1100 647.666992188 1112 707 1112 c 0
 841 1112 939.666992188 1061.83300781 1003 961.5 c 0
 1066.33300781 861.166992188 1098 723.666992188 1098 549 c 0
 1098 361.666992188 1067.5 221 1006.5 127 c 0
 945.5 33 845.666992188 -14 707 -14 c 0
 652.333007812 -14 596.333007812 -6.5 539 8.5 c 0
 481.666992188 23.5 429.666992188 44 383 70 c 0
 383 -485 l 0
 129 -485 l 0
 129 1098 l 0
EndSplineSet
EndChar

StartChar: q
Encoding: 84 113 84
Width: 1187
VWidth: 1023
Flags: HW
LayerCount: 2
Fore
SplineSet
689.5 212 m 0
 733.833007812 224.666992188 773.666992188 242 809 264 c 0
 809 922 l 0
 586 922 l 0
 498.666992188 922 437.166992188 891.833007812 401.5 831.5 c 0
 365.833007812 771.166992188 348 679.666992188 348 557 c 0
 348 464.333007812 355.166992188 391.666992188 369.5 339 c 0
 383.833007812 286.333007812 406.333007812 248.833007812 437 226.5 c 0
 467.666992188 204.166992188 509.666992188 193 563 193 c 0
 603 193 645.166992188 199.333007812 689.5 212 c 0
809 106 m 0
 762.333007812 70.6669921875 710.666992188 42.1669921875 654 20.5 c 0
 597.333007812 -1.1669921875 543.333007812 -12 492 -12 c 0
 394 -12 316.166992188 8.1669921875 258.5 48.5 c 0
 200.833007812 88.8330078125 159.333007812 149.5 134 230.5 c 0
 108.666992188 311.5 96 417.666992188 96 549 c 0
 96 749.666992188 129.166992188 893.666992188 195.5 981 c 0
 261.833007812 1068.33300781 367.333007812 1112 512 1112 c 0
 603.333007812 1112 699.5 1108.33300781 800.5 1101 c 0
 901.5 1093.66699219 989 1085 1063 1075 c 0
 1063 -485 l 0
 809 -485 l 0
 809 106 l 0
EndSplineSet
EndChar

StartChar: r
Encoding: 85 114 85
Width: 858
VWidth: 1023
Flags: HW
LayerCount: 2
Fore
SplineSet
129 1098 m 0
 326 1098 l 0
 383 922 l 0
 431 982 481.833007812 1028.66699219 535.5 1062 c 0
 589.166992188 1095.33300781 650.333007812 1112 719 1112 c 0
 751.666992188 1112 782.333007812 1108 811 1100 c 0
 811 842 l 0
 759 847.333007812 717.333007812 850 686 850 c 0
 622 850 566.833007812 839.333007812 520.5 818 c 0
 474.166992188 796.666992188 428.333007812 763 383 717 c 0
 383 0 l 0
 129 0 l 0
 129 1098 l 0
EndSplineSet
EndChar

StartChar: s
Encoding: 86 115 86
Width: 1030
VWidth: 1023
Flags: HW
LayerCount: 2
Fore
SplineSet
285 -1 m 0
 199 6.3330078125 136.666992188 17 98 31 c 0
 98 180 l 0
 571 180 l 0
 627 180 667.666992188 187.5 693 202.5 c 0
 718.333007812 217.5 731 248.333007812 731 295 c 0
 731 334 l 0
 731 370.666992188 719 398.166992188 695 416.5 c 0
 671 434.833007812 632.666992188 444 580 444 c 0
 414 444 l 0
 192.666992188 444 82 540.333007812 82 733 c 0
 82 795 l 0
 82 901.666992188 114 980.5 178 1031.5 c 0
 242 1082.5 350.666992188 1108 504 1108 c 0
 565.333007812 1108 636 1103.5 716 1094.5 c 0
 796 1085.5 857.666992188 1075.66699219 901 1065 c 0
 901 915 l 0
 455 915 l 0
 401.666992188 915 362.333007812 905.833007812 337 887.5 c 0
 311.666992188 869.166992188 299 838.333007812 299 795 c 0
 299 756 l 0
 299 714 312 685.666992188 338 671 c 0
 364 656.333007812 405 649 461 649 c 0
 631 649 l 0
 736.333007812 649 815.5 624.5 868.5 575.5 c 0
 921.5 526.5 948 457 948 367 c 0
 948 276 l 0
 948 169.333007812 912.5 94.6669921875 841.5 52 c 0
 770.5 9.3330078125 664 -12 522 -12 c 0
 450 -12 371 -8.3330078125 285 -1 c 0
EndSplineSet
EndChar

StartChar: t
Encoding: 87 116 87
Width: 780
VWidth: 1023
Flags: HW
LayerCount: 2
Fore
SplineSet
267 86 m 0
 214.333007812 143.333007812 189.666992188 240.333007812 193 377 c 0
 201 893 l 0
 29 893 l 0
 29 1057 l 0
 209 1098 l 0
 246 1405 l 0
 444 1405 l 0
 444 1098 l 0
 723 1098 l 0
 723 893 l 0
 444 893 l 0
 444 379 l 0
 444 315 456 270.333007812 480 245 c 0
 504 219.666992188 535 205 573 201 c 0
 711 186 l 0
 711 0 l 0
 528 0 l 0
 406.666992188 0 319.666992188 28.6669921875 267 86 c 0
EndSplineSet
EndChar

StartChar: u
Encoding: 88 117 88
Width: 1214
VWidth: 1023
Flags: HW
LayerCount: 2
Fore
SplineSet
210 74 m 0
 154.666992188 131.333007812 127 214 127 322 c 0
 127 1098 l 0
 381 1098 l 0
 381 395 l 0
 381 327 396.333007812 279.666992188 427 253 c 0
 457.666992188 226.333007812 504.333007812 213 567 213 c 0
 662.333007812 213 751.333007812 242.333007812 834 301 c 0
 834 1098 l 0
 1087 1098 l 0
 1087 0 l 0
 881 0 l 0
 834 115 l 0
 702.666992188 30.3330078125 573.333007812 -12 446 -12 c 0
 344 -12 265.333007812 16.6669921875 210 74 c 0
EndSplineSet
EndChar

StartChar: v
Encoding: 89 118 89
Width: 1134
VWidth: 1023
Flags: HW
LayerCount: 2
Fore
SplineSet
31 1098 m 0
 291 1098 l 0
 565 236 l 0
 846 1098 l 0
 1104 1098 l 0
 705 0 l 0
 414 0 l 0
 31 1098 l 0
EndSplineSet
EndChar

StartChar: w
Encoding: 90 119 90
Width: 1671
VWidth: 1023
Flags: HW
LayerCount: 2
Fore
SplineSet
31 1098 m 0
 291 1098 l 0
 498 236 l 0
 735 1098 l 0
 948 1098 l 0
 1186 236 l 0
 1380 1098 l 0
 1640 1098 l 0
 1339 0 l 0
 1059 0 l 0
 838 743 l 0
 610 0 l 0
 336 0 l 0
 31 1098 l 0
EndSplineSet
EndChar

StartChar: x
Encoding: 91 120 91
Width: 1083
VWidth: 1023
Flags: HW
LayerCount: 2
Fore
SplineSet
680 535 m 0
 1057 0 l 0
 799 0 l 0
 532 377 l 0
 285 0 l 0
 27 0 l 0
 403 561 l 0
 27 1098 l 0
 285 1098 l 0
 553 717 l 0
 799 1096 l 0
 1057 1098 l 0
 680 535 l 0
EndSplineSet
EndChar

StartChar: y
Encoding: 92 121 92
Width: 1144
VWidth: 1023
Flags: HW
LayerCount: 2
Fore
SplineSet
584 0 m 0
 417.333007812 0 308 93.6669921875 256 281 c 0
 31 1098 l 0
 293 1098 l 0
 492 332 l 0
 504 295.333007812 518.833007812 268 536.5 250 c 0
 554.166992188 232 569.5 221 582.5 217 c 0
 595.5 213 611 210.333007812 629 209 c 0
 856 1098 l 0
 1114 1098 l 0
 762 -283 l 0
 664 -485 l 0
 457 -485 l 0
 584 0 l 0
EndSplineSet
EndChar

StartChar: z
Encoding: 93 122 93
Width: 1026
VWidth: 1023
Flags: HW
LayerCount: 2
Fore
SplineSet
96 184 m 0
 653 893 l 0
 78 893 l 0
 78 1098 l 0
 948 1098 l 0
 948 913 l 0
 389 205 l 0
 948 205 l 0
 948 0 l 0
 96 0 l 0
 96 184 l 0
EndSplineSet
EndChar

StartChar: braceleft
Encoding: 94 123 94
Width: 645
VWidth: 1023
Flags: HW
LayerCount: 2
Fore
SplineSet
275.5 -341 m 0
 213.166992188 -281.666992188 182 -194 182 -78 c 0
 182 440 l 0
 182 479.333007812 168 510.666992188 140 534 c 0
 112 557.333007812 77.6669921875 567.666992188 37 565 c 0
 37 801 l 0
 135 810.333007812 184 852 184 926 c 0
 184 1343 l 0
 184 1463 217.833007812 1556.5 285.5 1623.5 c 0
 353.166992188 1690.5 460.666992188 1724 608 1724 c 0
 608 1520 l 0
 566 1520 532.666992188 1511.66699219 508 1495 c 0
 483.333007812 1478.33300781 465.5 1450.66699219 454.5 1412 c 0
 443.5 1373.33300781 438 1318.33300781 438 1247 c 0
 438 885 l 0
 438 822.333007812 420.666992188 774.5 386 741.5 c 0
 351.333007812 708.5 304 689.333007812 244 684 c 0
 302.666992188 673.333007812 349.333007812 650.833007812 384 616.5 c 0
 418.666992188 582.166992188 436 539.666992188 436 489 c 0
 436 6 l 0
 436 -84 448.333007812 -147.166992188 473 -183.5 c 0
 497.666992188 -219.833007812 542.666992188 -238 608 -238 c 0
 608 -430 l 0
 448.666992188 -430 337.833007812 -400.333007812 275.5 -341 c 0
EndSplineSet
EndChar

StartChar: bar
Encoding: 95 124 95
Width: 516
VWidth: 1023
Flags: HW
LayerCount: 2
Fore
SplineSet
156 1577 m 0
 360 1577 l 0
 360 -147 l 0
 156 -147 l 0
 156 1577 l 0
EndSplineSet
EndChar

StartChar: braceright
Encoding: 96 125 96
Width: 645
VWidth: 1023
Flags: HW
LayerCount: 2
Fore
SplineSet
37 -238 m 0
 101 -238 145.666992188 -219.5 171 -182.5 c 0
 196.333007812 -145.5 209 -82.6669921875 209 6 c 0
 209 489 l 0
 209 541 226 583.833007812 260 617.5 c 0
 294 651.166992188 340.333007812 673.333007812 399 684 c 0
 339 689.333007812 292 708.5 258 741.5 c 0
 224 774.5 207 822.333007812 207 885 c 0
 207 1247 l 0
 207 1317.66699219 201.5 1372.5 190.5 1411.5 c 0
 179.5 1450.5 161.666992188 1478.33300781 137 1495 c 0
 112.333007812 1511.66699219 79 1520 37 1520 c 0
 37 1724 l 0
 184.333007812 1724 291.833007812 1690.66699219 359.5 1624 c 0
 427.166992188 1557.33300781 461 1463.66699219 461 1343 c 0
 461 926 l 0
 461 852 510 810.333007812 608 801 c 0
 608 565 l 0
 567.333007812 567.666992188 533 557.5 505 534.5 c 0
 477 511.5 463 480 463 440 c 0
 463 -78 l 0
 463 -194 431.5 -281.666992188 368.5 -341 c 0
 305.5 -400.333007812 195 -430 37 -430 c 0
 37 -238 l 0
EndSplineSet
EndChar

StartChar: asciitilde
Encoding: 97 126 97
Width: 884
VWidth: 1023
Flags: HW
LayerCount: 2
Fore
SplineSet
504 1111 m 0
 480.666992188 1121 452.666992188 1135.66699219 420 1155 c 0
 416 1157.66699219 405.333007812 1163.5 388 1172.5 c 0
 370.666992188 1181.5 356 1188.33300781 344 1193 c 0
 332 1197.66699219 321.666992188 1200 313 1200 c 0
 283 1200 254.666992188 1193.5 228 1180.5 c 0
 201.333007812 1167.5 167.666992188 1146 127 1116 c 0
 92 1202 l 0
 168.666992188 1294.66699219 247.333007812 1341 328 1341 c 0
 350 1341 371.5 1336.33300781 392.5 1327 c 0
 413.5 1317.66699219 440.333007812 1302.66699219 473 1282 c 0
 477 1279.33300781 486.833007812 1273.5 502.5 1264.5 c 0
 518.166992188 1255.5 532.166992188 1248.66699219 544.5 1244 c 0
 556.833007812 1239.33300781 567 1237 575 1237 c 0
 631 1237 692.666992188 1267.66699219 760 1329 c 0
 795 1235 l 0
 721 1142.33300781 646.333007812 1096 571 1096 c 0
 549.666992188 1096 527.333007812 1101 504 1111 c 0
EndSplineSet
EndChar

StartChar: inherent
Encoding: 98 -1 98
Width: 335
VWidth: 2047
Flags: HW
LayerCount: 2
Fore
SplineSet
1 1400 m 1
 65 1400 111 1451 111 1510 c 2
 111 1651 l 1
 335 1651 l 1
 335 1511 l 2
 335 1342 186 1205 1 1205 c 1
 1 1400 l 1
EndSplineSet
EndChar

StartChar: makewide
Encoding: 99 -1 99
Width: 676
VWidth: 2047
Flags: HW
LayerCount: 2
Fore
SplineSet
650 1020 m 2
 650 1116 585 1201 482 1201 c 2
 287 1201 l 1
 287 1396 l 1
 735 1396 l 1
 788 1201 l 1
 845 1149 874 1092 874 1033 c 2
 874 269 l 2
 874 125 777 0 650 0 c 2
 358 0 l 2
 218 0 90 96 7 211 c 1
 7 531 l 1
 93 353 243 195 400 195 c 2
 582 195 l 2
 623 195 650 241 650 303 c 2
 650 1020 l 2
EndSplineSet
EndChar

StartChar: shortrr
Encoding: 100 -1 100
Width: 1603
VWidth: 2047
Flags: HW
LayerCount: 2
Fore
SplineSet
364 1192 m 2
 364 1317 477 1400 603 1400 c 2
 1622 1400 l 1
 1623 1204 l 1
 689 1204 l 2
 637 1204 590 1167 590 1121 c 2
 590 952 l 2
 590 892 648 842 718 842 c 2
 1065 842 l 1
 1065 648 l 1
 718 648 l 2
 648 648 590 598 590 536 c 2
 590 328 l 2
 590 260 628 210 671 200 c 1
 840 200 l 1
 840 5 l 1
 588 5 l 2
 471 5 365 97 365 228 c 2
 365 552 l 2
 365 653 449 733 547 749 c 1
 451 769 364 838 364 942 c 2
 364 1192 l 2
EndSplineSet
EndChar

StartChar: anusvara
Encoding: 101 3202 101
Width: 1533
VWidth: 2047
Flags: HW
LayerCount: 2
Fore
SplineSet
1227 1397 m 2
 1395 1397 1533 1261 1533 1079 c 2
 1534 305 l 2
 1534 136 1418 0 1283 0 c 2
 666 0 l 2
 501 0 360 149 360 334 c 2
 360 1108 l 2
 360 1188 390 1256 451 1311 c 1
 509 1368 580 1397 665 1397 c 2
 1227 1397 l 2
1189 194 m 2
 1254 194 1311 260 1310 351 c 1
 1310 1062 l 2
 1310 1157 1242 1200 1188 1200 c 2
 741 1200 l 2
 660 1200 584 1146 584 1078 c 2
 584 350 l 2
 584 269 657 194 753 194 c 2
 1189 194 l 2
EndSplineSet
EndChar

StartChar: u0C83
Encoding: 102 3203 102
Width: 991
VWidth: 2047
Flags: HW
LayerCount: 2
Fore
SplineSet
822 1400 m 2
 936 1400 1045 1305 1045 1176 c 2
 1046 951 l 2
 1046 847 965 758 852 758 c 2
 542 758 l 2
 416 758 320 858 320 968 c 2
 320 1192 l 2
 320 1317 424 1400 542 1400 c 2
 822 1400 l 2
822 646 m 2
 956 646 1045 533 1045 410 c 2
 1045 225 l 2
 1045 101 965 2 870 2 c 2
 542 2 l 2
 422 2 320 96 320 213 c 2
 320 437 l 2
 320 561 428 646 542 646 c 2
 822 646 l 2
756 956 m 2
 790 956 820 981 821 1010 c 1
 821 1136 l 2
 821 1178 796 1204 756 1204 c 2
 628 1204 l 2
 584 1204 542 1175 542 1137 c 2
 542 1025 l 2
 542 997 567 956 617 956 c 2
 756 956 l 2
767 199 m 2
 799 199 820 224 820 256 c 2
 820 384 l 2
 820 441 789 450 781 450 c 2
 616 450 l 2
 577 450 542 428 542 396 c 2
 542 273 l 2
 542 238 563 199 598 199 c 2
 767 199 l 2
EndSplineSet
EndChar

StartChar: avowel
Encoding: 103 3205 103
Width: 1993
VWidth: 2047
Flags: HW
LayerCount: 2
Fore
SplineSet
1748 1397 m 2
 1895 1397 2058 1300 2058 1135 c 2
 2055 282 l 2
 2055 130 1937 1 1776 1 c 2
 696 1 l 2
 517 1 380 130 380 281 c 2
 380 1120 l 2
 380 1280 509 1399 658 1399 c 2
 1018 1399 l 1
 1018 951 l 1
 798 951 l 1
 798 1203 l 1
 714 1203 l 2
 648 1203 603 1126 603 1035 c 2
 603 352 l 2
 603 269 675 196 772 196 c 2
 1677 196 l 2
 1746 196 1833 263 1833 392 c 2
 1833 1091 l 2
 1833 1155 1781 1202 1722 1202 c 2
 1636 1202 l 1
 1636 1051 l 2
 1636 977 1684 906 1778 839 c 1
 1778 645 l 1
 938 645 l 1
 938 839 l 1
 1525 839 l 1
 1450 914 1413 979 1413 1034 c 2
 1413 1397 l 1
 1748 1397 l 2
EndSplineSet
EndChar

StartChar: aavowel
Encoding: 104 3206 104
Width: 2132
VWidth: 2047
Flags: HW
LayerCount: 2
Fore
SplineSet
1959 1393 m 2
 2094 1393 2199 1284 2199 1159 c 1
 2202 1003 l 1
 2202 847 2091 723 1950 723 c 2
 1865 723 l 1
 1922 660 1950 613 1950 583 c 2
 1950 210 l 2
 1950 89 1836 -3 1700 -3 c 1
 1700 2 l 1
 648 2 l 2
 504 2 384 124 384 283 c 2
 384 1122 l 2
 384 1281 536 1400 719 1400 c 2
 999 1400 l 1
 999 952 l 1
 775 952 l 1
 775 1204 l 1
 730 1204 l 2
 662 1204 607 1141 607 1082 c 2
 607 354 l 2
 607 283 657 198 749 198 c 2
 1587 198 l 2
 1664 198 1727 269 1727 355 c 2
 1727 590 l 2
 1727 628 1701 675 1652 729 c 1
 1082 729 l 1
 1082 924 l 1
 1586 924 l 1
 1549 973 1529 1008 1529 1029 c 2
 1529 1197 l 2
 1529 1314 1639 1393 1779 1393 c 2
 1959 1393 l 2
1902 920 m 2
 1948 920 1972 966 1972 1017 c 2
 1972 1115 l 2
 1972 1170 1954 1197 1919 1197 c 2
 1836 1197 l 2
 1796 1197 1751 1167 1751 1115 c 2
 1751 1047 l 2
 1751 1007 1770 965 1808 920 c 1
 1902 920 l 2
EndSplineSet
EndChar

StartChar: ivowel
Encoding: 105 3207 105
Width: 1607
VWidth: 2047
Flags: HW
LayerCount: 2
Fore
SplineSet
1491 272 m 2
 1491 227 1528 199 1558 199 c 2
 1659 199 l 1
 1663 0 l 1
 1524 0 l 2
 1381 0 1273 102 1273 223 c 2
 1273 362 l 1
 1049 362 l 2
 922 362 825 444 825 545 c 2
 825 696 l 2
 825 769 912 836 1030 836 c 2
 1272 836 l 2
 1349 836 1414 780 1438 714 c 1
 1438 1107 l 2
 1438 1166 1378 1201 1311 1201 c 2
 1160 1201 l 2
 1078 1201 1019 1143 1019 1090 c 2
 1019 950 l 1
 799 950 l 1
 799 1079 l 2
 799 1140 745 1202 660 1202 c 2
 474 1202 l 2
 407 1202 351 1148 351 1091 c 2
 351 951 l 2
 351 882 400 841 445 841 c 2
 490 841 l 1
 490 647 l 1
 391 647 l 2
 244 647 127 767 127 913 c 2
 127 1121 l 2
 127 1285 272 1399 419 1399 c 2
 686 1399 l 2
 790 1399 883 1344 906 1259 c 1
 936 1334 1009 1399 1103 1399 c 2
 1355 1399 l 2
 1530 1399 1660 1270 1660 1110 c 2
 1660 757 l 2
 1660 635 1603 520 1491 410 c 1
 1491 272 l 2
1046 608 m 0
 1046 589 1061 564 1085 564 c 2
 1267 563 l 1
 1267 591 l 2
 1267 629 1249 648 1213 648 c 2
 1085 648 l 2
 1064 648 1046 632 1046 608 c 0
EndSplineSet
EndChar

StartChar: iivowel
Encoding: 106 3208 106
Width: 2496
VWidth: 2047
Flags: HW
LayerCount: 2
Fore
SplineSet
2320 1284 m 2
 2456 1284 2560 1167 2560 1034 c 2
 2561 828 l 2
 2561 716 2476 604 2335 549 c 1
 2447 422 2504 339 2504 301 c 2
 2504 162 l 2
 2504 78 2450 4 2376 4 c 2
 1918 4 l 1
 1918 199 l 1
 2209 199 l 2
 2251 199 2279 235 2279 272 c 2
 2279 283 l 2
 2279 318 2260 351 2222 382 c 1
 2086 532 l 1
 1636 532 l 1
 1636 270 l 2
 1636 131 1528 1 1370 1 c 2
 668 1 l 2
 547 1 434 109 434 241 c 2
 434 532 l 1
 213 532 l 1
 213 727 l 1
 434 727 l 1
 434 912 l 2
 434 1010 490 1107 603 1202 c 1
 408 1202 l 1
 408 1397 l 1
 1415 1397 l 2
 1480 1397 1496 1452 1496 1481 c 2
 1496 1593 l 1
 1723 1593 l 1
 1723 1481 l 2
 1723 1346 1626 1220 1471 1189 c 1
 1517 1158 1636 1069 1636 967 c 2
 1636 728 l 1
 1928 728 l 1
 1882 769 1859 824 1859 895 c 2
 1859 1051 l 2
 1859 1187 1968 1284 2085 1284 c 2
 2320 1284 l 2
2195 725 m 1
 2276 725 2332 790 2333 856 c 1
 2333 1006 l 2
 2333 1064 2295 1088 2262 1088 c 2
 2150 1088 l 2
 2115 1088 2085 1057 2085 1019 c 2
 2085 855 l 2
 2085 827 2094 804 2112 786 c 1
 2195 733 l 1
 2195 725 l 1
1410 733 m 1
 1410 984 l 2
 1410 1079 1364 1154 1271 1208 c 1
 835 1208 l 1
 716 1125 657 1032 657 927 c 2
 657 733 l 1
 1410 733 l 1
1271 200 m 2
 1349 200 1410 270 1411 356 c 1
 1411 537 l 1
 657 537 l 1
 657 329 l 2
 657 266 705 200 769 200 c 2
 1271 200 l 2
EndSplineSet
EndChar

StartChar: uvowel
Encoding: 107 3209 107
Width: 2996
VWidth: 2047
Flags: HW
LayerCount: 2
Fore
SplineSet
2821 1397 m 2
 2965 1397 3062 1277 3062 1143 c 2
 3063 298 l 2
 3063 132 2936 1 2785 1 c 2
 2404 1 l 2
 2215 1 2088 148 2088 298 c 2
 2088 1109 l 2
 2088 1165 2042 1203 1985 1203 c 2
 1622 1203 l 2
 1577 1203 1529 1165 1529 1110 c 2
 1529 282 l 2
 1529 139 1406 1 1223 1 c 2
 718 1 l 2
 536 1 385 141 385 325 c 2
 385 1091 l 2
 385 1296 547 1398 663 1398 c 2
 1081 1398 l 1
 1081 996 l 2
 1081 849 973 727 841 727 c 2
 690 727 l 1
 690 922 l 1
 784 922 l 2
 830 922 859 958 859 994 c 2
 859 1200 l 1
 718 1200 l 2
 658 1200 607 1148 607 1088 c 2
 607 321 l 2
 607 249 666 193 730 193 c 2
 1205 193 l 2
 1264 193 1305 247 1305 302 c 2
 1305 1106 l 2
 1305 1271 1423 1395 1566 1395 c 2
 2014 1395 l 2
 2190 1395 2309 1261 2309 1118 c 2
 2309 322 l 2
 2309 248 2361 195 2419 195 c 2
 2736 195 l 2
 2796 195 2836 246 2836 304 c 2
 2836 1090 l 2
 2836 1140 2794 1173 2737 1173 c 2
 2698 1173 l 1
 2698 1397 l 1
 2821 1397 l 2
EndSplineSet
EndChar

StartChar: uuvowel
Encoding: 108 3210 108
Width: 3590
VWidth: 2047
Flags: HW
LayerCount: 2
Fore
SplineSet
3316 1403 m 2
 3489 1403 3649 1270 3649 1070 c 2
 3649 282 l 2
 3649 118 3532 0 3400 0 c 2
 3287 0 l 2
 3154 0 3039 106 3039 251 c 2
 3039 447 l 1
 3262 447 l 1
 3262 251 l 2
 3262 216 3291 196 3316 196 c 2
 3384 196 l 2
 3412 196 3426 233 3426 269 c 2
 3426 1064 l 2
 3426 1153 3367 1203 3314 1203 c 2
 3035 1203 l 2
 2967 1203 2898 1157 2898 1065 c 2
 2898 326 l 2
 2898 143 2767 2 2618 2 c 2
 2211 2 l 2
 2062 2 1950 141 1950 307 c 2
 1950 1092 l 2
 1950 1156 1898 1203 1839 1203 c 2
 1559 1203 l 2
 1498 1203 1447 1143 1447 1081 c 2
 1447 336 l 2
 1447 144 1299 2 1123 2 c 2
 750 2 l 2
 548 2 387 146 387 327 c 2
 387 1111 l 2
 387 1193 418 1261 480 1314 c 1
 541 1371 615 1400 703 1400 c 2
 1083 1400 l 1
 1083 1037 l 2
 1083 884 966 759 815 759 c 2
 720 759 l 1
 720 953 l 1
 785 953 l 2
 830 953 860 993 860 1025 c 2
 860 1205 l 1
 732 1205 l 2
 665 1205 609 1152 609 1095 c 2
 609 338 l 2
 609 265 669 199 759 199 c 2
 1113 199 l 2
 1170 199 1224 257 1224 338 c 2
 1224 1095 l 2
 1224 1275 1380 1401 1541 1401 c 2
 1851 1401 l 2
 2047 1401 2175 1246 2175 1096 c 2
 2175 310 l 2
 2175 245 2222 202 2283 202 c 2
 2548 202 l 2
 2622 202 2676 265 2676 340 c 2
 2676 1069 l 2
 2676 1270 2834 1403 2992 1403 c 2
 3316 1403 l 2
EndSplineSet
EndChar

StartChar: rvocalicvowel.part
Encoding: 110 -1 110
Width: 2050
VWidth: 2047
Flags: HW
LayerCount: 2
Fore
SplineSet
1975 1286 m 1
 2093 1222 2110 1123 2110 1067 c 2
 2103 298 l 1
 2103 130 2012 0 1900 0 c 2
 1482 0 l 2
 1351 0 1256 66 1201 157 c 1
 1160 69 1092 0 1019 0 c 2
 543 0 l 2
 425 0 317 90 317 211 c 2
 317 587 l 1
 655 587 l 2
 793 587 904 502 904 381 c 2
 904 282 l 1
 681 282 l 1
 681 353 l 2
 681 379 663 392 628 392 c 2
 544 392 l 1
 544 281 l 2
 544 237 579 195 628 195 c 2
 933 195 l 2
 1012 195 1072 244 1072 304 c 2
 1072 1119 l 2
 1072 1169 1021 1202 950 1202 c 2
 655 1202 l 2
 594 1202 546 1175 546 1136 c 2
 546 982 l 1
 630 982 l 2
 677 982 711 1015 711 1065 c 2
 711 1121 l 1
 934 1121 l 1
 934 1053 l 2
 934 908 829 784 701 784 c 2
 318 784 l 1
 318 1177 l 2
 318 1300 431 1400 572 1400 c 2
 1021 1400 l 2
 1179 1400 1298 1279 1298 1136 c 2
 1298 364 l 1
 1343 275 1425 197 1509 197 c 2
 1773 197 l 2
 1829 197 1885 250 1885 336 c 2
 1885 1036 l 2
 1885 1139 1813 1203 1736 1203 c 2
 1439 1203 l 1
 1439 1398 l 1
 1763 1398 l 2
 1833 1398 1886 1461 1886 1537 c 2
 1886 1649 l 1
 2108 1649 l 1
 2108 1508 l 2
 2108 1456 2092 1339 1975 1286 c 1
EndSplineSet
EndChar

StartChar: lvocalicvowel.part
Encoding: 112 -1 112
Width: 1607
VWidth: 2047
Flags: HW
LayerCount: 2
Fore
SplineSet
1353 1396 m 2
 1528 1396 1658 1267 1658 1107 c 2
 1658 754 l 2
 1658 694 1631 624 1579 543 c 1
 1489 408 l 1
 1474 388 1463 374 1457 363 c 0
 1434 330 1424 308 1426 298 c 1
 1426 253 1463 225 1498 225 c 0
 1530 225 1556 242 1570 261 c 2
 1768 543 l 1
 1937 431 l 1
 1697 110 l 1
 1682 83 1639 15 1552 15 c 0
 1493 15 1385 45 1314 109 c 0
 1274 145 1247 174 1232 195 c 0
 1211 226 1202 262 1202 303 c 0
 1202 331 1423 687 1424 687 c 0
 1438 727 1452 793 1452 900 c 0
 1452 973 1446 1056 1436 1104 c 1
 1436 1163 1376 1197 1309 1197 c 2
 1158 1197 l 2
 1076 1197 1017 1140 1017 1087 c 2
 1017 947 l 1
 797 947 l 1
 797 1075 l 2
 797 1136 743 1198 658 1198 c 2
 472 1198 l 2
 405 1198 349 1145 349 1088 c 2
 349 948 l 2
 349 879 398 838 443 838 c 2
 488 838 l 1
 488 644 l 1
 389 644 l 2
 242 644 125 764 125 910 c 2
 125 1118 l 2
 125 1282 270 1396 417 1396 c 2
 684 1396 l 2
 788 1396 881 1341 904 1256 c 1
 934 1331 1007 1396 1101 1396 c 2
 1353 1396 l 2
EndSplineSet
EndChar

StartChar: evowel
Encoding: 113 3214 113
Width: 1944
VWidth: 2047
Flags: HW
LayerCount: 2
Fore
SplineSet
1630 1398 m 2
 1825 1398 2003 1252 2003 1051 c 2
 2003 298 l 2
 2003 134 1893 0 1752 0 c 2
 1329 0 l 2
 1215 0 1138 71 1138 140 c 1
 1109 50 1037 0 961 0 c 2
 637 0 l 2
 465 0 329 126 329 281 c 2
 329 839 l 1
 662 839 l 2
 794 839 889 668 915 505 c 1
 707 449 l 1
 695 552 630 646 552 646 c 1
 552 336 l 2
 552 261 610 197 692 197 c 2
 902 197 l 2
 965 197 1025 245 1025 335 c 2
 1025 476 l 1
 1251 476 l 1
 1251 353 l 2
 1251 267 1324 196 1406 196 c 2
 1641 196 l 2
 1722 196 1780 264 1780 353 c 2
 1780 1022 l 2
 1780 1129 1704 1203 1604 1203 c 2
 1417 1203 l 1
 1417 1398 l 1
 1630 1398 l 2
EndSplineSet
EndChar

StartChar: eevowel
Encoding: 114 3215 114
Width: 1938
VWidth: 2047
Flags: HW
LayerCount: 2
Fore
SplineSet
1620 1402 m 2
 1834 1402 2000 1250 2000 1056 c 2
 1998 331 l 2
 1998 267 1978 129 1825 41 c 1
 1768 11 1709 -3 1649 -3 c 1
 1649 2 l 1
 1330 2 l 2
 1234 2 1162 72 1138 159 c 1
 1088 54 1012 1 912 1 c 2
 663 1 l 2
 474 1 327 143 327 307 c 2
 327 841 l 1
 663 841 l 2
 699 841 734 827 769 797 c 1
 814 761 880 674 909 508 c 1
 699 452 l 1
 680 574 608 648 547 648 c 1
 547 338 l 2
 547 262 607 199 688 199 c 2
 897 199 l 2
 961 199 1021 247 1021 337 c 2
 1021 478 l 1
 1248 478 l 1
 1248 355 l 2
 1248 264 1318 199 1397 199 c 2
 1636 199 l 2
 1713 199 1776 270 1776 356 c 2
 1776 1026 l 2
 1776 1130 1694 1206 1594 1206 c 2
 1385 1206 l 1
 1385 1138 l 2
 1385 1038 1280 956 1144 956 c 2
 886 956 l 2
 735 956 606 1065 606 1207 c 2
 606 1402 l 1
 828 1402 l 1
 828 1237 l 2
 828 1186 877 1150 910 1150 c 2
 1090 1150 l 2
 1122 1150 1162 1189 1162 1253 c 2
 1162 1402 l 1
 1620 1402 l 2
EndSplineSet
EndChar

StartChar: aivowel
Encoding: 115 3216 115
Width: 2055
VWidth: 2047
Flags: HW
LayerCount: 2
Fore
SplineSet
1803 1388 m 2
 1996 1388 2111 1246 2111 1109 c 2
 2111 301 l 2
 2111 137 1977 -5 1803 -5 c 1
 1803 0 l 1
 1486 0 l 2
 1364 0 1268 75 1225 168 c 1
 1172 74 1085 -1 992 -1 c 2
 638 -1 l 2
 466 -1 330 125 330 280 c 2
 330 585 l 2
 330 766 469 894 637 894 c 2
 1026 894 l 1
 1026 602 l 2
 1026 440 892 313 721 298 c 1
 664 493 l 1
 745 493 804 550 804 608 c 2
 804 692 l 1
 710 692 l 2
 620 692 553 631 553 568 c 2
 553 355 l 2
 553 266 617 187 693 187 c 2
 932 187 l 2
 1024 187 1113 266 1113 354 c 2
 1113 438 l 1
 1336 438 l 1
 1336 354 l 2
 1336 270 1408 187 1501 187 c 2
 1770 187 l 2
 1841 187 1892 271 1892 353 c 2
 1892 1053 l 2
 1892 1126 1843 1192 1770 1192 c 2
 1530 1192 l 2
 1469 1192 1418 1138 1418 1070 c 2
 1418 999 l 1
 1194 999 l 1
 1194 1082 l 2
 1194 1146 1123 1192 1026 1192 c 2
 680 1192 l 2
 619 1192 558 1138 527 1053 c 1
 358 1163 l 1
 410 1301 526 1387 638 1387 c 2
 1073 1387 l 2
 1192 1387 1274 1325 1308 1239 c 1
 1346 1315 1418 1388 1524 1388 c 2
 1803 1388 l 2
EndSplineSet
EndChar

StartChar: ovowel
Encoding: 116 3218 116
Width: 1880
VWidth: 2047
Flags: HW
LayerCount: 2
Fore
SplineSet
1932 240 m 0
 1932 174.666992188 1913.16699219 118.333007812 1875.5 71 c 0
 1837.83300781 23.6669921875 1791 0 1735 0 c 0
 1307 0 l 0
 1264.33300781 0 1226.16699219 12.3330078125 1192.5 37 c 0
 1158.83300781 61.6669921875 1135.66699219 92 1123 128 c 0
 1116.33300781 92 1098.66699219 61.6669921875 1070 37 c 0
 1041.33300781 12.3330078125 1009 0 973 0 c 0
 581 0 l 0
 509 0 446.166992188 22 392.5 66 c 0
 338.833007812 110 312 162.333007812 312 223 c 0
 312 531 l 0
 557 694 l 0
 663.666992188 763.333007812 733.833007812 813 767.5 843 c 0
 801.166992188 873 818 904.666992188 818 938 c 0
 818 1117 l 0
 818 1139.66699219 810 1159.66699219 794 1177 c 0
 778 1191.66699219 758.333007812 1199.33300781 735 1200 c 0
 541 1200 l 0
 541 1088 l 0
 541 1064.66699219 549.166992188 1045.16699219 565.5 1029.5 c 0
 581.833007812 1013.83300781 601.666992188 1006 625 1006 c 0
 652 1006 l 0
 652 809 l 0
 555 809 l 0
 490.333007812 809 433.833007812 837.166992188 385.5 893.5 c 0
 337.166992188 949.833007812 313 1014.66699219 313 1088 c 0
 313 1395 l 0
 789 1395 l 0
 833.666992188 1395 875.833007812 1386 915.5 1368 c 0
 955.166992188 1350 986.333007812 1324.83300781 1009 1292.5 c 0
 1031.66699219 1260.16699219 1043 1225.33300781 1043 1188 c 0
 1043 867 l 0
 1043 833.666992188 1025.33300781 800 990 766 c 0
 954.666992188 732 871.666992188 670.333007812 741 581 c 0
 542 447 l 0
 542 304 l 0
 542 274 552.833007812 248.333007812 574.5 227 c 0
 596.166992188 205.666992188 622.333007812 195 653 195 c 0
 904 195 l 0
 934.666992188 195 960.833007812 208.166992188 982.5 234.5 c 0
 1004.16699219 260.833007812 1015 290.333007812 1015 323 c 0
 1015 417 l 0
 1239 417 l 0
 1239 334 l 0
 1239 296.666992188 1252.16699219 264.166992188 1278.5 236.5 c 0
 1304.83300781 208.833007812 1338 195 1378 195 c 0
 1601 195 l 0
 1631 195 1657.16699219 207.5 1679.5 232.5 c 0
 1701.83300781 257.5 1713 287.666992188 1713 323 c 0
 1713 521 l 0
 1713 548.333007812 1704 570.833007812 1686 588.5 c 0
 1668 606.166992188 1646 615 1620 615 c 0
 1545 615 l 0
 1545 809 l 0
 1739 809 l 0
 1797 809 1844.66699219 790.333007812 1882 753 c 0
 1919.33300781 715.666992188 1938 669.666992188 1938 615 c 0
 1932 240 l 0
EndSplineSet
EndChar

StartChar: oovowel
Encoding: 117 3219 117
Width: 1880
VWidth: 2047
Flags: HW
LayerCount: 2
Fore
SplineSet
1932 269 m 0
 1932 223 1921.83300781 178.666992188 1901.5 136 c 0
 1881.16699219 93.3330078125 1854.33300781 60.6669921875 1821 38 c 0
 1787.66699219 13.3330078125 1751 1 1711 1 c 0
 1308 1 l 0
 1265.33300781 1 1227.16699219 13.3330078125 1193.5 38 c 0
 1159.83300781 62.6669921875 1136.66699219 93 1124 129 c 0
 1108 91.6669921875 1083.5 61 1050.5 37 c 0
 1017.5 13 983 1 947 1 c 0
 582 1 l 0
 510 1 447.166992188 23 393.5 67 c 0
 339.833007812 111 313 163.333007812 313 224 c 0
 313 532 l 0
 558 695 l 0
 664.666992188 764.333007812 734.833007812 814 768.5 844 c 0
 802.166992188 874 819 905.666992188 819 939 c 0
 819 1089 l 0
 819 1119.66699219 808.333007812 1145.83300781 787 1167.5 c 0
 765.666992188 1189.16699219 738.666992188 1200 706 1200 c 0
 541 1200 l 0
 541 1088 l 0
 541 1064.66699219 549.166992188 1045.16699219 565.5 1029.5 c 0
 581.833007812 1013.83300781 601.666992188 1006 625 1006 c 0
 652 1006 l 0
 652 809 l 0
 555 809 l 0
 490.333007812 809 433.833007812 837.166992188 385.5 893.5 c 0
 337.166992188 949.833007812 313 1014.66699219 313 1088 c 0
 313 1395 l 0
 529 1395 l 0
 385 1484.33300781 313 1555.33300781 313 1608 c 0
 313 1786 l 0
 313 1831.33300781 334.833007812 1870.83300781 378.5 1904.5 c 0
 422.166992188 1938.16699219 475.666992188 1955 539 1955 c 0
 788 1955 l 0
 788 1757 l 0
 610 1757 l 0
 591.333007812 1757 574.666992188 1752.33300781 560 1743 c 0
 546.666992188 1731.66699219 540 1718.33300781 540 1703 c 0
 540 1617 l 0
 540 1559.66699219 614.666992188 1486 764 1396 c 0
 788 1396 l 0
 832.666992188 1396 874.833007812 1387 914.5 1369 c 0
 954.166992188 1351 985.333007812 1325.83300781 1008 1293.5 c 0
 1030.66699219 1261.16699219 1042 1226.33300781 1042 1189 c 0
 1042 868 l 0
 1042 834.666992188 1024.16699219 801 988.5 767 c 0
 952.833007812 733 870 671.333007812 740 582 c 0
 541 448 l 0
 541 305 l 0
 541 275 551.833007812 249.333007812 573.5 228 c 0
 595.166992188 206.666992188 621.333007812 196 652 196 c 0
 903 196 l 0
 933.666992188 196 959.833007812 209.166992188 981.5 235.5 c 0
 1003.16699219 261.833007812 1014 291.666992188 1014 325 c 0
 1014 418 l 0
 1238 418 l 0
 1238 305 l 0
 1238 275 1251.16699219 249.333007812 1277.5 228 c 0
 1303.83300781 206.666992188 1337 196 1377 196 c 0
 1600 196 l 0
 1630 196 1656.16699219 208.666992188 1678.5 234 c 0
 1700.83300781 259.333007812 1712 289.666992188 1712 325 c 0
 1712 522 l 0
 1712 549.333007812 1703 571.833007812 1685 589.5 c 0
 1667 607.166992188 1644.66699219 616 1618 616 c 0
 1544 616 l 0
 1544 810 l 0
 1713 810 l 0
 1775 810 1827.83300781 785.333007812 1871.5 736 c 0
 1915.16699219 686.666992188 1937 627.333007812 1937 558 c 0
 1932 269 l 0
EndSplineSet
EndChar

StartChar: auvowel
Encoding: 118 3220 118
Width: 1870
VWidth: 2047
Flags: HW
LayerCount: 2
Fore
SplineSet
1658 1961 m 2
 1837 1961 1980 1846 1980 1700 c 2
 1980 1064 l 1
 1377 1064 l 2
 1247 1064 1141 1187 1141 1333 c 2
 1141 1568 l 1
 1647 1568 l 1
 1647 1372 l 1
 1341 1372 l 1
 1341 1334 l 2
 1341 1289 1377 1260 1422 1260 c 2
 1757 1260 l 1
 1757 1641 l 2
 1757 1715 1696 1764 1630 1764 c 2
 1042 1764 l 1
 1072 1746 1087 1724 1087 1699 c 2
 1087 1642 l 2
 1087 1549 1021 1488 959 1488 c 2
 333 1488 l 1
 333 1682 l 1
 865 1682 l 2
 900 1682 918 1714 918 1735 c 0
 918 1743 900 1753 864 1764 c 1
 332 1764 l 1
 332 1961 l 1
 1658 1961 l 2
1734 811 m 2
 1849 811 1929 726 1929 617 c 2
 1927 243 l 2
 1927 115 1845 3 1732 3 c 2
 1294 3 l 2
 1210 3 1141 67 1118 132 c 1
 1090 61 1024 3 961 3 c 2
 598 3 l 2
 440 3 307 132 307 284 c 2
 307 535 l 1
 549 696 l 1
 661 769 730 818 756 843 c 1
 791 873 808 906 808 939 c 2
 808 1143 l 2
 808 1181 780 1201 725 1201 c 2
 530 1201 l 1
 530 1089 l 2
 530 1040 570 1008 613 1008 c 2
 667 1008 l 1
 667 810 l 1
 542 810 l 2
 411 810 304 940 304 1090 c 2
 304 1397 l 1
 778 1397 l 2
 922 1397 1030 1305 1030 1191 c 2
 1030 870 l 2
 1030 805 957 744 907 707 c 1
 876 682 812 638 715 574 c 2
 531 450 l 1
 531 308 l 2
 531 250 577 198 644 198 c 2
 923 198 l 2
 976 198 1006 266 1006 327 c 2
 1006 420 l 1
 1230 420 l 1
 1230 308 l 2
 1230 250 1278 198 1341 198 c 2
 1563 198 l 2
 1644 198 1703 258 1703 327 c 2
 1703 524 l 2
 1703 595 1640 617 1606 617 c 2
 1537 617 l 1
 1537 811 l 1
 1734 811 l 2
EndSplineSet
EndChar

StartChar: ka.base
Encoding: 120 -1 120
Width: 1080
VWidth: 2047
Flags: HW
AnchorPoint: "s" 295 -66 basechar 0
LayerCount: 2
Fore
SplineSet
589 2 m 2
 470 2 379 89 379 196 c 2
 379 448 l 2
 379 541 468 661 647 810 c 1
 209 810 l 1
 209 1008 l 1
 741 1008 l 1
 741 1202 l 1
 209 1202 l 1
 209 1397 l 1
 1137 1397 l 1
 1137 1202 l 1
 965 1202 l 1
 965 1008 l 1
 1470 1008 l 1
 1468 811 l 1
 1065 811 l 1
 1276 670 1327 539 1327 471 c 2
 1327 259 l 2
 1327 116 1221 7 1092 7 c 1
 1092 2 l 1
 589 2 l 2
1038 204 m 2
 1082 204 1105 263 1106 311 c 1
 1106 441 l 2
 1106 563 972 683 855 749 c 1
 708 665 602 566 602 458 c 2
 602 305 l 2
 602 248 647 209 685 209 c 1
 685 204 l 1
 1038 204 l 2
EndSplineSet
EndChar

StartChar: ka.imathra
Encoding: 121 -1 121
Width: 1270
VWidth: 2047
Flags: HW
AnchorPoint: "s" 286 -85 basechar 0
LayerCount: 2
Fore
SplineSet
996 1763 m 2
 1111 1763 1189 1676 1189 1569 c 2
 1189 1192 l 1
 1038 1010 l 1
 1332 1010 l 1
 1334 811 l 1
 1022 811 l 1
 1249 658 1305 512 1305 437 c 2
 1305 197 l 2
 1305 86 1217 3 1111 3 c 2
 577 3 l 2
 453 3 355 91 355 198 c 2
 355 467 l 2
 355 530 408 585 493 670 c 2
 633 811 l 1
 298 811 l 1
 298 1009 l 1
 800 1009 l 1
 967 1221 l 1
 967 1527 l 2
 967 1553 959 1566 941 1566 c 2
 800 1566 l 1
 800 1442 l 2
 800 1425 820 1399 856 1399 c 2
 883 1399 l 1
 883 1204 l 1
 771 1204 l 2
 660 1204 575 1285 575 1372 c 2
 575 1763 l 1
 996 1763 l 2
1019 199 m 2
 1043 199 1075 218 1079 283 c 1
 1079 449 l 2
 1079 508 994 608 826 747 c 1
 658 602 574 499 574 438 c 2
 574 255 l 2
 574 226 612 199 647 199 c 2
 1019 199 l 2
EndSplineSet
LCarets2: 1 0
EndChar

StartChar: ka.sub
Encoding: 122 -1 122
Width: 335
VWidth: 2047
Flags: HW
AnchorPoint: "Sub" -313 545 mark 0
AnchorPoint: "Sub" 595 -821 basemark 0
LayerCount: 2
Fore
SplineSet
36 -842 m 1
 -93 -835 -206 -747 -206 -627 c 2
 -206 -532 l 2
 -206 -463 -154 -384 -50 -293 c 1
 -329 -293 l 1
 -329 -124 l 1
 103 -124 l 1
 118 -106 137 -84 161 -57 c 130
 331 133 l 1
 346 156 353 175 353 193 c 2
 353 461 l 2
 353 507 316 546 241 577 c 1
 369 689 l 1
 488 606 547 538 547 483 c 2
 547 159 l 2
 547 131 533 101 503 66 c 1
 436 -7 l 1
 314 -132 l 1
 679 -132 l 1
 677 -298 l 1
 424 -298 l 1
 524 -365 575 -430 575 -493 c 2
 575 -658 l 2
 575 -756 480 -842 353 -842 c 2
 36 -842 l 1
317 -690 m 2
 357 -690 387 -654 384 -596 c 1
 384 -497 l 2
 384 -419 292 -341 179 -303 c 1
 57 -339 -5 -436 -5 -525 c 2
 -5 -607 l 2
 -5 -664 49 -690 94 -690 c 2
 317 -690 l 2
EndSplineSet
LCarets2: 1 0
EndChar

StartChar: ka_rvocalicmatra.sub
Encoding: 123 -1 123
Width: 664
VWidth: 2047
Flags: HW
LayerCount: 2
Fore
SplineSet
1184 278 m 1
 1263 240 1341 161 1341 55 c 2
 1338 -565 l 2
 1338 -717 1237 -843 1099 -843 c 2
 302 -839 l 2
 181 -839 81 -747 81 -627 c 2
 81 -251 l 1
 389 -251 l 1
 229 -189 192 -118 192 -85 c 2
 192 110 l 2
 192 172 239 237 334 304 c 1
 110 304 l 1
 110 475 l 1
 503 475 l 1
 503 698 l 1
 725 698 l 1
 725 475 l 1
 1117 475 l 1
 1117 304 l 1
 821 304 l 1
 936 267 1005 188 1005 111 c 2
 1005 -12 l 2
 1005 -137 902 -250 766 -250 c 2
 585 -250 l 1
 585 -416 l 1
 280 -416 l 1
 280 -596 l 2
 280 -639 325 -666 373 -666 c 2
 1044 -666 l 2
 1088 -666 1117 -588 1117 -513 c 2
 1117 49 l 2
 1117 88 1093 117 1044 137 c 1
 1184 278 l 1
754 -86 m 2
 786 -86 808 -40 808 16 c 2
 808 110 l 2
 808 186 764 261 668 300 c 1
 514 300 l 1
 463 267 392 201 392 120 c 2
 392 -21 l 2
 392 -58 432 -91 474 -91 c 1
 474 -86 l 1
 754 -86 l 2
EndSplineSet
EndChar

StartChar: kha
Encoding: 124 3222 124
Width: 1914
VWidth: 2047
Flags: HW
LayerCount: 2
Fore
SplineSet
1740 1393 m 2
 1861 1393 1966 1293 1966 1170 c 2
 1966 217 l 2
 1966 108 1907 -5 1818 -5 c 2
 1520 -5 l 2
 1469 -5 1413 19 1354 66 c 1
 1186 181 l 1
 1158 81 1062 -4 934 -4 c 2
 476 -4 l 1
 476 1 l 1
 352 1 264 77 264 159 c 2
 264 436 l 2
 264 536 348 616 448 616 c 2
 850 616 l 2
 916 616 963 597 991 559 c 1
 991 1091 l 2
 991 1151 963 1202 923 1202 c 2
 669 1202 l 2
 661 1202 629 1186 629 1109 c 2
 629 896 l 1
 405 896 l 1
 405 1191 l 2
 405 1309 500 1399 628 1399 c 2
 979 1399 l 2
 1103 1399 1213 1285 1213 1135 c 2
 1213 415 l 1
 1407 246 l 2
 1452 208 1498 189 1546 189 c 2
 1675 189 l 2
 1714 189 1739 243 1739 301 c 2
 1739 1115 l 2
 1739 1167 1701 1197 1646 1197 c 2
 1406 1197 l 1
 1406 1393 l 1
 1740 1393 l 2
892 190 m 2
 935 190 984 233 987 277 c 1
 987 348 l 1
 946 393 891 416 820 416 c 2
 567 416 l 2
 530 416 484 401 484 378 c 2
 484 247 l 1
 487 216 518 190 554 190 c 2
 892 190 l 2
EndSplineSet
LCarets2: 1 0
EndChar

StartChar: kha.base
Encoding: 125 -1 125
Width: 1581
VWidth: 2047
Flags: HW
LayerCount: 2
Fore
SplineSet
1640 1389 m 1
 1839 1356 1972 1172 1972 961 c 2
 1973 217 l 2
 1973 95 1905 -5 1822 -5 c 1
 1817 0 l 1
 1519 0 l 2
 1468 0 1412 24 1353 71 c 1
 1201 169 l 1
 1183 84 1089 0 939 0 c 2
 480 0 l 2
 357 0 268 73 268 158 c 2
 268 435 l 2
 268 535 352 615 461 615 c 2
 854 615 l 2
 915 615 961 596 992 558 c 1
 992 1119 l 2
 992 1166 964 1202 925 1202 c 2
 701 1202 l 2
 659 1202 630 1161 630 1108 c 2
 630 895 l 1
 406 895 l 1
 406 1190 l 2
 406 1299 498 1397 629 1397 c 2
 982 1397 l 2
 1106 1397 1215 1283 1215 1133 c 2
 1215 413 l 1
 1410 274 l 1
 1474 216 1521 187 1551 187 c 2
 1708 187 l 2
 1733 187 1745 202 1745 232 c 2
 1745 961 l 2
 1745 1098 1636 1194 1510 1194 c 2
 1410 1194 l 1
 1410 1389 l 1
 1640 1389 l 1
895 186 m 2
 933 186 988 218 991 274 c 1
 991 328 l 1
 927 384 857 412 782 412 c 2
 542 412 l 2
 520 412 488 396 488 373 c 2
 488 243 l 1
 491 214 520 186 559 186 c 2
 895 186 l 2
EndSplineSet
EndChar

StartChar: kha.imathra
Encoding: 126 -1 126
Width: 1914
VWidth: 2047
Flags: HW
LayerCount: 2
Fore
SplineSet
1764 1588 m 2
 1881 1588 1972 1483 1972 1353 c 2
 1973 217 l 2
 1973 95 1905 -5 1822 -5 c 1
 1817 0 l 1
 1519 0 l 2
 1468 0 1412 24 1353 71 c 1
 1185 183 l 1
 1157 81 1075 0 956 0 c 2
 480 0 l 2
 357 0 268 73 268 158 c 2
 268 435 l 2
 268 535 352 615 461 615 c 2
 854 615 l 2
 894 615 941 587 993 531 c 1
 993 1090 l 2
 993 1151 953 1201 899 1201 c 2
 702 1201 l 2
 660 1201 631 1160 631 1107 c 2
 631 894 l 1
 407 894 l 1
 407 1189 l 2
 407 1298 499 1396 630 1396 c 2
 983 1396 l 2
 1107 1396 1216 1282 1216 1132 c 2
 1216 412 l 1
 1382 273 l 1
 1463 215 1538 186 1607 186 c 2
 1678 186 l 2
 1718 186 1745 219 1745 261 c 2
 1745 1295 l 2
 1745 1345 1724 1389 1679 1389 c 2
 1608 1389 l 1
 1583 1388 1552 1376 1552 1353 c 2
 1552 1308 l 2
 1552 1251 1585 1225 1607 1225 c 2
 1691 1225 l 1
 1691 1027 l 1
 1510 1027 l 2
 1414 1027 1328 1114 1328 1225 c 2
 1328 1419 l 2
 1328 1517 1428 1588 1540 1588 c 2
 1764 1588 l 2
895 187 m 2
 931 187 987 218 991 273 c 1
 991 315 l 1
 915 379 849 412 795 412 c 2
 560 412 l 2
 527 412 488 395 488 373 c 2
 488 261 l 2
 488 219 512 187 532 187 c 2
 895 187 l 2
EndSplineSet
LCarets2: 1 0
EndChar

StartChar: kha.sub
Encoding: 127 -1 127
Width: 319
VWidth: 2047
Flags: HW
AnchorPoint: "Sub" -613 529 mark 0
AnchorPoint: "Sub" 626 -847 basemark 0
LayerCount: 2
Fore
SplineSet
323 671 m 2
 492 671 631 562 631 412 c 2
 628 -487 l 2
 628 -649 506 -782 349 -782 c 2
 210 -782 l 2
 189 -782 137 -768 55 -740 c 1
 -33 -806 -103 -839 -155 -839 c 2
 -449 -839 l 2
 -544 -839 -634 -770 -634 -682 c 2
 -634 -559 l 2
 -634 -461 -556 -377 -448 -377 c 2
 -225 -377 l 2
 -204 -377 -187 -381 -172 -392 c 2
 -36 -486 l 1
 -36 -318 l 2
 -36 -249 -78 -196 -136 -196 c 2
 -163 -196 l 1
 -163 -305 l 1
 -357 -305 l 1
 -357 -40 l 1
 -89 -40 l 2
 53 -40 163 -160 163 -318 c 2
 163 -598 l 1
 196 -616 222 -626 238 -626 c 2
 350 -626 l 2
 399 -626 432 -567 432 -475 c 2
 432 395 l 2
 432 450 378 495 305 495 c 2
 193 495 l 1
 193 671 l 1
 323 671 l 2
-448 -653 m 2
 -448 -666 -421 -679 -405 -679 c 2
 -180 -679 l 1
 -163 -677 -137 -664 -98 -644 c 1
 -136 -609 -207 -558 -282 -558 c 2
 -405 -558 l 2
 -433 -558 -448 -567 -448 -585 c 2
 -448 -653 l 2
EndSplineSet
LCarets2: 1 0
EndChar

StartChar: ga.base
Encoding: 129 -1 129
Width: 1126
VWidth: 2047
Flags: HW
LayerCount: 2
Fore
SplineSet
1184 1399 m 1
 1388 1348 1519 1179 1519 997 c 2
 1517 0 l 1
 1293 0 l 1
 1293 997 l 2
 1293 1110 1193 1203 1060 1203 c 2
 846 1203 l 2
 719 1203 626 1114 626 998 c 2
 626 1 l 1
 402 1 l 1
 402 1010 l 2
 402 1084 439 1149 513 1204 c 1
 402 1204 l 1
 402 1399 l 1
 1184 1399 l 1
EndSplineSet
EndChar

StartChar: ga.imathra
Encoding: 130 -1 130
Width: 1493
VWidth: 2047
Flags: HW
LayerCount: 2
Fore
SplineSet
987 1819 m 2
 1289 1819 1544 1537 1544 1175 c 2
 1545 0 l 1
 1321 0 l 1
 1321 997 l 2
 1321 1117 1254 1203 1154 1203 c 2
 789 1203 l 2
 692 1203 626 1117 626 1010 c 2
 626 1 l 1
 402 1 l 1
 402 998 l 2
 402 1140 475 1251 567 1303 c 1
 481 1330 402 1397 402 1498 c 2
 402 1639 l 2
 402 1745 502 1819 611 1819 c 2
 987 1819 l 2
627 1499 m 2
 627 1454 646 1406 680 1400 c 1
 1156 1400 l 2
 1216 1400 1271 1367 1320 1303 c 1
 1289 1483 1132 1621 921 1621 c 2
 725 1621 l 2
 659 1621 627 1603 627 1568 c 2
 627 1499 l 2
EndSplineSet
LCarets2: 1 0
EndChar

StartChar: ga.sub
Encoding: 131 -1 131
Width: 195
VWidth: 2047
Flags: HW
AnchorPoint: "Sub" -395 -115 mark 0
AnchorPoint: "Sub" 396 -860 basemark 0
LayerCount: 2
Fore
SplineSet
117 -112 m 2
 278 -112 398 -222 398 -363 c 2
 399 -840 l 1
 202 -840 l 1
 202 -393 l 2
 202 -331 156 -283 89 -283 c 2
 -78 -283 l 2
 -137 -283 -188 -323 -188 -393 c 2
 -188 -840 l 1
 -386 -840 l 1
 -386 -393 l 2
 -386 -235 -268 -112 -123 -112 c 2
 117 -112 l 2
EndSplineSet
LCarets2: 1 0
EndChar

StartChar: gha.base
Encoding: 133 -1 133
Width: 1987
VWidth: 2047
Flags: HW
LayerCount: 2
Fore
SplineSet
1649 969 m 2
 1649 1100 1533 1205 1386 1205 c 2
 335 1205 l 1
 335 1400 l 1
 2405 1400 l 1
 2402 1204 l 1
 1758 1204 l 1
 1862 1138 1871 1043 1871 999 c 1
 1934 894 1995 842 2055 842 c 0
 2112 842 2148 882 2148 924 c 2
 2148 1121 l 1
 2371 1121 l 1
 2371 952 l 2
 2371 802 2287 649 2149 649 c 2
 2037 649 l 2
 1975 649 1920 677 1871 731 c 1
 1871 285 l 2
 1871 124 1765 4 1647 4 c 2
 1312 4 l 2
 1198 4 1119 100 1089 199 c 1
 1048 78 967 4 885 4 c 2
 531 4 l 2
 428 4 336 109 336 244 c 2
 336 843 l 1
 645 843 l 2
 784 843 896 737 896 592 c 2
 896 538 l 1
 669 538 l 1
 669 580 l 2
 669 623 641 649 605 649 c 2
 559 649 l 1
 559 302 l 2
 559 246 592 200 633 200 c 2
 857 200 l 2
 923 200 979 294 979 413 c 2
 979 562 l 1
 1202 562 l 1
 1202 413 l 2
 1202 320 1284 199 1343 199 c 2
 1565 199 l 2
 1617 199 1649 241 1649 300 c 2
 1649 969 l 2
1202 841 m 1
 979 841 l 1
 979 1065 l 1
 1202 1065 l 1
 1202 841 l 1
1202 -292 m 1
 979 -292 l 1
 979 -12 l 1
 1202 -12 l 1
 1202 -292 l 1
EndSplineSet
EndChar

StartChar: gha.imathra
Encoding: 134 -1 134
Width: 2368
VWidth: 2047
Flags: HW
LayerCount: 2
Fore
SplineSet
1038 1819 m 2
 1125 1819 1205 1741 1205 1622 c 2
 1204 1233 l 2
 1204 1105 1126 1010 1011 1010 c 2
 648 1010 l 1
 648 1204 l 1
 925 1204 l 2
 958 1204 982 1245 982 1285 c 2
 982 1527 l 2
 982 1595 948 1620 925 1620 c 2
 824 1620 l 2
 798 1620 785 1607 785 1582 c 2
 785 1526 l 1
 786 1503 801 1483 824 1483 c 2
 925 1483 l 1
 925 1285 l 1
 742 1285 l 2
 644 1285 562 1370 562 1455 c 2
 562 1611 l 2
 562 1737 666 1819 771 1819 c 2
 1038 1819 l 2
2150 894 m 2
 2173 894 2207 919 2207 1005 c 2
 2207 1396 l 1
 2431 1396 l 1
 2432 951 l 2
 2432 804 2345 700 2236 700 c 2
 2041 700 l 2
 1982 700 1925 728 1873 783 c 1
 1873 283 l 2
 1873 122 1769 5 1655 2 c 1
 1318 2 l 2
 1211 2 1125 79 1097 171 c 1
 1068 81 989 2 887 2 c 2
 540 2 l 2
 428 2 343 102 343 213 c 2
 343 841 l 1
 652 841 l 2
 790 841 903 742 903 619 c 2
 903 536 l 1
 678 536 l 1
 678 607 l 2
 678 631 648 647 608 647 c 2
 568 647 l 1
 568 300 l 2
 568 234 608 198 635 198 c 2
 859 198 l 2
 938 198 987 307 987 410 c 2
 987 560 l 1
 1209 560 l 1
 1209 410 l 2
 1209 317 1291 197 1350 197 c 2
 1574 197 l 2
 1614 197 1656 234 1656 298 c 2
 1656 1091 l 2
 1656 1149 1610 1202 1544 1202 c 2
 1387 1202 l 1
 1387 1397 l 1
 1612 1397 l 2
 1761 1397 1877 1246 1877 1062 c 1
 1948 950 2006 894 2051 894 c 2
 2150 894 l 2
1204 -339 m 1
 982 -339 l 1
 982 -63 l 1
 1204 -63 l 1
 1204 -339 l 1
EndSplineSet
LCarets2: 1 0
EndChar

StartChar: gha.sub
Encoding: 135 -1 135
Width: 409
VWidth: 2047
Flags: HW
AnchorPoint: "Sub" -820 310 mark 0
AnchorPoint: "Sub" 682 -804 basemark 0
LayerCount: 2
Fore
SplineSet
636 335 m 1
 740 268 820 194 820 112 c 2
 818 -65 l 1
 818 -165 771 -245 677 -304 c 1
 677 -485 l 2
 677 -606 599 -706 483 -706 c 2
 186 -706 l 2
 74 -706 -13 -617 -49 -539 c 1
 -113 -649 -209 -724 -315 -724 c 2
 -606 -724 l 2
 -716 -724 -801 -637 -801 -539 c 2
 -801 -345 l 2
 -801 -221 -707 -140 -606 -140 c 2
 -327 -140 l 1
 -327 -304 l 1
 -537 -304 l 2
 -572 -304 -605 -334 -605 -375 c 2
 -605 -503 l 2
 -605 -529 -576 -557 -548 -557 c 2
 -297 -557 l 2
 -237 -557 -148 -444 -148 -362 c 2
 -148 -280 l 1
 50 -280 l 1
 50 -374 l 2
 50 -446 133 -529 205 -529 c 2
 439 -529 l 2
 469 -529 484 -510 484 -473 c 2
 484 -361 l 1
 262 -361 l 1
 262 -193 l 1
 513 -193 l 2
 570 -193 626 -135 626 -56 c 2
 626 102 l 2
 626 122 592 153 525 196 c 1
 636 335 l 1
48 -839 m 1
 -151 -839 l 1
 -151 -711 l 1
 -50 -588 l 1
 48 -711 l 1
 48 -839 l 1
EndSplineSet
LCarets2: 1 0
EndChar

StartChar: nga
Encoding: 136 3225 136
Width: 1786
VWidth: 2047
Flags: HW
LayerCount: 2
Fore
SplineSet
1649 811 m 2
 1755 811 1846 726 1846 605 c 2
 1850 224 l 2
 1850 106 1763 1 1652 1 c 2
 1259 1 l 2
 1182 1 1102 50 1067 157 c 1
 1047 75 990 -1 900 -1 c 2
 527 -1 l 2
 406 -1 311 88 311 194 c 2
 311 492 l 1
 721 838 l 1
 747 854 760 891 760 948 c 2
 760 1117 l 2
 760 1158 718 1198 650 1198 c 2
 538 1198 l 1
 538 1116 l 2
 538 1071 563 1033 592 1033 c 2
 622 1033 l 1
 622 838 l 1
 480 838 l 2
 394 838 310 929 310 1050 c 2
 310 1397 l 1
 693 1397 l 2
 818 1397 920 1339 943 1247 c 1
 1031 1347 1124 1397 1222 1397 c 2
 1640 1397 l 2
 1730 1397 1790 1323 1790 1232 c 2
 1790 1064 l 1
 1568 1064 l 1
 1568 1135 l 2
 1568 1160 1554 1202 1499 1202 c 2
 1286 1202 l 2
 1152 1202 1025 1131 952 1008 c 1
 952 885 l 2
 952 794 925 728 871 688 c 1
 535 382 l 1
 535 272 l 2
 535 228 576 198 634 198 c 2
 812 198 l 2
 891 198 951 248 951 308 c 2
 951 420 l 1
 1175 420 l 1
 1175 308 l 2
 1175 255 1232 198 1314 198 c 2
 1568 198 l 2
 1600 198 1620 221 1620 253 c 2
 1620 533 l 2
 1620 589 1607 617 1582 617 c 2
 1425 617 l 1
 1425 811 l 1
 1649 811 l 2
1173 533 m 1
 949 533 l 1
 949 757 l 1
 1173 757 l 1
 1173 533 l 1
EndSplineSet
LCarets2: 1 0
EndChar

StartChar: nga.sub
Encoding: 137 -1 137
Width: 380
VWidth: 2047
Flags: HW
AnchorPoint: "Sub" -788 -57 mark 0
AnchorPoint: "Sub" 769 -819 basemark 0
LayerCount: 2
Fore
SplineSet
128 -448 m 1
 -66 -448 l 1
 -66 -305 l 1
 128 -305 l 1
 128 -448 l 1
510 -681 m 2
 547 -681 575 -649 575 -617 c 2
 575 -476 l 1
 762 -476 l 1
 762 -655 l 2
 762 -758 683 -839 593 -839 c 2
 202 -839 l 2
 129 -839 60 -787 37 -711 c 1
 17 -780 -54 -839 -133 -839 c 2
 -550 -839 l 2
 -652 -839 -747 -761 -747 -670 c 2
 -747 -517 l 2
 -747 -426 -659 -364 -578 -364 c 2
 -439 -364 l 2
 -421 -364 -413 -354 -413 -336 c 2
 -413 -283 l 2
 -413 -263 -421 -253 -439 -253 c 2
 -719 -253 l 1
 -719 -86 l 1
 -354 -86 l 2
 -286 -86 -237 -124 -231 -181 c 1
 -198 -117 -146 -86 -76 -86 c 2
 260 -86 l 2
 384 -86 454 -164 454 -252 c 2
 454 -364 l 1
 260 -364 l 1
 260 -282 l 2
 260 -251 235 -235 186 -235 c 2
 -38 -235 l 2
 -109 -235 -179 -292 -215 -378 c 1
 -215 -449 l 2
 -215 -493 -266 -532 -344 -532 c 2
 -496 -532 l 2
 -531 -532 -549 -546 -549 -571 c 2
 -549 -627 l 2
 -549 -650 -523 -668 -497 -668 c 2
 -178 -668 l 2
 -117 -668 -64 -633 -64 -587 c 2
 -64 -504 l 1
 130 -504 l 1
 130 -571 l 2
 130 -635 183 -681 241 -681 c 2
 510 -681 l 2
EndSplineSet
LCarets2: 1 0
EndChar

StartChar: ca.base
Encoding: 139 -1 139
Width: 1597
VWidth: 2047
Flags: HW
LayerCount: 2
Fore
SplineSet
1606 577 m 2
 1606 649 1553 700 1493 700 c 2
 1214 700 l 1
 1214 897 l 1
 1558 897 l 1
 1558 1204 l 1
 1214 1204 l 1
 1214 1399 l 1
 1660 1399 l 1
 1783 1204 l 1
 1783 897 l 1
 1996 897 l 1
 1994 699 l 1
 1770 699 l 1
 1807 668 1826 631 1826 589 c 2
 1826 225 l 2
 1826 101 1733 2 1614 2 c 2
 1212 2 l 2
 1136 2 1072 53 1061 112 c 1
 1046 51 974 2 890 2 c 2
 543 2 l 2
 424 2 317 108 317 242 c 2
 317 548 l 1
 740 828 l 1
 740 1110 l 2
 740 1166 695 1204 640 1204 c 2
 545 1204 l 1
 545 1110 l 2
 545 1072 571 1037 609 1037 c 2
 654 1037 l 1
 654 842 l 1
 500 842 l 2
 396 842 318 938 318 1036 c 2
 318 1399 l 1
 753 1399 l 2
 871 1399 963 1297 963 1165 c 2
 963 718 l 1
 545 420 l 1
 545 308 l 2
 545 251 577 198 629 198 c 2
 863 198 l 2
 916 198 961 238 961 284 c 2
 961 420 l 1
 1185 420 l 1
 1185 308 l 2
 1185 240 1231 198 1266 198 c 2
 1502 198 l 2
 1570 198 1606 243 1606 283 c 2
 1606 577 l 2
EndSplineSet
EndChar

StartChar: ca.imathra
Encoding: 140 -1 140
Width: 1944
VWidth: 2047
Flags: HW
LayerCount: 2
Fore
SplineSet
1651 1600 m 2
 1753 1600 1836 1511 1836 1390 c 2
 1836 1040 l 2
 1836 983 1817 937 1779 902 c 1
 2002 902 l 1
 2003 699 l 1
 1780 699 l 1
 1818 668 1837 631 1837 589 c 2
 1837 225 l 2
 1837 96 1764 1 1679 1 c 2
 1222 1 l 2
 1147 1 1081 54 1070 111 c 1
 1063 54 989 1 899 1 c 2
 526 1 l 2
 417 1 330 89 330 185 c 2
 330 576 l 1
 751 828 l 1
 751 1110 l 2
 751 1173 695 1204 651 1204 c 2
 554 1204 l 1
 554 1110 l 2
 554 1070 582 1037 623 1037 c 2
 694 1037 l 1
 694 842 l 1
 510 842 l 2
 411 842 332 921 332 1011 c 2
 332 1401 l 1
 780 1401 l 2
 896 1401 973 1297 973 1178 c 2
 973 720 l 1
 553 452 l 1
 553 286 l 2
 553 234 600 202 637 202 c 2
 843 202 l 2
 912 202 970 235 970 287 c 2
 970 482 l 1
 1194 482 l 1
 1194 311 l 2
 1194 252 1232 203 1277 203 c 2
 1539 203 l 2
 1581 203 1612 240 1612 287 c 2
 1612 581 l 2
 1612 628 1583 687 1511 702 c 1
 1222 702 l 1
 1222 899 l 1
 1528 899 l 1
 1584 929 1612 967 1612 1012 c 2
 1612 1376 l 2
 1612 1394 1587 1402 1538 1402 c 2
 1456 1402 l 1
 1448 1401 1443 1379 1443 1338 c 2
 1443 1292 l 2
 1443 1266 1478 1239 1509 1239 c 2
 1583 1239 l 1
 1583 1042 l 1
 1385 1042 l 2
 1300 1042 1222 1114 1222 1208 c 2
 1222 1432 l 2
 1222 1531 1299 1600 1386 1600 c 2
 1651 1600 l 2
EndSplineSet
LCarets2: 1 0
EndChar

StartChar: ca.sub
Encoding: 141 -1 141
Width: 380
VWidth: 2047
Flags: HW
AnchorPoint: "Sub" -751 393 mark 0
AnchorPoint: "Sub" 668 -820 basemark 0
LayerCount: 2
Fore
SplineSet
482 -412 m 2
 482 -348 431 -300 371 -300 c 2
 120 -300 l 1
 120 -136 l 1
 288 -136 l 1
 380 -45 426 35 426 105 c 2
 426 480 l 1
 625 480 l 1
 625 105 l 2
 625 24 587 -56 512 -136 c 1
 764 -136 l 1
 763 -305 l 1
 605 -305 l 1
 653 -335 677 -385 677 -452 c 2
 677 -649 l 2
 677 -749 605 -832 511 -832 c 2
 231 -832 l 2
 116 -832 27 -764 10 -675 c 1
 -22 -765 -103 -832 -213 -832 c 2
 -537 -832 l 1
 -537 -837 l 1
 -650 -837 -746 -775 -746 -696 c 2
 -746 -513 l 2
 -746 -424 -672 -361 -595 -361 c 2
 -455 -361 l 2
 -409 -361 -385 -334 -385 -317 c 2
 -385 -280 l 2
 -385 -260 -403 -250 -439 -250 c 2
 -719 -250 l 1
 -719 -83 l 1
 -373 -83 l 2
 -269 -83 -187 -136 -187 -205 c 2
 -187 -390 l 2
 -187 -478 -268 -556 -373 -556 c 2
 -496 -556 l 2
 -522 -556 -548 -572 -548 -595 c 2
 -548 -623 l 2
 -548 -646 -522 -664 -496 -664 c 2
 -243 -664 l 2
 -164 -664 -92 -598 -92 -510 c 2
 -92 -413 l 1
 103 -413 l 1
 103 -526 l 2
 103 -600 187 -663 231 -663 c 2
 410 -663 l 2
 450 -663 482 -625 482 -580 c 2
 482 -412 l 2
EndSplineSet
LCarets2: 1 0
EndChar

StartChar: cha.base
Encoding: 143 -1 143
Width: 1422
VWidth: 2047
Flags: HW
LayerCount: 2
Fore
SplineSet
1504 1390 m 1
 1686 1366 1814 1231 1814 1090 c 2
 1816 240 l 2
 1816 106 1712 0 1592 0 c 2
 1312 0 l 2
 1219 0 1138 61 1117 140 c 1
 1093 52 1013 0 940 0 c 2
 633 0 l 2
 504 0 395 101 395 223 c 2
 395 1134 l 2
 395 1287 519 1397 634 1397 c 2
 1035 1397 l 1
 1035 1034 l 2
 1035 893 947 810 859 810 c 2
 702 810 l 1
 702 1008 l 1
 758 1008 l 2
 793 1008 812 1049 812 1089 c 2
 812 1201 l 1
 718 1201 l 2
 662 1201 617 1160 617 1108 c 2
 617 297 l 2
 617 241 655 196 700 196 c 2
 886 196 l 2
 954 196 1006 246 1006 304 c 2
 1006 447 l 1
 1230 447 l 1
 1230 304 l 2
 1230 246 1278 195 1341 195 c 2
 1506 195 l 2
 1562 195 1591 254 1591 304 c 2
 1591 1090 l 2
 1591 1142 1554 1177 1480 1195 c 1
 1197 1195 l 1
 1197 1390 l 1
 1504 1390 l 1
1226 -337 m 1
 1002 -337 l 1
 1002 -60 l 1
 1226 -60 l 1
 1226 -337 l 1
EndSplineSet
EndChar

StartChar: cha.imathra
Encoding: 144 -1 144
Width: 1757
VWidth: 2047
Flags: HW
LayerCount: 2
Fore
SplineSet
1610 1622 m 2
 1721 1622 1817 1512 1817 1362 c 2
 1816 240 l 2
 1816 111 1733 0 1618 0 c 2
 1313 0 l 2
 1220 0 1139 61 1118 140 c 1
 1092 66 1031 0 940 0 c 2
 633 0 l 2
 504 0 395 101 395 223 c 2
 395 1134 l 2
 395 1287 519 1397 634 1397 c 2
 1035 1397 l 1
 1035 1034 l 2
 1035 893 947 810 859 810 c 2
 702 810 l 1
 702 1008 l 1
 758 1008 l 2
 793 1008 812 1037 812 1062 c 2
 812 1201 l 1
 718 1201 l 2
 662 1201 617 1160 617 1108 c 2
 617 297 l 2
 617 239 664 195 718 195 c 2
 887 195 l 2
 955 195 1008 245 1008 303 c 2
 1008 445 l 1
 1231 445 l 1
 1231 303 l 2
 1231 245 1279 194 1342 194 c 2
 1507 194 l 2
 1563 194 1592 253 1592 303 c 2
 1592 1332 l 2
 1592 1382 1565 1425 1524 1425 c 2
 1440 1425 l 2
 1400 1425 1369 1396 1369 1360 c 2
 1369 1276 l 2
 1369 1233 1406 1204 1440 1204 c 2
 1507 1204 l 1
 1507 1010 l 1
 1369 1010 l 2
 1247 1010 1143 1107 1143 1222 c 2
 1143 1416 l 2
 1143 1534 1233 1622 1342 1622 c 2
 1610 1622 l 2
1229 -335 m 1
 1005 -335 l 1
 1005 -58 l 1
 1229 -58 l 1
 1229 -335 l 1
EndSplineSet
LCarets2: 1 0
EndChar

StartChar: cha.sub
Encoding: 145 -1 145
Width: 305
VWidth: 2047
Flags: HW
AnchorPoint: "Sub" -630 395 mark 0
AnchorPoint: "Sub" 626 -859 basemark 0
LayerCount: 2
Fore
SplineSet
314 412 m 1
 511 372 629 170 629 -49 c 2
 628 -480 l 2
 628 -642 560 -772 472 -772 c 2
 226 -772 l 2
 124 -772 53 -712 33 -634 c 1
 10 -712 -50 -773 -143 -773 c 2
 -420 -773 l 1
 -432 -769 l 1
 -525 -769 -612 -677 -612 -561 c 2
 -612 -337 l 2
 -612 -224 -535 -126 -420 -126 c 2
 -185 -126 l 1
 -185 -321 l 1
 -365 -321 l 2
 -397 -321 -419 -355 -419 -395 c 2
 -419 -518 l 2
 -419 -561 -388 -588 -365 -588 c 2
 -165 -588 l 2
 -101 -588 -68 -520 -68 -449 c 2
 -68 -378 l 1
 115 -378 l 1
 115 -459 l 2
 115 -535 165 -588 214 -588 c 2
 355 -588 l 2
 411 -588 454 -542 454 -477 c 2
 454 -41 l 2
 454 100 377 219 249 243 c 1
 314 412 l 1
127 -908 m 1
 -71 -908 l 1
 -71 -813 l 1
 30 -690 l 1
 127 -813 l 1
 127 -908 l 1
EndSplineSet
LCarets2: 1 0
EndChar

StartChar: ja
Encoding: 146 3228 146
Width: 1809
VWidth: 2047
Flags: HW
LayerCount: 2
Fore
SplineSet
1692 786 m 2
 1789 786 1869 682 1869 553 c 2
 1871 224 l 2
 1871 112 1792 2 1676 2 c 2
 1245 2 l 2
 1168 2 1109 62 1089 130 c 1
 1078 58 1023 2 949 2 c 2
 521 2 l 2
 397 2 305 93 305 197 c 2
 305 548 l 1
 745 783 l 1
 788 824 809 861 809 896 c 2
 809 1091 l 2
 809 1157 750 1202 687 1202 c 2
 559 1202 l 1
 559 1079 l 2
 559 1061 588 1051 645 1051 c 2
 699 1051 l 1
 699 839 l 1
 531 839 l 2
 428 839 336 917 336 1034 c 2
 336 1397 l 1
 773 1397 l 2
 895 1397 1031 1324 1031 1191 c 1
 1082 1125 1135 1092 1189 1092 c 2
 1469 1092 l 2
 1509 1092 1534 1123 1534 1144 c 2
 1534 1190 l 2
 1534 1218 1520 1231 1494 1231 c 2
 1453 1231 l 1
 1453 1425 l 1
 1552 1425 l 2
 1676 1425 1756 1331 1756 1222 c 2
 1756 1093 l 2
 1756 977 1665 899 1562 899 c 2
 1216 899 l 2
 1153 899 1092 927 1031 983 c 1
 1031 830 l 2
 1031 762 1003 707 948 662 c 1
 530 440 l 1
 530 302 l 2
 530 238 580 200 629 200 c 2
 881 200 l 2
 933 200 976 251 976 310 c 2
 976 397 l 1
 1198 397 l 1
 1198 329 l 2
 1198 273 1248 202 1327 202 c 2
 1533 202 l 2
 1597 202 1645 265 1645 330 c 2
 1645 509 l 2
 1645 560 1606 592 1551 592 c 2
 1422 592 l 1
 1422 786 l 1
 1692 786 l 2
EndSplineSet
LCarets2: 1 0
EndChar

StartChar: ja.base
Encoding: 147 -1 147
Width: 1474
VWidth: 2047
Flags: HW
LayerCount: 2
Fore
SplineSet
1677 778 m 2
 1794 778 1872 692 1872 573 c 1
 1875 251 l 1
 1875 112 1774 0 1653 0 c 2
 1245 0 l 2
 1171 0 1116 64 1096 128 c 1
 1086 63 1022 0 929 0 c 2
 523 0 l 2
 408 0 313 91 313 195 c 2
 313 546 l 1
 718 781 l 1
 785 840 819 896 819 949 c 2
 819 1089 l 2
 819 1148 779 1200 719 1200 c 2
 568 1200 l 1
 568 1132 l 2
 568 1078 603 1051 625 1051 c 2
 678 1051 l 1
 678 839 l 1
 540 839 l 2
 424 839 344 932 344 1034 c 2
 344 1397 l 1
 776 1397 l 2
 920 1397 1042 1289 1042 1161 c 1
 1087 1114 1128 1090 1165 1090 c 2
 1433 1090 l 2
 1466 1090 1488 1119 1488 1160 c 2
 1488 1200 l 1
 1179 1200 l 1
 1179 1395 l 1
 1493 1395 l 2
 1616 1395 1711 1311 1711 1200 c 2
 1711 1088 l 2
 1711 979 1617 893 1513 893 c 2
 1219 893 l 2
 1161 893 1101 921 1040 977 c 1
 1040 854 l 2
 1040 805 1003 748 928 685 c 1
 538 434 l 1
 538 296 l 2
 538 239 579 194 631 194 c 2
 883 194 l 2
 936 194 983 245 983 303 c 2
 983 390 l 1
 1205 390 l 1
 1205 322 l 2
 1205 248 1252 194 1299 194 c 2
 1539 194 l 2
 1606 194 1650 251 1650 303 c 2
 1650 520 l 2
 1650 557 1608 584 1550 584 c 2
 1426 584 l 1
 1426 778 l 1
 1677 778 l 2
EndSplineSet
EndChar

StartChar: ja.imathra
Encoding: 148 -1 148
Width: 1831
VWidth: 2047
Flags: HW
LayerCount: 2
Fore
SplineSet
1668 781 m 2
 1800 781 1891 681 1891 576 c 2
 1893 224 l 2
 1893 101 1793 1 1670 1 c 2
 1236 1 l 2
 1160 1 1104 65 1084 129 c 1
 1073 54 1010 1 945 1 c 2
 538 1 l 2
 413 1 304 99 304 224 c 2
 304 522 l 1
 763 811 l 1
 791 842 805 880 805 922 c 2
 805 1108 l 2
 805 1163 774 1202 722 1202 c 2
 554 1202 l 1
 554 1108 l 1
 557 1076 577 1051 609 1051 c 2
 663 1051 l 1
 663 839 l 1
 527 839 l 2
 413 839 331 933 331 1033 c 2
 331 1396 l 1
 763 1396 l 2
 914 1396 1028 1314 1028 1219 c 1
 1107 1181 1183 1161 1255 1161 c 2
 1338 1161 l 1
 1338 1425 l 2
 1338 1541 1426 1618 1533 1618 c 2
 1671 1618 l 2
 1788 1618 1865 1522 1865 1397 c 2
 1865 1173 l 2
 1865 1045 1762 950 1643 950 c 2
 1290 950 l 2
 1191 950 1103 970 1026 1008 c 1
 1026 839 l 2
 1026 781 1008 740 972 717 c 2
 526 437 l 1
 526 283 l 2
 526 229 567 197 607 197 c 2
 872 197 l 2
 924 197 968 238 968 299 c 2
 968 393 l 1
 1192 393 l 1
 1192 326 l 2
 1192 258 1237 197 1286 197 c 2
 1569 197 l 2
 1621 197 1667 249 1667 307 c 2
 1667 494 l 2
 1667 547 1615 587 1555 587 c 2
 1416 587 l 1
 1416 781 l 1
 1668 781 l 2
1613 1145 m 2
 1635 1145 1667 1165 1667 1233 c 2
 1667 1372 l 2
 1667 1408 1652 1426 1622 1426 c 2
 1585 1426 l 2
 1555 1426 1529 1404 1529 1372 c 2
 1529 1145 l 1
 1613 1145 l 2
EndSplineSet
LCarets2: 1 0
EndChar

StartChar: ja.sub
Encoding: 149 -1 149
Width: 369
VWidth: 2047
Flags: HW
AnchorPoint: "Sub" -696 57 mark 0
AnchorPoint: "Sub" 757 -829 basemark 0
LayerCount: 2
Fore
SplineSet
460 -251 m 2
 502 -251 533 -220 533 -195 c 2
 533 -111 l 2
 533 -83 514 -57 477 -31 c 1
 589 83 l 1
 682 20 728 -45 728 -112 c 2
 728 -234 l 2
 728 -347 652 -418 562 -418 c 2
 144 -418 l 2
 45 -418 -58 -367 -165 -264 c 1
 -82 -141 l 1
 30 -215 100 -251 125 -251 c 2
 460 -251 l 2
501 -673 m 2
 530 -673 554 -652 554 -620 c 2
 554 -479 l 1
 751 -479 l 1
 751 -629 l 2
 751 -744 683 -841 582 -841 c 2
 247 -841 l 2
 157 -841 70 -775 54 -701 c 1
 9 -795 -55 -842 -138 -842 c 2
 -535 -842 l 2
 -645 -842 -730 -766 -730 -686 c 2
 -730 -537 l 2
 -730 -432 -652 -368 -578 -368 c 2
 -439 -368 l 2
 -404 -368 -385 -346 -385 -325 c 2
 -385 -287 l 2
 -385 -267 -397 -258 -422 -258 c 2
 -702 -258 l 1
 -702 -71 l 1
 -367 -71 l 2
 -267 -71 -188 -143 -188 -229 c 2
 -188 -408 l 2
 -188 -470 -252 -537 -339 -537 c 2
 -478 -537 l 2
 -516 -537 -536 -550 -536 -575 c 2
 -536 -631 l 2
 -536 -652 -504 -673 -478 -673 c 2
 -173 -673 l 2
 -100 -673 -50 -611 -50 -545 c 2
 -50 -480 l 1
 148 -480 l 1
 148 -545 l 2
 148 -617 212 -673 277 -673 c 2
 501 -673 l 2
EndSplineSet
LCarets2: 1 0
EndChar

StartChar: jha.sub
Encoding: 154 -1 154
Width: 403
VWidth: 2047
Flags: HW
AnchorPoint: "Sub" -798 -66 mark 0
AnchorPoint: "Sub" 770 -776 basemark 0
LayerCount: 2
Fore
SplineSet
580 -63 m 1
 730 -113 822 -211 822 -310 c 1
 818 -541 l 1
 818 -675 716 -781 595 -781 c 2
 401 -781 l 2
 356 -781 321 -757 295 -710 c 1
 266 -757 220 -781 157 -781 c 2
 -14 -781 l 2
 -52 -781 -89 -763 -124 -727 c 1
 -153 -763 -195 -781 -251 -781 c 2
 -563 -781 l 2
 -691 -781 -797 -668 -797 -541 c 2
 -797 -282 l 2
 -797 -156 -684 -58 -544 -58 c 2
 -293 -58 l 2
 -151 -58 -45 -165 -45 -292 c 2
 -45 -531 l 2
 -45 -571 -7 -615 42 -615 c 2
 124 -615 l 2
 161 -615 190 -580 190 -540 c 2
 190 -318 l 2
 190 -264 137 -206 53 -182 c 1
 181 -59 l 1
 307 -102 387 -208 387 -307 c 2
 387 -560 l 2
 387 -592 415 -617 441 -617 c 2
 543 -617 l 2
 596 -617 626 -574 626 -535 c 2
 626 -337 l 2
 626 -275 561 -205 457 -174 c 1
 580 -63 l 1
391 -844 m 1
 193 -844 l 1
 193 -817 l 1
 296 -763 l 1
 390 -817 l 1
 391 -844 l 1
-336 -623 m 2
 -285 -623 -237 -580 -238 -522 c 1
 -238 -342 l 2
 -238 -284 -284 -230 -349 -230 c 2
 -506 -230 l 2
 -556 -230 -598 -268 -598 -325 c 2
 -598 -522 l 2
 -598 -579 -545 -623 -489 -623 c 2
 -336 -623 l 2
EndSplineSet
LCarets2: 1 0
EndChar

StartChar: jha.part
Encoding: 155 -1 155
Width: 839
VWidth: 2047
Flags: HW
LayerCount: 2
Fore
SplineSet
628 1398 m 2
 782 1398 896 1254 896 1080 c 2
 896 269 l 2
 896 125 798 0 671 0 c 2
 336 0 l 2
 232 0 131 71 31 212 c 1
 31 532 l 1
 121 338 277 196 419 196 c 2
 542 196 l 2
 617 196 670 253 670 335 c 2
 670 1080 l 2
 670 1144 624 1203 560 1203 c 2
 307 1203 l 1
 307 1398 l 1
 628 1398 l 2
896 -395 m 1
 671 -395 l 1
 671 -112 l 1
 896 -112 l 1
 896 -395 l 1
EndSplineSet
EndChar

StartChar: nya
Encoding: 157 3230 157
Width: 2262
VWidth: 2047
Flags: HW
LayerCount: 2
Fore
SplineSet
2141 1407 m 2
 2247 1407 2328 1318 2328 1201 c 1
 2331 997 l 1
 2331 879 2258 783 2163 783 c 2
 2024 783 l 1
 2024 981 l 1
 2051 981 l 2
 2086 981 2104 1009 2104 1064 c 2
 2104 1145 l 2
 2104 1183 2077 1203 2023 1203 c 2
 1922 1203 l 2
 1854 1203 1800 1144 1800 1065 c 2
 1800 758 l 2
 1800 639 1753 533 1659 438 c 1
 1659 284 l 2
 1659 233 1705 199 1741 199 c 2
 1827 199 l 1
 1827 4 l 1
 1659 4 l 2
 1535 4 1437 107 1437 227 c 2
 1437 366 l 1
 1214 366 l 2
 1100 366 1019 455 1019 549 c 2
 1019 700 l 2
 1019 781 1103 841 1194 841 c 2
 1436 841 l 2
 1504 841 1554 770 1576 719 c 1
 1576 1113 l 2
 1576 1172 1513 1206 1447 1206 c 2
 1324 1206 l 2
 1244 1206 1185 1150 1185 1096 c 2
 1185 956 l 1
 961 956 l 1
 961 1084 l 2
 961 1144 910 1207 822 1207 c 2
 638 1207 l 2
 616 1207 572 1187 572 1125 c 2
 572 986 l 2
 572 943 600 904 638 904 c 2
 710 904 l 1
 710 679 l 1
 553 679 l 2
 444 679 347 785 347 920 c 2
 347 1181 l 2
 347 1304 443 1405 553 1405 c 2
 878 1405 l 2
 974 1405 1064 1347 1071 1265 c 1
 1103 1335 1172 1405 1264 1405 c 2
 1529 1405 l 2
 1630 1405 1682 1319 1697 1284 c 1
 1725 1355 1788 1407 1879 1407 c 2
 2141 1407 l 2
1211 612 m 2
 1211 588 1248 568 1275 568 c 2
 1359 568 l 2
 1375 568 1399 578 1432 597 c 1
 1432 632 1385 653 1333 653 c 2
 1249 653 l 2
 1224 653 1211 650 1211 642 c 2
 1211 612 l 2
EndSplineSet
LCarets2: 1 0
EndChar

StartChar: nya.sub
Encoding: 158 -1 158
Width: 458
VWidth: 2047
Flags: HW
AnchorPoint: "Sub" -817 -32 mark 0
AnchorPoint: "Sub" 749 -846 basemark 0
LayerCount: 2
Fore
SplineSet
685 -24 m 2
 760 -24 834 -86 834 -187 c 2
 836 -448 l 2
 836 -543 776 -625 687 -625 c 2
 563 -625 l 1
 563 -472 l 1
 620 -472 l 2
 652 -472 661 -441 661 -420 c 2
 661 -258 l 2
 661 -202 647 -174 619 -174 c 2
 471 -174 l 2
 463 -174 416 -171 384 -272 c 1
 384 -531 l 2
 384 -634 278 -724 136 -724 c 1
 136 -745 159 -772 183 -772 c 2
 260 -772 l 1
 260 -898 l 1
 134 -898 l 2
 62 -898 -18 -848 -18 -773 c 2
 -18 -724 l 1
 -108 -724 l 2
 -184 -724 -244 -676 -244 -625 c 2
 -244 -509 l 2
 -244 -453 -197 -400 -119 -400 c 2
 7 -400 l 2
 104 -400 134 -465 134 -509 c 2
 134 -574 l 1
 183 -574 208 -557 208 -523 c 2
 208 -231 l 2
 208 -212 185 -174 108 -174 c 2
 -93 -174 l 2
 -159 -174 -206 -217 -206 -272 c 2
 -206 -309 l 1
 -381 -309 l 1
 -381 -258 l 2
 -381 -203 -424 -174 -483 -174 c 2
 -592 -174 l 2
 -613 -174 -644 -190 -644 -246 c 2
 -644 -409 l 2
 -644 -434 -593 -457 -543 -457 c 1
 -543 -625 l 1
 -706 -625 -819 -510 -819 -410 c 2
 -819 -200 l 2
 -819 -88 -735 -23 -660 -23 c 2
 -443 -23 l 2
 -360 -23 -293 -88 -293 -151 c 1
 -264 -83 -213 -24 -160 -24 c 2
 183 -24 l 2
 257 -24 307 -50 333 -100 c 1
 370 -50 412 -24 458 -24 c 2
 685 -24 l 2
-22 -563 m 2
 -22 -537 l 2
 -22 -516 -35 -505 -60 -505 c 0
 -85 -505 -98 -512 -98 -528 c 2
 -98 -579 l 2
 -98 -595 -82 -603 -49 -603 c 0
 -31 -603 -22 -590 -22 -563 c 2
EndSplineSet
LCarets2: 1 0
EndChar

StartChar: tta
Encoding: 159 3231 159
Width: 1797
VWidth: 2047
Flags: HW
LayerCount: 2
Fore
SplineSet
1710 842 m 1
 1797 842 1863 761 1863 662 c 2
 1863 224 l 2
 1863 99 1784 1 1670 1 c 2
 1330 1 l 2
 1228 1 1150 80 1125 170 c 1
 1112 79 1027 2 929 2 c 2
 640 2 l 2
 495 2 388 115 388 242 c 2
 388 784 l 2
 388 840 435 895 529 951 c 1
 435 1009 388 1062 388 1109 c 2
 388 1360 l 2
 388 1497 497 1594 624 1594 c 2
 834 1594 l 1
 834 1397 l 1
 677 1397 l 2
 644 1397 611 1364 611 1333 c 2
 611 1145 l 2
 611 1096 649 1051 694 1038 c 1
 1002 1038 l 1
 1002 719 l 2
 1002 592 910 479 787 479 c 2
 664 479 l 1
 664 673 l 1
 732 673 l 2
 768 673 777 707 777 729 c 2
 777 841 l 1
 664 841 l 1
 628 821 610 793 610 758 c 2
 610 300 l 2
 610 233 660 199 694 199 c 2
 874 199 l 2
 952 199 1016 262 1026 338 c 1
 1026 451 l 1
 1253 451 l 1
 1253 338 l 1
 1276 243 1333 202 1387 202 c 2
 1597 202 l 2
 1637 202 1667 253 1667 310 c 2
 1667 649 l 2
 1667 698 1637 731 1585 731 c 2
 1416 731 l 1
 1416 926 l 1
 1528 926 l 2
 1586 926 1640 972 1640 1037 c 2
 1640 1306 l 2
 1640 1328 1629 1372 1556 1372 c 2
 1417 1372 l 1
 1417 1568 l 1
 1669 1568 l 2
 1766 1568 1838 1469 1838 1344 c 2
 1838 997 l 2
 1838 931 1798 867 1710 842 c 1
EndSplineSet
LCarets2: 1 0
EndChar

StartChar: tta.base
Encoding: 160 -1 160
Width: 1499
VWidth: 2047
Flags: HW
LayerCount: 2
Fore
SplineSet
1744 840 m 1
 1836 840 1896 759 1896 661 c 2
 1893 230 l 2
 1893 108 1816 6 1700 6 c 1
 1695 1 l 1
 1330 1 l 2
 1229 1 1156 81 1132 170 c 1
 1115 79 1032 2 937 2 c 2
 642 2 l 2
 501 2 390 95 390 213 c 2
 390 783 l 2
 390 839 437 894 531 950 c 1
 419 1017 391 1094 391 1131 c 2
 391 1381 l 2
 391 1499 474 1614 601 1614 c 2
 836 1614 l 1
 836 1420 l 1
 685 1420 l 2
 636 1420 585 1383 585 1328 c 2
 585 1140 l 2
 585 1098 628 1055 697 1036 c 1
 1005 1036 l 1
 1005 719 l 2
 1005 586 898 478 772 478 c 2
 668 478 l 1
 668 673 l 1
 743 673 l 2
 766 673 782 709 782 758 c 2
 782 840 l 1
 668 840 l 1
 632 820 614 793 614 758 c 2
 614 297 l 2
 614 242 654 198 697 198 c 2
 882 198 l 2
 953 198 1022 259 1029 337 c 1
 1029 506 l 1
 1256 506 l 1
 1256 337 l 1
 1279 242 1336 200 1390 200 c 2
 1578 200 l 2
 1645 200 1670 267 1670 309 c 2
 1670 647 l 2
 1670 699 1616 731 1558 731 c 2
 1419 731 l 1
 1419 925 l 1
 1531 925 l 2
 1590 925 1642 983 1642 1063 c 2
 1642 1108 l 2
 1642 1155 1608 1204 1547 1204 c 2
 1364 1204 l 1
 1364 1398 l 1
 1636 1398 l 1
 1765 1385 1865 1273 1865 1120 c 2
 1865 997 l 2
 1865 940 1838 873 1744 840 c 1
EndSplineSet
EndChar

StartChar: tta.imathra
Encoding: 161 -1 161
Width: 1831
VWidth: 2047
Flags: HW
LayerCount: 2
Fore
SplineSet
1729 844 m 1
 1818 844 1893 768 1893 666 c 2
 1893 230 l 2
 1893 108 1816 6 1700 6 c 1
 1695 1 l 1
 1330 1 l 2
 1233 1 1161 82 1137 170 c 1
 1115 77 1033 1 929 1 c 2
 640 1 l 2
 497 1 388 112 388 252 c 2
 388 782 l 2
 388 838 435 893 529 949 c 1
 435 1006 389 1090 389 1142 c 2
 389 1358 l 2
 389 1495 489 1593 595 1593 c 2
 835 1593 l 1
 835 1396 l 1
 652 1396 l 2
 624 1396 583 1374 583 1312 c 2
 583 1173 l 2
 583 1109 634 1048 695 1035 c 1
 1003 1035 l 1
 1003 716 l 2
 1003 588 899 476 764 476 c 2
 666 476 l 1
 666 670 l 1
 705 670 l 2
 744 670 778 710 778 755 c 2
 778 838 l 1
 695 838 l 2
 641 838 612 793 612 762 c 2
 612 311 l 2
 612 253 656 202 706 202 c 2
 904 202 l 2
 954 202 1017 245 1029 339 c 1
 1029 508 l 1
 1256 508 l 1
 1256 339 l 1
 1279 244 1336 203 1390 203 c 2
 1543 203 l 2
 1637 203 1671 269 1671 311 c 2
 1671 649 l 2
 1671 701 1633 733 1589 733 c 2
 1420 733 l 1
 1420 927 l 1
 1533 927 l 2
 1594 927 1644 971 1644 1026 c 2
 1644 1364 l 2
 1644 1398 1628 1430 1603 1430 c 2
 1490 1430 l 2
 1464 1430 1451 1420 1451 1402 c 2
 1451 1372 l 1
 1453 1343 1483 1319 1504 1319 c 2
 1590 1319 l 1
 1590 1125 l 1
 1404 1125 l 2
 1305 1125 1227 1202 1227 1291 c 2
 1227 1449 l 2
 1227 1549 1320 1626 1420 1626 c 2
 1656 1626 l 2
 1770 1626 1865 1546 1865 1432 c 2
 1865 1097 l 2
 1865 979 1812 867 1729 844 c 1
EndSplineSet
LCarets2: 1 0
EndChar

StartChar: tta.sub
Encoding: 162 -1 162
Width: 330
VWidth: 2047
Flags: HW
AnchorPoint: "Sub" -593 320 mark 0
AnchorPoint: "Sub" 644 -834 basemark 0
LayerCount: 2
Fore
SplineSet
527 -262 m 1
 600 -281 664 -345 664 -427 c 2
 665 -695 l 2
 665 -774 602 -834 511 -834 c 2
 220 -834 l 2
 128 -834 54 -771 54 -705 c 1
 24 -792 -55 -834 -115 -834 c 2
 -397 -834 l 1
 -397 -839 l 1
 -533 -839 -646 -748 -646 -627 c 2
 -646 -403 l 2
 -646 -285 -552 -196 -439 -196 c 2
 -115 -196 l 1
 -115 -532 l 1
 -309 -532 l 1
 -309 -393 l 1
 -366 -393 l 2
 -412 -393 -448 -416 -448 -448 c 2
 -448 -571 l 2
 -448 -630 -400 -669 -337 -669 c 2
 -159 -669 l 2
 -97 -669 -49 -625 -49 -559 c 2
 -49 -476 l 1
 150 -476 l 1
 150 -559 l 2
 150 -621 192 -669 248 -669 c 2
 389 -669 l 2
 432 -669 472 -648 472 -616 c 2
 472 -403 l 2
 472 -361 394 -349 344 -349 c 2
 221 -349 l 1
 221 -183 l 1
 333 -183 l 2
 399 -183 454 -131 454 -69 c 2
 454 165 l 2
 454 246 352 286 352 311 c 1
 355 316 357 318 358 319 c 2
 442 442 l 1
 563 371 649 279 649 170 c 2
 649 -57 l 2
 649 -167 594 -242 527 -262 c 1
EndSplineSet
LCarets2: 1 0
EndChar

StartChar: ttha.base
Encoding: 164 -1 164
Width: 1258
VWidth: 2047
Flags: HW
LayerCount: 2
Fore
SplineSet
1317 1371 m 1
 1482 1256 1605 1071 1605 870 c 2
 1604 325 l 2
 1604 147 1451 1 1264 1 c 2
 724 1 l 2
 526 1 372 147 372 326 c 2
 372 870 l 2
 372 1000 429 1111 541 1203 c 1
 402 1203 l 1
 402 1398 l 1
 1317 1398 l 1
 1317 1371 l 1
1242 196 m 2
 1322 196 1381 255 1378 335 c 1
 1378 870 l 2
 1378 1020 1278 1142 1185 1203 c 1
 792 1203 l 1
 687 1141 598 1022 598 870 c 2
 598 335 l 2
 598 259 658 196 739 196 c 2
 1242 196 l 2
1115 559 m 1
 888 559 l 1
 888 782 l 1
 1115 782 l 1
 1115 559 l 1
EndSplineSet
EndChar

StartChar: ttha.imathra
Encoding: 165 -1 165
Width: 1538
VWidth: 2047
Flags: HW
LayerCount: 2
Fore
SplineSet
382 1621 m 2
 382 1747 501 1848 644 1848 c 2
 838 1848 l 2
 925 1848 1000 1815 1062 1750 c 1
 1329 1527 1610 1230 1610 998 c 2
 1608 335 l 2
 1608 121 1485 3 1385 3 c 2
 715 3 l 2
 540 3 382 147 382 336 c 2
 382 982 l 2
 382 1087 436 1185 546 1276 c 1
 472 1315 382 1387 382 1498 c 2
 382 1621 l 2
693 1651 m 2
 652 1651 609 1620 609 1586 c 2
 609 1500 l 2
 609 1452 637 1419 693 1401 c 1
 1142 1400 l 1
 978 1569 l 2
 925 1624 877 1651 832 1651 c 2
 693 1651 l 2
1260 199 m 2
 1332 199 1385 258 1386 337 c 1
 1386 983 l 2
 1386 1056 1354 1130 1288 1205 c 1
 746 1205 l 1
 652 1112 605 1037 605 983 c 2
 605 366 l 2
 605 281 664 199 746 199 c 2
 1260 199 l 2
1117 562 m 1
 890 562 l 1
 890 785 l 1
 1117 785 l 1
 1117 562 l 1
EndSplineSet
LCarets2: 1 0
EndChar

StartChar: ttha.sub
Encoding: 166 -1 166
Width: 201
VWidth: 2047
Flags: HW
AnchorPoint: "Sub" -400 -70 mark 0
AnchorPoint: "Sub" 398 -819 basemark 0
LayerCount: 2
Fore
SplineSet
107 -59 m 2
 279 -59 415 -180 415 -336 c 2
 416 -588 l 2
 416 -731 304 -839 164 -839 c 2
 -116 -839 l 2
 -275 -839 -397 -721 -397 -599 c 2
 -397 -319 l 2
 -397 -172 -264 -59 -106 -59 c 2
 107 -59 l 2
77 -670 m 2
 154 -670 216 -612 217 -542 c 1
 217 -365 l 2
 217 -292 151 -226 52 -226 c 2
 -78 -226 l 2
 -148 -226 -200 -297 -200 -365 c 2
 -200 -542 l 2
 -200 -605 -144 -670 -62 -670 c 2
 77 -670 l 2
116 -533 m 1
 -108 -533 l 1
 -108 -365 l 1
 116 -365 l 1
 116 -533 l 1
EndSplineSet
LCarets2: 1 0
EndChar

StartChar: dda.base
Encoding: 168 -1 168
Width: 1533
VWidth: 2047
Flags: HW
LayerCount: 2
Fore
SplineSet
1599 1358 m 1
 1820 1276 1877 1081 1877 979 c 2
 1877 885 l 2
 1877 817 1849 761 1793 716 c 1
 1849 671 1877 610 1877 532 c 1
 1871 240 l 1
 1871 100 1755 0 1636 0 c 2
 1313 0 l 2
 1219 0 1136 68 1119 158 c 1
 1094 58 1014 0 942 0 c 2
 635 0 l 2
 506 0 397 101 397 223 c 2
 397 911 l 2
 397 1043 501 1148 590 1201 c 1
 396 1201 l 1
 396 1396 l 1
 1599 1396 l 1
 1599 1358 l 1
1642 716 m 1
 1622 779 1584 810 1530 810 c 2
 1476 810 l 2
 1446 810 1431 801 1431 781 c 2
 1431 698 l 2
 1431 680 1464 670 1531 670 c 0
 1552 670 1590 686 1642 716 c 1
1540 194 m 2
 1604 194 1652 248 1653 305 c 1
 1653 532 l 1
 1585 482 l 1
 1570 477 l 1
 1419 477 l 2
 1315 477 1238 548 1238 633 c 2
 1238 811 l 2
 1238 901 1305 980 1391 980 c 2
 1533 980 l 2
 1581 980 1622 957 1655 912 c 1
 1655 980 l 2
 1655 1068 1580 1166 1432 1201 c 1
 874 1201 l 1
 770 1152 620 1048 620 894 c 2
 620 303 l 2
 620 251 665 194 732 194 c 2
 889 194 l 2
 961 194 1012 257 1012 322 c 2
 1012 390 l 1
 1236 390 l 1
 1236 303 l 2
 1236 245 1283 194 1346 194 c 2
 1540 194 l 2
EndSplineSet
EndChar

StartChar: dda.imathra
Encoding: 169 -1 169
Width: 1843
VWidth: 2047
Flags: HW
LayerCount: 2
Fore
SplineSet
395 1611 m 2
 395 1736 493 1846 616 1846 c 2
 1133 1846 l 2
 1194 1846 1245 1819 1285 1795 c 1
 1374 1737 1499 1632 1660 1399 c 1
 1821 1172 1902 1014 1902 924 c 2
 1902 859 l 2
 1902 817 1878 774 1830 729 c 1
 1878 684 1902 634 1902 578 c 2
 1898 212 l 2
 1898 95 1816 2 1716 2 c 2
 1265 2 l 2
 1198 2 1135 53 1118 130 c 1
 1106 49 1033 2 962 2 c 2
 645 2 l 2
 502 2 393 113 393 253 c 2
 393 914 l 2
 393 1037 488 1152 588 1221 c 1
 471 1277 395 1378 395 1483 c 2
 395 1611 l 2
721 1657 m 2
 651 1657 609 1624 609 1593 c 2
 609 1519 l 2
 609 1472 631 1434 676 1408 c 1
 1419 1407 l 1
 1270 1584 1152 1657 1085 1657 c 2
 721 1657 l 2
1683 738 m 1
 1637 793 1607 821 1591 821 c 2
 1490 821 l 2
 1464 821 1451 808 1451 780 c 2
 1451 708 l 2
 1451 672 1464 654 1490 654 c 2
 1566 654 l 2
 1618 654 1658 682 1683 738 c 1
1618 199 m 2
 1654 199 1674 237 1679 286 c 1
 1679 552 l 1
 1627 505 1593 480 1580 480 c 2
 1439 480 l 2
 1340 480 1262 561 1262 649 c 2
 1262 815 l 2
 1262 907 1328 983 1411 983 c 2
 1579 983 l 1
 1590 982 1600 976 1608 968 c 2
 1677 890 l 1
 1677 944 l 1
 1666 1030 1619 1117 1537 1205 c 1
 868 1205 l 1
 824 1175 615 1033 615 903 c 2
 615 334 l 2
 615 266 664 206 710 206 c 1
 710 200 l 1
 896 200 l 2
 953 200 1008 236 1008 285 c 2
 1008 451 l 1
 1231 451 l 1
 1231 301 l 2
 1231 237 1280 199 1324 199 c 2
 1618 199 l 2
EndSplineSet
LCarets2: 1 0
EndChar

StartChar: dda.sub
Encoding: 170 -1 170
Width: 363
VWidth: 2047
Flags: HW
AnchorPoint: "Sub" -751 -136 mark 0
AnchorPoint: "Sub" 742 -817 basemark 0
LayerCount: 2
Fore
SplineSet
572 -363 m 1
 669 -363 739 -423 739 -514 c 2
 740 -628 l 2
 740 -729 662 -811 572 -811 c 2
 235 -811 l 2
 146 -811 57 -740 -34 -599 c 1
 -102 -724 -216 -810 -338 -810 c 2
 -519 -810 l 2
 -626 -810 -712 -707 -712 -587 c 2
 -712 -403 l 2
 -712 -282 -483 -112 -322 -112 c 2
 237 -112 l 2
 414 -112 572 -217 572 -363 c 1
469 -643 m 2
 515 -643 538 -618 541 -597 c 1
 541 -540 l 2
 541 -515 528 -503 500 -503 c 2
 180 -503 l 1
 180 -363 l 1
 375 -363 l 1
 375 -321 320 -282 224 -282 c 2
 -293 -282 l 2
 -385 -282 -514 -379 -514 -426 c 2
 -514 -557 l 2
 -514 -593 -480 -625 -448 -625 c 2
 -352 -625 l 2
 -251 -625 -163 -553 -101 -445 c 1
 65 -445 l 1
 113 -537 201 -643 291 -643 c 2
 469 -643 l 2
EndSplineSet
LCarets2: 1 0
EndChar

StartChar: ddha.base
Encoding: 172 -1 172
Width: 1533
VWidth: 2047
Flags: HW
LayerCount: 2
Fore
SplineSet
1599 1358 m 1
 1820 1276 1877 1081 1877 979 c 2
 1877 885 l 2
 1877 817 1849 761 1793 716 c 1
 1849 671 1877 610 1877 532 c 1
 1871 240 l 1
 1871 100 1755 0 1636 0 c 2
 1313 0 l 2
 1219 0 1136 68 1119 158 c 1
 1094 58 1014 0 942 0 c 2
 635 0 l 2
 506 0 397 101 397 223 c 2
 397 911 l 2
 397 1043 501 1148 590 1201 c 1
 396 1201 l 1
 396 1396 l 1
 1599 1396 l 1
 1599 1358 l 1
1642 716 m 1
 1622 779 1584 810 1530 810 c 2
 1476 810 l 2
 1446 810 1431 801 1431 781 c 2
 1431 698 l 2
 1431 680 1464 670 1531 670 c 0
 1552 670 1590 686 1642 716 c 1
1540 194 m 2
 1604 194 1652 248 1653 305 c 1
 1653 532 l 1
 1585 482 l 1
 1570 477 l 1
 1419 477 l 2
 1315 477 1238 548 1238 633 c 2
 1238 811 l 2
 1238 901 1305 980 1391 980 c 2
 1533 980 l 2
 1581 980 1622 957 1655 912 c 1
 1655 980 l 2
 1655 1068 1580 1166 1432 1201 c 1
 874 1201 l 1
 770 1152 620 1048 620 894 c 2
 620 303 l 2
 620 251 665 194 732 194 c 2
 889 194 l 2
 961 194 1012 257 1012 322 c 2
 1012 390 l 1
 1236 390 l 1
 1236 303 l 2
 1236 245 1283 194 1346 194 c 2
 1540 194 l 2
1235 -294 m 1
 1012 -294 l 1
 1012 -14 l 1
 1235 -14 l 1
 1235 -294 l 1
EndSplineSet
EndChar

StartChar: ddha.imathra
Encoding: 173 -1 173
Width: 1843
VWidth: 2047
Flags: HW
LayerCount: 2
Fore
SplineSet
395 1611 m 2
 395 1736 493 1846 616 1846 c 2
 1133 1846 l 2
 1194 1846 1245 1819 1285 1795 c 1
 1374 1737 1499 1632 1660 1399 c 1
 1821 1172 1902 1014 1902 924 c 2
 1902 859 l 2
 1902 817 1878 774 1830 729 c 1
 1878 684 1902 634 1902 578 c 2
 1898 212 l 2
 1898 95 1816 2 1716 2 c 2
 1265 2 l 2
 1198 2 1135 53 1118 130 c 1
 1106 49 1033 2 962 2 c 2
 645 2 l 2
 502 2 393 113 393 253 c 2
 393 914 l 2
 393 1037 488 1152 588 1221 c 1
 471 1277 395 1378 395 1483 c 2
 395 1611 l 2
721 1657 m 2
 651 1657 609 1624 609 1593 c 2
 609 1519 l 2
 609 1472 631 1434 676 1408 c 1
 1419 1407 l 1
 1270 1584 1152 1657 1085 1657 c 2
 721 1657 l 2
1683 738 m 1
 1637 793 1607 821 1591 821 c 2
 1490 821 l 2
 1464 821 1451 808 1451 780 c 2
 1451 708 l 2
 1451 672 1464 654 1490 654 c 2
 1566 654 l 2
 1618 654 1658 682 1683 738 c 1
1618 199 m 2
 1654 199 1674 237 1679 286 c 1
 1679 552 l 1
 1627 505 1593 480 1580 480 c 2
 1439 480 l 2
 1340 480 1262 561 1262 649 c 2
 1262 815 l 2
 1262 907 1328 983 1411 983 c 2
 1579 983 l 1
 1590 982 1600 976 1608 968 c 2
 1677 890 l 1
 1677 944 l 1
 1666 1030 1619 1117 1537 1205 c 1
 868 1205 l 1
 824 1175 615 1033 615 903 c 2
 615 334 l 2
 615 266 664 206 710 206 c 1
 710 200 l 1
 896 200 l 2
 953 200 1008 236 1008 285 c 2
 1008 451 l 1
 1231 451 l 1
 1231 301 l 2
 1231 237 1280 199 1324 199 c 2
 1618 199 l 2
1228 -288 m 1
 1005 -288 l 1
 1005 -8 l 1
 1228 -8 l 1
 1228 -288 l 1
EndSplineSet
LCarets2: 1 0
EndChar

StartChar: ddha.sub
Encoding: 174 -1 174
Width: 363
VWidth: 2047
Flags: HW
AnchorPoint: "Sub" -732 -139 mark 0
AnchorPoint: "Sub" 728 -777 basemark 0
LayerCount: 2
Fore
SplineSet
572 -362 m 1
 669 -362 739 -422 739 -513 c 2
 740 -628 l 2
 740 -710 665 -781 572 -781 c 2
 235 -781 l 2
 152 -781 63 -720 -34 -598 c 1
 -128 -746 -256 -809 -338 -809 c 2
 -519 -809 l 2
 -626 -809 -712 -705 -712 -585 c 2
 -712 -402 l 2
 -712 -281 -483 -111 -322 -111 c 2
 237 -111 l 2
 414 -111 572 -216 572 -362 c 1
70 -837 m 1
 -124 -837 l 1
 -124 -754 l 1
 -31 -680 l 1
 70 -754 l 1
 70 -837 l 1
468 -643 m 2
 514 -643 537 -618 540 -597 c 1
 540 -540 l 2
 540 -515 526 -503 498 -503 c 2
 179 -503 l 1
 179 -363 l 1
 374 -363 l 1
 374 -321 319 -282 223 -282 c 2
 -294 -282 l 2
 -386 -282 -515 -379 -515 -426 c 2
 -515 -557 l 2
 -515 -593 -481 -625 -449 -625 c 2
 -353 -625 l 2
 -252 -625 -164 -553 -102 -445 c 1
 64 -445 l 1
 112 -537 200 -643 290 -643 c 2
 468 -643 l 2
EndSplineSet
LCarets2: 1 0
EndChar

StartChar: nna
Encoding: 175 3235 175
Width: 1961
VWidth: 2047
Flags: HW
LayerCount: 2
Fore
SplineSet
1731 1402 m 2
 1885 1402 2012 1283 2012 1114 c 2
 2016 269 l 2
 2016 123 1904 0 1764 0 c 2
 1346 0 l 1
 1346 353 l 2
 1346 483 1430 587 1529 587 c 2
 1679 587 l 1
 1679 392 l 1
 1641 392 l 2
 1599 392 1571 359 1571 326 c 2
 1571 197 l 1
 1699 197 l 2
 1754 197 1791 260 1791 326 c 2
 1791 1110 l 2
 1791 1166 1740 1204 1679 1204 c 2
 1417 1204 l 2
 1353 1204 1289 1166 1289 1111 c 2
 1289 983 l 1
 1066 983 l 1
 1066 1111 l 2
 1066 1169 1009 1205 943 1205 c 2
 690 1205 l 2
 634 1205 590 1165 590 1113 c 2
 590 873 l 2
 590 786 648 731 700 731 c 2
 841 731 l 1
 841 537 l 1
 690 537 l 2
 627 537 590 490 590 441 c 2
 590 303 l 2
 590 245 636 202 690 202 c 2
 982 202 l 1
 982 6 l 1
 606 6 l 2
 476 6 366 101 366 217 c 2
 366 470 l 2
 366 542 450 613 533 649 c 1
 443 682 365 767 365 872 c 2
 365 1166 l 2
 365 1295 474 1401 617 1401 c 2
 967 1401 l 2
 1081 1401 1158 1344 1174 1279 c 1
 1215 1361 1290 1402 1397 1402 c 2
 1731 1402 l 2
EndSplineSet
LCarets2: 1 0
EndChar

StartChar: nna.base
Encoding: 176 -1 176
Width: 1467
VWidth: 2047
Flags: HW
LayerCount: 2
Fore
SplineSet
1529 1204 m 1
 410 1204 l 1
 410 1399 l 1
 1529 1399 l 1
 1529 1204 l 1
1512 1089 m 2
 1691 1089 1810 948 1810 780 c 2
 1809 240 l 2
 1809 112 1727 0 1614 0 c 2
 1193 0 l 1
 1193 298 l 2
 1193 442 1303 558 1429 558 c 2
 1529 558 l 1
 1529 363 l 1
 1500 363 l 2
 1460 363 1417 330 1417 282 c 2
 1417 196 l 1
 1529 196 l 2
 1579 196 1613 246 1613 305 c 2
 1613 782 l 2
 1613 843 1553 895 1474 895 c 2
 1277 895 l 2
 1229 895 1194 842 1194 782 c 2
 1194 728 l 1
 970 728 l 1
 970 811 l 2
 970 860 941 894 890 894 c 2
 693 894 l 2
 649 894 609 859 609 810 c 2
 609 698 l 2
 609 667 653 633 703 633 c 2
 777 633 l 1
 777 418 l 1
 703 418 l 2
 655 418 609 380 609 326 c 2
 609 253 l 2
 609 205 665 172 721 172 c 2
 916 172 l 1
 916 3 l 1
 580 3 l 2
 466 3 387 91 387 172 c 2
 387 355 l 2
 387 434 445 498 509 524 c 1
 448 542 387 589 387 659 c 2
 387 896 l 2
 387 1011 494 1090 623 1090 c 2
 946 1090 l 2
 1012 1090 1058 1063 1084 1008 c 1
 1106 1056 1173 1089 1251 1089 c 2
 1512 1089 l 2
EndSplineSet
EndChar

StartChar: nna.imathra
Encoding: 177 -1 177
Width: 1961
VWidth: 2047
Flags: HW
LayerCount: 2
Fore
SplineSet
1804 1372 m 1
 1929 1350 2010 1246 2010 1111 c 2
 2016 269 l 1
 2016 123 1904 0 1764 0 c 2
 1346 0 l 1
 1346 353 l 2
 1346 483 1430 587 1529 587 c 2
 1679 587 l 1
 1679 392 l 1
 1641 392 l 2
 1613 392 1571 370 1571 307 c 2
 1571 197 l 1
 1699 197 l 2
 1754 197 1791 260 1791 326 c 2
 1791 1092 l 2
 1791 1158 1737 1203 1679 1203 c 2
 1417 1203 l 2
 1349 1203 1289 1149 1289 1092 c 2
 1289 982 l 1
 1066 982 l 1
 1066 1092 l 2
 1066 1153 1013 1203 943 1203 c 2
 719 1203 l 2
 653 1203 591 1144 591 1081 c 2
 591 871 l 2
 591 784 649 729 701 729 c 2
 842 729 l 1
 842 535 l 1
 701 535 l 2
 623 535 592 467 592 421 c 2
 592 301 l 2
 592 243 639 199 693 199 c 2
 984 199 l 1
 984 4 l 1
 608 4 l 2
 478 4 368 99 368 215 c 2
 368 468 l 2
 368 540 453 611 536 647 c 1
 446 680 367 765 367 870 c 2
 367 1163 l 2
 367 1292 476 1399 619 1399 c 2
 969 1399 l 2
 1083 1399 1160 1342 1176 1277 c 1
 1202 1342 1262 1400 1344 1400 c 2
 1583 1400 l 2
 1640 1400 1675 1458 1675 1528 c 2
 1675 1667 l 2
 1675 1743 1636 1762 1611 1762 c 2
 1498 1762 l 2
 1450 1762 1426 1740 1426 1725 c 1
 1429 1699 1450 1678 1482 1678 c 2
 1565 1678 l 1
 1565 1499 l 1
 1397 1499 l 2
 1303 1499 1231 1568 1231 1650 c 2
 1231 1807 l 2
 1231 1882 1299 1958 1397 1958 c 2
 1695 1958 l 2
 1802 1958 1897 1881 1897 1762 c 2
 1897 1509 l 2
 1897 1451 1866 1405 1804 1372 c 1
EndSplineSet
LCarets2: 1 0
EndChar

StartChar: nna.sub
Encoding: 178 -1 178
Width: 353
VWidth: 2047
Flags: HW
AnchorPoint: "Sub" -697 -73 mark 0
AnchorPoint: "Sub" 710 -811 basemark 0
LayerCount: 2
Fore
SplineSet
449 -83 m 2
 611 -83 718 -209 718 -361 c 1
 722 -646 l 1
 722 -752 622 -840 501 -840 c 2
 108 -840 l 1
 108 -600 l 1
 152 -488 261 -407 369 -379 c 1
 441 -535 l 1
 324 -573 301 -608 301 -626 c 2
 301 -668 l 1
 452 -668 l 2
 496 -668 525 -629 525 -585 c 2
 525 -375 l 2
 525 -301 466 -251 398 -251 c 2
 217 -251 l 2
 154 -251 89 -320 89 -417 c 1
 -106 -417 l 1
 -106 -323 -155 -251 -216 -251 c 2
 -440 -251 l 2
 -485 -251 -508 -261 -508 -281 c 2
 -508 -334 l 1
 -507 -356 -479 -374 -451 -374 c 2
 -257 -374 l 1
 -257 -539 l 1
 -451 -539 l 2
 -472 -539 -508 -547 -508 -583 c 2
 -508 -641 l 1
 -507 -657 -484 -665 -441 -665 c 2
 -146 -665 l 1
 -146 -834 l 1
 -538 -834 l 2
 -627 -834 -703 -781 -703 -721 c 2
 -703 -582 l 2
 -703 -542 -676 -505 -622 -472 c 1
 -676 -431 -703 -398 -703 -373 c 2
 -703 -249 l 2
 -703 -152 -618 -83 -509 -83 c 2
 -217 -83 l 2
 -93 -83 -22 -150 -6 -221 c 1
 16 -153 65 -83 172 -83 c 2
 449 -83 l 2
EndSplineSet
LCarets2: 1 0
EndChar

StartChar: ta.base
Encoding: 180 -1 180
Width: 1258
VWidth: 2047
Flags: HW
LayerCount: 2
Fore
SplineSet
1259 1396 m 2
 1441 1396 1596 1273 1596 1119 c 2
 1596 966 l 2
 1596 912 1559 847 1484 772 c 1
 1559 712 1596 640 1596 554 c 2
 1597 276 l 2
 1597 132 1470 6 1288 6 c 2
 560 6 l 1
 565 1 l 1
 412 1 287 115 287 252 c 2
 287 728 l 1
 511 728 l 1
 511 299 l 2
 511 239 560 197 603 197 c 2
 1237 197 l 2
 1320 197 1373 255 1373 307 c 2
 1373 576 l 2
 1373 617 1365 645 1349 658 c 1
 1261 592 1199 559 1163 559 c 2
 887 559 l 2
 773 559 679 645 679 746 c 2
 679 895 l 2
 679 988 769 1062 875 1062 c 2
 1154 1062 l 2
 1209 1062 1267 1024 1327 949 c 1
 1372 1020 l 1
 1372 1118 l 2
 1372 1166 1319 1201 1259 1201 c 2
 307 1201 l 1
 307 1396 l 1
 1259 1396 l 2
872 807 m 2
 872 775 911 765 924 765 c 2
 1121 765 l 2
 1159 765 1196 783 1232 818 c 1
 1209 855 1167 874 1104 874 c 2
 935 874 l 2
 905 874 872 860 872 835 c 2
 872 807 l 2
EndSplineSet
EndChar

StartChar: ta.imathra
Encoding: 181 -1 181
Width: 1545
VWidth: 2047
Flags: HW
LayerCount: 2
Fore
SplineSet
1350 1617 m 2
 1488 1617 1601 1508 1601 1358 c 2
 1601 1049 l 2
 1601 978 1554 895 1460 798 c 1
 1554 721 1601 637 1601 546 c 2
 1604 269 l 1
 1604 123 1491 0 1351 0 c 2
 511 0 l 2
 388 0 288 112 288 251 c 2
 288 727 l 1
 512 727 l 1
 512 325 l 2
 512 261 556 196 610 196 c 2
 1238 196 l 2
 1321 196 1376 258 1376 335 c 2
 1376 547 l 2
 1376 593 1357 630 1321 658 c 1
 1265 592 1216 559 1171 559 c 2
 894 559 l 2
 772 559 680 643 680 745 c 2
 680 894 l 2
 680 987 770 1061 876 1061 c 2
 1155 1061 l 2
 1218 1061 1280 1023 1340 948 c 1
 1365 983 1377 1006 1377 1019 c 2
 1377 1311 l 2
 1377 1376 1344 1423 1294 1423 c 2
 1100 1423 l 2
 1080 1423 1070 1410 1070 1382 c 2
 1070 1358 l 1
 1073 1338 1092 1313 1126 1313 c 2
 1262 1313 l 1
 1262 1144 l 1
 1040 1144 l 2
 951 1144 875 1228 875 1312 c 2
 875 1454 l 2
 875 1545 932 1617 1015 1617 c 2
 1350 1617 l 2
874 799 m 2
 874 775 900 757 928 757 c 2
 1097 757 l 2
 1154 757 1201 775 1237 810 c 1
 1214 848 1164 868 1086 868 c 2
 945 868 l 2
 898 868 874 854 874 826 c 2
 874 799 l 2
EndSplineSet
LCarets2: 1 0
EndChar

StartChar: ta.sub
Encoding: 182 -1 182
Width: 298
VWidth: 2047
Flags: HW
AnchorPoint: "Sub" -615 -138 mark 0
AnchorPoint: "Sub" 583 -706 basemark 0
LayerCount: 2
Fore
SplineSet
80 -320 m 2
 80 -195 183 -112 301 -112 c 2
 610 -112 l 1
 610 -487 l 2
 610 -616 502 -727 358 -727 c 2
 -593 -727 l 1
 -593 -541 l 1
 287 -541 l 2
 359 -541 415 -508 415 -459 c 2
 415 -294 l 1
 357 -294 l 2
 313 -294 277 -325 277 -378 c 2
 277 -449 l 1
 80 -449 l 1
 80 -320 l 2
EndSplineSet
LCarets2: 1 0
EndChar

StartChar: ta_ya.sub
Encoding: 183 -1 183
Width: 510
VWidth: 2047
Flags: HW
LayerCount: 2
Fore
SplineSet
-211 -835 m 2
 -290 -835 -361 -779 -361 -695 c 2
 -361 -624 l 2
 -361 -575 -341 -534 -304 -501 c 1
 -110 -361 l 1
 -74 -331 -56 -307 -56 -291 c 0
 -56 -265 -65 -251 -83 -251 c 2
 -157 -251 l 2
 -180 -251 -192 -265 -192 -291 c 2
 -192 -333 l 1
 -846 -331 l 1
 -846 -174 l 1
 -375 -175 l 1
 -365 -150 -323 -86 -237 -86 c 2
 -14 -86 l 2
 85 -86 144 -159 144 -234 c 2
 144 -318 l 2
 144 -360 115 -404 58 -447 c 1
 -109 -558 l 2
 -146 -583 -165 -606 -165 -626 c 2
 -165 -643 l 1
 -164 -659 -155 -667 -139 -667 c 2
 308 -667 l 2
 350 -667 365 -617 365 -568 c 2
 365 -316 l 2
 365 -232 346 -177 308 -151 c 1
 172 -10 l 1
 115 41 86 82 86 112 c 2
 86 336 l 2
 86 429 166 505 255 505 c 2
 535 505 l 2
 616 505 671 440 671 365 c 2
 671 197 l 1
 476 197 l 1
 476 283 l 2
 476 318 462 336 432 336 c 2
 337 336 l 1
 306 334 283 315 283 284 c 2
 283 172 l 2
 283 139 296 111 321 88 c 1
 460 -54 l 1
 527 -103 561 -168 561 -248 c 2
 561 -642 l 2
 561 -753 472 -835 378 -835 c 2
 -211 -835 l 2
EndSplineSet
EndChar

StartChar: ta_va.sub
Encoding: 184 -1 184
Width: 510
VWidth: 2047
Flags: HW
LayerCount: 2
Fore
SplineSet
327 -713 m 1
 319 -732 251 -840 159 -840 c 0
 151 -840 146 -840 143 -839 c 2
 -208 -840 l 2
 -287 -840 -357 -784 -357 -700 c 2
 -357 -629 l 2
 -357 -580 -338 -539 -301 -506 c 1
 -107 -366 l 1
 -71 -336 -53 -312 -53 -296 c 0
 -53 -270 -62 -257 -80 -257 c 2
 -154 -257 l 2
 -177 -257 -189 -270 -189 -296 c 2
 -189 -338 l 1
 -843 -337 l 1
 -843 -179 l 1
 -377 -179 l 1
 -367 -154 -324 -90 -238 -90 c 2
 -15 -90 l 2
 84 -90 143 -164 143 -239 c 2
 143 -322 l 2
 143 -364 114 -408 57 -451 c 1
 -110 -562 l 2
 -147 -587 -167 -610 -167 -630 c 2
 -167 -647 l 1
 -166 -663 -156 -671 -140 -671 c 2
 75 -671 l 2
 156 -671 215 -612 215 -543 c 2
 215 -478 l 1
 439 -478 l 1
 439 -561 l 2
 439 -620 475 -670 521 -670 c 2
 692 -670 l 2
 726 -670 746 -640 746 -616 c 2
 746 -503 l 1
 742 -455 708 -449 693 -449 c 2
 554 -449 l 1
 554 -281 l 1
 675 -281 l 2
 718 -281 746 -246 746 -210 c 2
 746 -16 l 1
 943 -16 l 1
 943 -228 l 2
 943 -279 914 -326 857 -368 c 1
 914 -393 943 -433 943 -489 c 2
 943 -672 l 2
 943 -766 878 -841 804 -841 c 2
 492 -841 l 2
 422 -841 367 -799 327 -713 c 1
EndSplineSet
EndChar

StartChar: ta_rvocalicmatra.sub
Encoding: 185 -1 185
Width: 286
VWidth: 2047
Flags: HW
LayerCount: 2
Fore
SplineSet
281 -645 m 2
 326 -645 380 -603 380 -532 c 2
 380 -40 l 1
 158 128 l 1
 281 297 l 1
 575 57 l 1
 576 -628 l 2
 576 -743 514 -840 410 -840 c 2
 -84 -840 l 2
 -194 -840 -291 -739 -291 -617 c 2
 -291 -533 l 1
 -570 -533 l 1
 -570 -336 l 1
 -291 -336 l 1
 -291 -209 l 2
 -291 -125 -229 -60 -153 -60 c 2
 30 -60 l 2
 142 -60 211 -136 211 -210 c 2
 211 -405 l 2
 211 -477 155 -533 84 -533 c 2
 -95 -533 l 1
 -95 -572 l 2
 -95 -611 -61 -645 -31 -645 c 2
 281 -645 l 2
29 -319 m 2
 29 -293 l 2
 29 -267 19 -253 -1 -253 c 2
 -58 -253 l 2
 -83 -253 -95 -263 -95 -283 c 2
 -95 -336 l 1
 -1 -336 l 2
 19 -336 29 -330 29 -319 c 2
EndSplineSet
EndChar

StartChar: ta_ailengthmark.sub
Encoding: 186 -1 186
Width: 393
VWidth: 2047
Flags: HW
LayerCount: 2
Fore
SplineSet
659 -148 m 1
 732 -178 787 -249 787 -342 c 2
 788 -554 l 2
 788 -716 671 -834 523 -834 c 2
 -65 -834 l 1
 -65 -839 l 1
 -218 -839 -330 -706 -330 -559 c 1
 -774 -559 l 1
 -774 -364 l 1
 -356 -364 l 1
 -356 -307 l 2
 -356 -171 -246 -59 -107 -59 c 2
 35 -59 l 2
 144 -59 229 -127 229 -225 c 2
 229 -404 l 2
 229 -479 164 -559 60 -559 c 2
 -107 -559 l 1
 -107 -603 -59 -644 -13 -644 c 2
 452 -644 l 2
 515 -644 564 -597 564 -541 c 2
 564 -364 l 2
 564 -325 547 -253 480 -253 c 2
 312 -253 l 1
 312 -59 l 1
 465 -59 l 2
 543 -59 593 12 593 69 c 2
 593 279 l 2
 593 344 541 361 510 361 c 2
 399 361 l 1
 399 556 l 1
 575 556 l 2
 695 556 787 448 787 302 c 2
 787 68 l 2
 787 -33 727 -107 659 -148 c 1
-39 -221 m 2
 -80 -221 -104 -252 -104 -278 c 2
 -104 -360 l 1
 -21 -360 l 2
 18 -360 36 -350 35 -332 c 1
 35 -278 l 2
 35 -254 24 -221 -23 -221 c 2
 -39 -221 l 2
EndSplineSet
EndChar

StartChar: tha.base
Encoding: 188 -1 188
Width: 1493
VWidth: 2047
Flags: HW
LayerCount: 2
Fore
SplineSet
390 810 m 2
 390 964 483 1101 596 1194 c 1
 418 1194 l 1
 418 1389 l 1
 1558 1389 l 1
 1618 1194 l 1
 1815 1036 1844 882 1844 804 c 2
 1843 246 l 2
 1843 103 1746 -5 1630 -5 c 2
 1283 -5 l 2
 1207 -5 1136 53 1117 122 c 1
 1085 43 1015 -6 948 -6 c 2
 613 -6 l 1
 613 -1 l 1
 495 -1 390 106 390 239 c 2
 390 810 l 2
1506 187 m 2
 1560 187 1615 235 1617 330 c 1
 1617 804 l 2
 1617 958 1480 1095 1313 1188 c 1
 903 1188 l 1
 740 1110 614 965 614 816 c 2
 614 296 l 2
 614 230 655 182 698 182 c 2
 877 187 l 1
 951 187 1005 240 1005 299 c 2
 1005 413 l 1
 1229 413 l 1
 1229 290 l 2
 1229 237 1278 187 1352 187 c 2
 1506 187 l 2
1228 -295 m 1
 1005 -295 l 1
 1005 -15 l 1
 1228 -15 l 1
 1228 -295 l 1
1237 613 m 1
 1010 613 l 1
 1010 836 l 1
 1237 836 l 1
 1237 613 l 1
EndSplineSet
EndChar

StartChar: tha.imathra
Encoding: 189 -1 189
Width: 1775
VWidth: 2047
Flags: HW
LayerCount: 2
Fore
SplineSet
392 1632 m 2
 392 1751 479 1840 587 1840 c 2
 1073 1840 l 2
 1157 1840 1228 1803 1286 1728 c 1
 1621 1407 l 2
 1772 1262 1848 1108 1848 944 c 1
 1843 301 l 1
 1843 121 1731 -5 1617 -5 c 2
 1257 -5 l 2
 1174 -5 1104 57 1088 135 c 1
 1066 65 1011 -5 931 -5 c 2
 642 -5 l 1
 642 0 l 1
 502 0 390 117 390 269 c 2
 390 923 l 2
 390 1017 465 1138 613 1286 c 1
 493 1331 392 1409 392 1491 c 2
 392 1632 l 2
712 1643 m 2
 660 1643 617 1606 617 1559 c 2
 617 1521 l 2
 617 1481 655 1438 730 1393 c 1
 1371 1391 l 1
 1132 1605 l 2
 1104 1630 1066 1643 1021 1643 c 2
 712 1643 l 2
1496 190 m 2
 1565 190 1622 238 1623 292 c 1
 1623 945 l 2
 1623 1046 1548 1138 1459 1196 c 1
 853 1196 l 1
 747 1136 619 1029 619 918 c 2
 619 293 l 2
 619 239 668 190 714 190 c 2
 872 190 l 2
 926 190 982 238 982 302 c 2
 982 416 l 1
 1205 416 l 1
 1205 319 l 2
 1205 256 1252 190 1299 190 c 2
 1496 190 l 2
1233 -291 m 1
 1011 -291 l 1
 1011 -11 l 1
 1233 -11 l 1
 1233 -291 l 1
1219 617 m 1
 992 617 l 1
 992 840 l 1
 1219 840 l 1
 1219 617 l 1
EndSplineSet
LCarets2: 1 0
EndChar

StartChar: tha.sub
Encoding: 190 -1 190
Width: 341
VWidth: 2047
Flags: HW
AnchorPoint: "Sub" -778 -49 mark 0
AnchorPoint: "Sub" 655 -832 basemark 0
LayerCount: 2
Fore
SplineSet
-474 -756 m 2
 -581 -756 -669 -678 -669 -599 c 2
 -669 -419 l 2
 -669 -388 -642 -346 -587 -294 c 1
 -295 -87 l 1
 -196 -33 l 1
 235 -33 l 2
 271 -33 305 -51 335 -87 c 1
 597 -308 l 1
 664 -357 698 -408 698 -460 c 1
 695 -599 l 1
 695 -677 615 -756 512 -756 c 2
 221 -756 l 2
 131 -756 58 -689 29 -617 c 1
 5 -693 -78 -756 -182 -756 c 2
 -474 -756 l 2
121 -841 m 1
 -74 -841 l 1
 -74 -758 l 1
 28 -672 l 1
 121 -770 l 1
 121 -841 l 1
447 -588 m 2
 490 -588 503 -558 504 -543 c 2
 504 -460 l 1
 491 -427 475 -408 457 -402 c 1
 234 -233 l 2
 208 -213 186 -206 153 -206 c 2
 -101 -206 l 2
 -143 -206 -180 -219 -211 -244 c 1
 -408 -372 l 1
 -408 -367 l 1
 -451 -414 -473 -445 -473 -461 c 2
 -473 -519 l 2
 -473 -560 -436 -589 -408 -589 c 2
 -169 -589 l 2
 -118 -589 -83 -550 -83 -506 c 1
 141 -506 l 1
 141 -555 180 -588 207 -588 c 2
 447 -588 l 2
120 -454 m 1
 -75 -454 l 1
 -75 -288 l 1
 120 -288 l 1
 120 -454 l 1
EndSplineSet
LCarets2: 1 0
EndChar

StartChar: da.base
Encoding: 192 -1 192
Width: 1493
VWidth: 2047
Flags: HW
LayerCount: 2
Fore
SplineSet
390 810 m 2
 390 964 483 1101 596 1194 c 1
 418 1194 l 1
 418 1389 l 1
 1558 1389 l 1
 1618 1194 l 1
 1815 1036 1844 882 1844 804 c 2
 1843 246 l 2
 1843 103 1746 -5 1630 -5 c 2
 1283 -5 l 2
 1207 -5 1136 53 1117 122 c 1
 1085 43 1015 -6 948 -6 c 2
 613 -6 l 1
 613 -1 l 1
 495 -1 390 106 390 239 c 2
 390 810 l 2
1506 187 m 2
 1560 187 1615 235 1617 330 c 1
 1617 804 l 2
 1617 958 1480 1095 1313 1188 c 1
 903 1188 l 1
 740 1110 614 965 614 816 c 2
 614 296 l 2
 614 230 655 182 698 182 c 2
 877 187 l 1
 951 187 1005 240 1005 299 c 2
 1005 413 l 1
 1229 413 l 1
 1229 290 l 2
 1229 237 1278 187 1352 187 c 2
 1506 187 l 2
EndSplineSet
EndChar

StartChar: da.imathra
Encoding: 193 -1 193
Width: 1775
VWidth: 2047
Flags: HW
LayerCount: 2
Fore
SplineSet
392 1632 m 2
 392 1751 479 1840 587 1840 c 2
 1073 1840 l 2
 1157 1840 1228 1803 1286 1728 c 1
 1621 1407 l 2
 1772 1262 1848 1108 1848 944 c 1
 1843 301 l 1
 1843 121 1731 -5 1617 -5 c 2
 1257 -5 l 2
 1174 -5 1104 57 1088 135 c 1
 1066 65 1011 -5 931 -5 c 2
 642 -5 l 1
 642 0 l 1
 502 0 390 117 390 269 c 2
 390 923 l 2
 390 1017 465 1138 613 1286 c 1
 493 1331 392 1409 392 1491 c 2
 392 1632 l 2
712 1643 m 2
 660 1643 617 1606 617 1559 c 2
 617 1521 l 2
 617 1481 655 1438 730 1393 c 1
 1371 1391 l 1
 1132 1605 l 2
 1104 1630 1066 1643 1021 1643 c 2
 712 1643 l 2
1496 190 m 2
 1565 190 1622 238 1623 292 c 1
 1623 945 l 2
 1623 1046 1548 1138 1459 1196 c 1
 853 1196 l 1
 747 1136 619 1029 619 918 c 2
 619 293 l 2
 619 239 668 190 714 190 c 2
 872 190 l 2
 926 190 982 238 982 302 c 2
 982 416 l 1
 1205 416 l 1
 1205 319 l 2
 1205 256 1252 190 1299 190 c 2
 1496 190 l 2
EndSplineSet
LCarets2: 1 0
EndChar

StartChar: da.sub
Encoding: 194 -1 194
Width: 324
VWidth: 2047
Flags: HW
AnchorPoint: "Sub" -609 -53 mark 0
AnchorPoint: "Sub" 651 -749 basemark 0
LayerCount: 2
Fore
SplineSet
-418 -756 m 2
 -544 -756 -643 -665 -643 -572 c 2
 -643 -419 l 2
 -643 -372 -620 -330 -575 -294 c 2
 -280 -67 l 1
 -244 -44 -211 -32 -183 -32 c 2
 223 -32 l 2
 267 -32 304 -50 334 -86 c 1
 613 -348 l 1
 649 -374 667 -408 667 -448 c 2
 665 -599 l 1
 665 -675 605 -756 512 -756 c 2
 191 -756 l 2
 94 -756 42 -683 29 -628 c 1
 12 -701 -73 -756 -169 -756 c 2
 -418 -756 l 2
418 -587 m 2
 452 -587 472 -558 473 -531 c 1
 473 -486 l 2
 473 -449 455 -417 419 -392 c 1
 233 -234 l 1
 208 -209 181 -196 151 -196 c 2
 -103 -196 l 2
 -121 -196 -144 -206 -170 -224 c 2
 -393 -377 l 1
 -428 -410 -447 -433 -447 -448 c 2
 -447 -515 l 2
 -447 -549 -420 -587 -393 -587 c 2
 -170 -587 l 2
 -116 -587 -74 -553 -74 -505 c 2
 -74 -449 l 1
 121 -449 l 1
 121 -505 l 2
 121 -548 163 -587 205 -587 c 2
 418 -587 l 2
EndSplineSet
LCarets2: 1 0
EndChar

StartChar: dha.base
Encoding: 196 -1 196
Width: 1493
VWidth: 2047
Flags: HW
LayerCount: 2
Fore
SplineSet
390 810 m 2
 390 964 483 1101 596 1194 c 1
 418 1194 l 1
 418 1389 l 1
 1558 1389 l 1
 1618 1194 l 1
 1815 1036 1844 882 1844 804 c 2
 1843 246 l 2
 1843 103 1746 -5 1630 -5 c 2
 1283 -5 l 2
 1207 -5 1136 53 1117 122 c 1
 1085 43 1015 -6 948 -6 c 2
 613 -6 l 1
 613 -1 l 1
 495 -1 390 106 390 239 c 2
 390 810 l 2
1506 187 m 2
 1560 187 1615 235 1617 330 c 1
 1617 804 l 2
 1617 958 1480 1095 1313 1188 c 1
 903 1188 l 1
 740 1110 614 965 614 816 c 2
 614 296 l 2
 614 230 655 182 698 182 c 2
 877 187 l 1
 951 187 1005 240 1005 299 c 2
 1005 413 l 1
 1229 413 l 1
 1229 290 l 2
 1229 237 1278 187 1352 187 c 2
 1506 187 l 2
1228 -295 m 1
 1005 -295 l 1
 1005 -15 l 1
 1228 -15 l 1
 1228 -295 l 1
EndSplineSet
EndChar

StartChar: dha.imathra
Encoding: 197 -1 197
Width: 1775
VWidth: 2047
Flags: HW
LayerCount: 2
Fore
SplineSet
392 1632 m 2
 392 1751 479 1840 587 1840 c 2
 1073 1840 l 2
 1157 1840 1228 1803 1286 1728 c 1
 1621 1407 l 2
 1772 1262 1848 1108 1848 944 c 1
 1843 301 l 1
 1843 121 1731 -5 1617 -5 c 2
 1257 -5 l 2
 1174 -5 1104 57 1088 135 c 1
 1066 65 1011 -5 931 -5 c 2
 642 -5 l 1
 642 0 l 1
 502 0 390 117 390 269 c 2
 390 923 l 2
 390 1017 465 1138 613 1286 c 1
 493 1331 392 1409 392 1491 c 2
 392 1632 l 2
712 1643 m 2
 660 1643 617 1606 617 1559 c 2
 617 1521 l 2
 617 1481 655 1438 730 1393 c 1
 1371 1391 l 1
 1132 1605 l 2
 1104 1630 1066 1643 1021 1643 c 2
 712 1643 l 2
1496 190 m 2
 1565 190 1622 238 1623 292 c 1
 1623 945 l 2
 1623 1046 1548 1138 1459 1196 c 1
 853 1196 l 1
 747 1136 619 1029 619 918 c 2
 619 293 l 2
 619 239 668 190 714 190 c 2
 872 190 l 2
 926 190 982 238 982 302 c 2
 982 416 l 1
 1205 416 l 1
 1205 319 l 2
 1205 256 1252 190 1299 190 c 2
 1496 190 l 2
1233 -291 m 1
 1011 -291 l 1
 1011 -11 l 1
 1233 -11 l 1
 1233 -291 l 1
EndSplineSet
LCarets2: 1 0
EndChar

StartChar: dha.sub
Encoding: 198 -1 198
Width: 324
VWidth: 2047
Flags: HW
AnchorPoint: "Sub" -648 -74 mark 0
AnchorPoint: "Sub" 657 -783 basemark 0
LayerCount: 2
Fore
SplineSet
-473 -755 m 2
 -565 -755 -642 -678 -642 -598 c 2
 -642 -418 l 2
 -642 -383 -622 -345 -585 -305 c 1
 -294 -85 l 1
 -195 -31 l 1
 237 -31 l 2
 273 -31 306 -49 336 -85 c 1
 598 -319 l 1
 645 -350 669 -396 669 -457 c 1
 665 -599 l 1
 665 -675 605 -756 512 -756 c 2
 221 -756 l 2
 131 -756 58 -689 29 -617 c 1
 6 -692 -78 -755 -181 -755 c 2
 -473 -755 l 2
122 -838 m 1
 -73 -838 l 1
 -73 -755 l 1
 29 -669 l 1
 122 -755 l 1
 122 -838 l 1
423 -578 m 1
 450 -576 478 -563 475 -538 c 1
 475 -452 l 1
 464 -419 449 -399 431 -393 c 1
 237 -225 l 1
 212 -207 184 -197 154 -197 c 2
 -100 -197 l 2
 -118 -197 -141 -207 -167 -225 c 2
 -379 -364 l 1
 -436 -423 l 1
 -439 -428 -439 -432 -441 -440 c 1
 -441 -524 l 2
 -441 -560 -432 -578 -414 -578 c 2
 -164 -578 l 2
 -107 -578 -69 -533 -69 -468 c 1
 126 -468 l 1
 126 -528 163 -578 210 -578 c 2
 423 -578 l 1
EndSplineSet
LCarets2: 1 0
EndChar

StartChar: na.base
Encoding: 200 -1 200
Width: 1373
VWidth: 2047
Flags: HW
LayerCount: 2
Fore
SplineSet
1354 1398 m 1
 1597 1374 1722 1162 1722 981 c 2
 1720 251 l 2
 1720 111 1634 0 1524 0 c 2
 1134 0 l 2
 1028 0 938 97 938 224 c 2
 938 670 l 2
 938 723 909 780 868 780 c 2
 687 780 l 2
 645 780 606 736 606 670 c 2
 606 282 l 2
 606 225 644 197 670 197 c 2
 716 197 l 1
 716 2 l 1
 615 2 l 2
 487 2 383 103 383 225 c 2
 383 717 l 2
 383 869 484 981 605 981 c 2
 940 981 l 2
 1060 981 1162 862 1162 699 c 2
 1162 270 l 2
 1162 228 1194 197 1230 197 c 2
 1424 197 l 2
 1462 197 1495 248 1495 307 c 2
 1495 998 l 2
 1495 1111 1386 1184 1274 1203 c 1
 407 1203 l 1
 407 1398 l 1
 1354 1398 l 1
EndSplineSet
EndChar

StartChar: na.imathra
Encoding: 201 -1 201
Width: 1622
VWidth: 2047
Flags: HW
LayerCount: 2
Fore
SplineSet
1482 1626 m 2
 1599 1626 1675 1529 1675 1404 c 1
 1685 224 l 1
 1685 99 1606 1 1492 1 c 2
 1166 1 l 2
 1056 1 960 101 960 224 c 2
 960 659 l 2
 960 723 902 756 847 756 c 2
 662 756 l 2
 616 756 568 720 568 660 c 2
 568 283 l 2
 568 234 608 198 652 198 c 2
 706 198 l 1
 706 3 l 1
 595 3 l 2
 468 3 371 86 371 187 c 2
 371 719 l 2
 371 852 474 953 594 953 c 2
 929 953 l 2
 1067 953 1151 824 1151 703 c 2
 1151 286 l 2
 1151 241 1182 202 1219 202 c 2
 1372 202 l 2
 1425 202 1457 246 1457 303 c 2
 1457 1349 l 2
 1457 1410 1423 1432 1401 1432 c 2
 1300 1432 l 2
 1272 1432 1259 1414 1259 1378 c 2
 1259 1292 l 1
 1260 1265 1282 1240 1315 1240 c 2
 1369 1240 l 1
 1369 1043 l 1
 1243 1043 l 2
 1126 1043 1034 1128 1034 1227 c 2
 1034 1433 l 2
 1034 1544 1125 1626 1242 1626 c 2
 1482 1626 l 2
EndSplineSet
LCarets2: 1 0
EndChar

StartChar: na.sub
Encoding: 202 -1 202
Width: 286
VWidth: 2047
Flags: HW
AnchorPoint: "Sub" -571 80 mark 0
AnchorPoint: "Sub" 590 -824 basemark 0
LayerCount: 2
Fore
SplineSet
332 -672 m 0
 359 -672 387 -653 387 -620 c 2
 387 -563 l 1
 581 -563 l 1
 581 -683 l 2
 581 -779 513 -840 442 -840 c 2
 277 -840 l 2
 221 -840 147 -793 54 -699 c 1
 -31 -781 -106 -822 -172 -822 c 2
 -412 -822 l 2
 -501 -822 -561 -749 -561 -671 c 2
 -561 -506 l 2
 -561 -456 -543 -413 -507 -378 c 1
 -474 -341 -433 -321 -385 -321 c 2
 -133 -321 l 2
 -86 -321 -23 -358 54 -431 c 1
 117 -368 148 -323 148 -295 c 2
 148 -185 l 2
 148 -119 122 -63 82 -63 c 1
 82 124 l 1
 218 124 344 -2 344 -185 c 2
 344 -295 l 2
 344 -382 293 -475 191 -574 c 1
 264 -640 311 -672 332 -672 c 0
-367 -619 m 2
 -367 -642 -342 -657 -310 -657 c 2
 -216 -657 l 2
 -163 -657 -112 -625 -62 -563 c 1
 -86 -535 -113 -521 -146 -521 c 2
 -311 -521 l 2
 -331 -521 -367 -527 -367 -562 c 2
 -367 -619 l 2
EndSplineSet
LCarets2: 1 0
EndChar

StartChar: pa.base
Encoding: 204 -1 204
Width: 1652
VWidth: 2047
Flags: HW
LayerCount: 2
Fore
SplineSet
1709 1197 m 1
 364 1197 l 1
 364 1393 l 1
 1709 1393 l 1
 1709 1197 l 1
1259 756 m 1
 1037 756 l 1
 1037 1021 l 1
 1259 1021 l 1
 1259 756 l 1
1733 1111 m 1
 1874 1046 1986 937 1986 821 c 2
 1988 233 l 2
 1988 109 1905 -6 1780 -6 c 1
 1780 -1 l 1
 1345 -1 l 2
 1243 -1 1159 73 1148 168 c 1
 1131 71 1044 -1 955 -1 c 2
 552 -1 l 2
 434 -1 340 93 340 210 c 2
 340 838 l 1
 694 838 l 2
 830 838 955 730 955 575 c 2
 955 476 l 1
 731 476 l 1
 731 559 l 2
 731 612 699 644 649 644 c 2
 563 644 l 1
 563 323 l 2
 563 255 625 195 692 195 c 2
 899 195 l 2
 985 195 1038 262 1038 323 c 2
 1038 558 l 1
 1260 558 l 1
 1260 323 l 2
 1260 255 1322 195 1387 195 c 2
 1641 195 l 2
 1707 195 1763 250 1763 323 c 2
 1763 810 l 2
 1763 857 1713 902 1613 943 c 1
 1733 1111 l 1
EndSplineSet
EndChar

StartChar: pa.imathra
Encoding: 205 -1 205
Width: 1932
VWidth: 2047
Flags: HW
LayerCount: 2
Fore
SplineSet
1284 1363 m 0
 1284 1293 1237 1237 1185 1237 c 0
 1167 1237 1139 1242 1095 1253 c 1
 1027 1264 952 1264 917 1352 c 1
 904 1395 l 130
 890 1440 887 1470 887 1489 c 0
 887 1489 893 1715 1008 1759 c 128
 1008 1759 1128 1799 1233 1799 c 0
 1285 1799 1424 1785 1469 1761 c 0
 1530 1728 1558 1680 1569 1583 c 1
 1582 1522 1588 1467 1588 1418 c 0
 1588 1303 1540 1133 1538 1128 c 0
 1518 1074 1479 1033 1429 1013 c 1
 1391 1000 1360 990 1337 984 c 2
 1210 943 l 130
 1166 929 1129 922 1099 922 c 0
 979 922 958 1049 958 1086 c 0
 958 1119 978 1211 1050 1211 c 0
 1095 1211 1186 1169 1230 1169 c 0
 1263 1169 1284 1180 1297 1183 c 1
 1320 1190 1331 1204 1337 1229 c 130
 1344 1258 l 1
 1364 1330 1379 1385 1379 1426 c 0
 1379 1465 1370 1501 1344 1537 c 2
 1327 1561 l 1
 1306 1588 1267 1608 1228 1608 c 0
 1205 1608 1144 1591 1135 1579 c 128
 1128 1570 1123 1542 1123 1518 c 256
 1123 1463 1149 1453 1177 1445 c 1
 1235 1445 l 1
 1264 1436 1284 1402 1284 1363 c 0
1731 1113 m 1
 1872 1048 1984 938 1984 822 c 2
 1988 234 l 2
 1988 110 1905 -5 1780 -5 c 1
 1780 0 l 1
 1345 0 l 2
 1249 0 1172 85 1146 169 c 1
 1129 72 1042 0 953 0 c 2
 550 0 l 2
 432 0 339 94 339 211 c 2
 339 839 l 1
 693 839 l 2
 829 839 953 731 953 576 c 2
 953 477 l 1
 730 477 l 1
 730 560 l 2
 730 613 698 645 648 645 c 2
 562 645 l 1
 562 325 l 2
 562 257 623 196 690 196 c 2
 925 196 l 2
 989 196 1036 259 1036 335 c 2
 1036 559 l 1
 1258 559 l 1
 1258 335 l 2
 1258 256 1317 197 1384 197 c 2
 1620 197 l 2
 1699 197 1761 265 1761 353 c 2
 1761 782 l 2
 1761 849 1711 903 1611 944 c 1
 1731 1113 l 1
EndSplineSet
LCarets2: 1 0
EndChar

StartChar: pa.sub
Encoding: 206 -1 206
Width: 335
VWidth: 2047
Flags: HW
AnchorPoint: "Sub" -655 264 mark 0
AnchorPoint: "Sub" 668 -786 basemark 0
LayerCount: 2
Fore
SplineSet
431 354 m 1
 575 277 684 148 684 10 c 2
 683 -494 l 2
 683 -640 609 -763 518 -763 c 2
 265 -763 l 2
 186 -763 106 -686 68 -625 c 1
 26 -696 -48 -764 -125 -764 c 2
 -405 -764 l 1
 -405 -758 l 1
 -543 -758 -653 -662 -653 -536 c 2
 -653 -380 l 2
 -653 -248 -517 -144 -348 -144 c 2
 -154 -144 l 1
 -154 -451 l 1
 -348 -451 l 1
 -348 -338 l 1
 -409 -338 -457 -365 -457 -405 c 2
 -457 -506 l 2
 -457 -547 -406 -588 -347 -588 c 2
 -178 -588 l 2
 -91 -588 -31 -533 -31 -450 c 2
 -31 -337 l 1
 168 -337 l 1
 168 -420 l 2
 168 -514 232 -589 296 -589 c 2
 432 -589 l 2
 466 -589 489 -546 489 -478 c 2
 489 -2 l 2
 489 85 437 157 333 215 c 1
 431 354 l 1
164 -846 m 1
 -34 -846 l 1
 -34 -749 l 1
 67 -692 l 1
 164 -749 l 1
 164 -846 l 1
EndSplineSet
LCarets2: 1 0
EndChar

StartChar: pha.base
Encoding: 208 -1 208
Width: 1652
VWidth: 2047
Flags: HW
LayerCount: 2
Fore
SplineSet
1709 1197 m 1
 364 1197 l 1
 364 1393 l 1
 1709 1393 l 1
 1709 1197 l 1
1259 756 m 1
 1037 756 l 1
 1037 1021 l 1
 1259 1021 l 1
 1259 756 l 1
1733 1111 m 1
 1874 1046 1986 937 1986 821 c 2
 1988 233 l 2
 1988 109 1905 -6 1780 -6 c 1
 1780 -1 l 1
 1345 -1 l 2
 1243 -1 1159 73 1148 168 c 1
 1131 71 1044 -1 955 -1 c 2
 552 -1 l 2
 434 -1 340 93 340 210 c 2
 340 838 l 1
 694 838 l 2
 830 838 955 730 955 575 c 2
 955 476 l 1
 731 476 l 1
 731 559 l 2
 731 612 699 644 649 644 c 2
 563 644 l 1
 563 323 l 2
 563 255 625 195 692 195 c 2
 899 195 l 2
 985 195 1038 262 1038 323 c 2
 1038 558 l 1
 1260 558 l 1
 1260 323 l 2
 1260 255 1322 195 1387 195 c 2
 1641 195 l 2
 1707 195 1763 250 1763 323 c 2
 1763 810 l 2
 1763 857 1713 902 1613 943 c 1
 1733 1111 l 1
1255 -294 m 1
 1033 -294 l 1
 1033 -14 l 1
 1255 -14 l 1
 1255 -294 l 1
EndSplineSet
EndChar

StartChar: pha.imathra
Encoding: 209 -1 209
Width: 1932
VWidth: 2047
Flags: HW
LayerCount: 2
Fore
SplineSet
1359 1792 m 2
 1489 1792 1565 1692 1565 1588 c 2
 1569 1259 l 1
 1569 1109 1465 982 1334 982 c 2
 981 982 l 1
 981 1176 l 1
 1276 1176 l 2
 1313 1176 1344 1215 1344 1259 c 2
 1344 1539 l 2
 1344 1577 1324 1596 1286 1596 c 2
 1163 1596 l 1
 1148 1594 1121 1583 1121 1540 c 2
 1121 1501 l 1
 1122 1473 1148 1447 1174 1447 c 2
 1231 1447 l 1
 1231 1253 l 1
 1090 1253 l 2
 985 1253 895 1315 895 1401 c 2
 895 1598 l 2
 895 1709 986 1792 1108 1792 c 2
 1359 1792 l 2
1727 1116 m 1
 1868 1051 1980 941 1980 825 c 2
 1983 238 l 2
 1983 114 1900 -2 1775 -2 c 1
 1775 3 l 1
 1341 3 l 2
 1245 3 1168 88 1142 172 c 1
 1125 75 1038 3 949 3 c 2
 546 3 l 2
 428 3 335 97 335 214 c 2
 335 842 l 1
 688 842 l 2
 824 842 949 734 949 579 c 2
 949 480 l 1
 725 480 l 1
 725 563 l 2
 725 616 694 648 644 648 c 2
 558 648 l 1
 558 328 l 2
 558 261 619 199 686 199 c 2
 921 199 l 2
 985 199 1032 262 1032 338 c 2
 1032 562 l 1
 1254 562 l 1
 1254 338 l 2
 1254 259 1313 200 1380 200 c 2
 1615 200 l 2
 1694 200 1756 268 1756 356 c 2
 1756 785 l 2
 1756 852 1707 906 1607 947 c 1
 1727 1116 l 1
1253 -290 m 1
 1030 -290 l 1
 1030 -10 l 1
 1253 -10 l 1
 1253 -290 l 1
EndSplineSet
LCarets2: 1 0
EndChar

StartChar: pha.sub
Encoding: 210 -1 210
Width: 305
VWidth: 2047
Flags: HW
AnchorPoint: "Sub" -590 367 mark 0
AnchorPoint: "Sub" 598 -755 basemark 0
LayerCount: 2
Fore
SplineSet
301 444 m 1
 499 399 626 218 626 -3 c 1
 628 -428 l 2
 628 -591 558 -710 472 -710 c 2
 226 -710 l 2
 123 -710 50 -653 32 -588 c 1
 12 -654 -38 -727 -143 -727 c 2
 -432 -727 l 2
 -523 -727 -612 -643 -612 -518 c 2
 -612 -294 l 2
 -612 -192 -530 -113 -419 -113 c 2
 -183 -113 l 1
 -183 -284 l 1
 -336 -284 l 2
 -371 -284 -419 -297 -419 -349 c 2
 -419 -488 l 2
 -419 -515 -397 -542 -365 -542 c 2
 -165 -542 l 2
 -107 -542 -69 -481 -69 -405 c 2
 -69 -337 l 1
 113 -337 l 1
 113 -420 l 2
 113 -488 162 -542 213 -542 c 2
 382 -542 l 2
 422 -542 436 -478 436 -430 c 2
 436 -1 l 2
 436 153 349 259 247 279 c 1
 301 444 l 1
109 -843 m 1
 -73 -843 l 1
 -73 -760 l 1
 28 -649 l 1
 109 -743 l 1
 109 -843 l 1
EndSplineSet
LCarets2: 1 0
EndChar

StartChar: ba
Encoding: 211 3244 211
Width: 1850
VWidth: 2047
Flags: HW
LayerCount: 2
Fore
SplineSet
1571 1396 m 2
 1742 1396 1903 1262 1903 1062 c 2
 1903 298 l 2
 1903 122 1759 0 1598 0 c 2
 1289 0 l 2
 1204 0 1120 56 1097 140 c 1
 1076 63 1004 0 903 0 c 2
 555 0 l 2
 410 0 290 128 290 297 c 2
 290 503 l 1
 735 771 l 2
 771 792 789 829 789 882 c 2
 789 1088 l 2
 789 1148 743 1197 680 1197 c 2
 514 1197 l 1
 514 1115 l 2
 514 1071 546 1031 584 1031 c 2
 653 1031 l 1
 653 836 l 1
 530 836 l 2
 400 836 291 945 291 1075 c 2
 291 1394 l 1
 707 1394 l 2
 888 1394 1017 1255 1017 1087 c 2
 1017 777 l 2
 1017 729 998 692 960 667 c 1
 513 390 l 1
 513 303 l 2
 513 241 551 195 595 195 c 2
 864 195 l 2
 935 195 986 261 986 323 c 2
 986 417 l 1
 1208 417 l 1
 1208 304 l 2
 1208 251 1259 195 1337 195 c 2
 1558 195 l 2
 1622 195 1680 260 1680 351 c 2
 1680 1050 l 2
 1680 1141 1608 1201 1530 1201 c 2
 1289 1201 l 1
 1289 1396 l 1
 1571 1396 l 2
EndSplineSet
LCarets2: 1 0
EndChar

StartChar: ba.base
Encoding: 212 -1 212
Width: 1568
VWidth: 2047
Flags: HW
LayerCount: 2
Fore
SplineSet
1626 1345 m 1
 1787 1289 1902 1150 1902 952 c 2
 1898 282 l 2
 1898 125 1768 1 1608 1 c 2
 1311 1 l 2
 1204 1 1111 63 1089 141 c 1
 1068 66 992 1 869 1 c 2
 577 1 l 2
 414 1 282 126 282 270 c 2
 282 505 l 1
 729 757 l 2
 764 778 782 816 782 870 c 2
 782 1091 l 2
 782 1156 732 1202 671 1202 c 2
 507 1202 l 1
 507 1090 l 2
 507 1053 531 1036 548 1036 c 2
 616 1036 l 1
 616 841 l 1
 523 841 l 2
 393 841 283 951 283 1081 c 2
 283 1399 l 1
 701 1399 l 2
 876 1399 1009 1262 1009 1092 c 2
 1009 783 l 2
 1009 735 989 697 951 672 c 1
 506 396 l 1
 506 284 l 2
 506 231 551 198 588 198 c 2
 886 198 l 2
 941 198 979 244 979 300 c 2
 979 420 l 1
 1202 420 l 1
 1202 308 l 2
 1202 250 1249 198 1301 198 c 2
 1554 198 l 2
 1625 198 1676 265 1676 327 c 2
 1676 943 l 2
 1676 1094 1549 1204 1414 1204 c 2
 1286 1204 l 1
 1286 1399 l 1
 1626 1399 l 1
 1626 1345 l 1
EndSplineSet
EndChar

StartChar: ba.imathra
Encoding: 213 -1 213
Width: 1838
VWidth: 2047
Flags: HW
LayerCount: 2
Fore
SplineSet
1683 1649 m 2
 1798 1649 1890 1510 1890 1333 c 2
 1887 305 l 2
 1887 144 1762 1 1598 1 c 2
 1300 1 l 2
 1190 1 1104 62 1078 141 c 1
 1058 59 967 1 856 1 c 2
 538 1 l 2
 390 1 269 129 269 270 c 2
 269 465 l 1
 687 727 l 2
 744 762 773 810 773 869 c 2
 773 1090 l 2
 773 1156 719 1201 661 1201 c 2
 492 1201 l 1
 492 1118 l 2
 492 1079 521 1034 564 1034 c 2
 603 1034 l 1
 603 839 l 1
 538 839 l 2
 396 839 270 961 270 1108 c 2
 270 1397 l 1
 688 1397 l 2
 877 1397 1021 1260 1021 1090 c 2
 1021 781 l 2
 1021 732 995 686 941 645 c 1
 523 363 l 1
 523 305 l 2
 523 247 570 196 633 196 c 2
 845 196 l 2
 916 196 967 263 967 325 c 2
 967 418 l 1
 1191 418 l 1
 1191 335 l 2
 1191 259 1257 196 1348 196 c 2
 1542 196 l 2
 1605 196 1665 244 1665 334 c 2
 1665 1333 l 2
 1665 1403 1639 1455 1611 1455 c 2
 1498 1455 l 1
 1466 1452 1445 1427 1445 1399 c 2
 1445 1258 l 1
 1446 1231 1476 1204 1498 1204 c 2
 1585 1204 l 1
 1585 1010 l 1
 1432 1010 l 2
 1316 1010 1221 1108 1221 1232 c 2
 1221 1426 l 2
 1221 1552 1337 1649 1463 1649 c 2
 1683 1649 l 2
EndSplineSet
LCarets2: 1 0
EndChar

StartChar: ba.sub
Encoding: 214 -1 214
Width: 335
VWidth: 2047
Flags: HW
AnchorPoint: "Sub" -689 285 mark 0
AnchorPoint: "Sub" 675 -771 basemark 0
LayerCount: 2
Fore
SplineSet
391 -628 m 2
 450 -628 490 -580 490 -535 c 2
 490 109 l 2
 490 207 457 278 391 321 c 1
 603 321 l 1
 658 278 686 223 686 156 c 2
 683 -517 l 2
 683 -666 576 -794 443 -794 c 2
 320 -794 l 2
 206 -794 115 -726 98 -646 c 1
 47 -736 -50 -795 -148 -795 c 2
 -432 -795 l 2
 -559 -795 -653 -713 -653 -628 c 2
 -653 -449 l 2
 -653 -375 -590 -320 -506 -320 c 2
 -320 -320 l 2
 -302 -320 -294 -312 -294 -294 c 2
 -294 -255 l 1
 -295 -244 -303 -238 -319 -238 c 2
 -628 -238 l 1
 -628 -69 l 1
 -234 -69 l 2
 -154 -69 -95 -122 -95 -183 c 2
 -95 -337 l 2
 -95 -416 -163 -478 -251 -478 c 2
 -402 -478 l 2
 -438 -478 -456 -488 -456 -506 c 2
 -456 -589 l 2
 -456 -611 -428 -628 -402 -628 c 2
 -177 -628 l 2
 -81 -628 0 -553 0 -460 c 2
 0 -379 l 1
 194 -379 l 1
 194 -477 l 2
 194 -562 251 -628 305 -628 c 2
 391 -628 l 2
EndSplineSet
LCarets2: 1 0
EndChar

StartChar: bha.base
Encoding: 216 -1 216
Width: 1568
VWidth: 2047
Flags: HW
LayerCount: 2
Fore
SplineSet
1626 1345 m 1
 1787 1289 1902 1150 1902 952 c 2
 1898 282 l 2
 1898 125 1768 1 1608 1 c 2
 1311 1 l 2
 1204 1 1111 63 1089 141 c 1
 1068 66 992 1 869 1 c 2
 577 1 l 2
 414 1 282 126 282 270 c 2
 282 505 l 1
 729 757 l 2
 764 778 782 816 782 870 c 2
 782 1091 l 2
 782 1156 732 1202 671 1202 c 2
 507 1202 l 1
 507 1090 l 2
 507 1053 531 1036 548 1036 c 2
 616 1036 l 1
 616 841 l 1
 523 841 l 2
 393 841 283 951 283 1081 c 2
 283 1399 l 1
 701 1399 l 2
 876 1399 1009 1262 1009 1092 c 2
 1009 783 l 2
 1009 735 989 697 951 672 c 1
 506 396 l 1
 506 284 l 2
 506 231 551 198 588 198 c 2
 886 198 l 2
 941 198 979 244 979 300 c 2
 979 420 l 1
 1202 420 l 1
 1202 308 l 2
 1202 250 1249 198 1301 198 c 2
 1554 198 l 2
 1625 198 1676 265 1676 327 c 2
 1676 943 l 2
 1676 1094 1549 1204 1414 1204 c 2
 1286 1204 l 1
 1286 1399 l 1
 1626 1399 l 1
 1626 1345 l 1
1204 -290 m 1
 981 -291 l 1
 981 -11 l 1
 1204 -11 l 1
 1204 -290 l 1
EndSplineSet
EndChar

StartChar: bha.imathra
Encoding: 217 -1 217
Width: 1838
VWidth: 2047
Flags: HW
LayerCount: 2
Fore
SplineSet
1683 1649 m 2
 1798 1649 1890 1510 1890 1333 c 2
 1887 305 l 2
 1887 144 1762 1 1598 1 c 2
 1300 1 l 2
 1190 1 1104 62 1078 141 c 1
 1058 59 967 1 856 1 c 2
 538 1 l 2
 390 1 269 129 269 270 c 2
 269 465 l 1
 687 727 l 2
 744 762 773 810 773 869 c 2
 773 1090 l 2
 773 1156 719 1201 661 1201 c 2
 492 1201 l 1
 492 1118 l 2
 492 1079 521 1034 564 1034 c 2
 603 1034 l 1
 603 839 l 1
 538 839 l 2
 396 839 270 961 270 1108 c 2
 270 1397 l 1
 688 1397 l 2
 877 1397 1021 1260 1021 1090 c 2
 1021 781 l 2
 1021 732 995 686 941 645 c 1
 523 363 l 1
 523 305 l 2
 523 247 570 196 633 196 c 2
 845 196 l 2
 916 196 967 263 967 325 c 2
 967 418 l 1
 1191 418 l 1
 1191 335 l 2
 1191 259 1257 196 1348 196 c 2
 1542 196 l 2
 1605 196 1665 244 1665 334 c 2
 1665 1333 l 2
 1665 1403 1639 1455 1611 1455 c 2
 1498 1455 l 1
 1466 1452 1445 1427 1445 1399 c 2
 1445 1258 l 1
 1446 1231 1476 1204 1498 1204 c 2
 1585 1204 l 1
 1585 1010 l 1
 1432 1010 l 2
 1316 1010 1221 1108 1221 1232 c 2
 1221 1426 l 2
 1221 1552 1337 1649 1463 1649 c 2
 1683 1649 l 2
1188 -293 m 1
 966 -294 l 1
 966 -14 l 1
 1188 -14 l 1
 1188 -293 l 1
EndSplineSet
LCarets2: 1 0
EndChar

StartChar: bha.sub
Encoding: 218 -1 218
Width: 335
VWidth: 2047
Flags: HW
AnchorPoint: "Sub" -643 317 mark 0
AnchorPoint: "Sub" 647 -775 basemark 0
LayerCount: 2
Fore
SplineSet
487 171 m 2
 487 287 415 326 380 333 c 1
 612 333 l 1
 660 295 684 244 684 182 c 2
 683 -504 l 2
 683 -649 582 -781 443 -781 c 2
 332 -781 l 2
 217 -781 133 -693 98 -598 c 1
 53 -673 -38 -781 -156 -781 c 2
 -461 -781 l 2
 -571 -781 -654 -711 -654 -627 c 2
 -654 -428 l 2
 -654 -373 -572 -336 -490 -336 c 2
 -321 -336 l 2
 -303 -336 -295 -318 -295 -283 c 2
 -295 -253 l 2
 -295 -235 -309 -226 -337 -226 c 2
 -629 -226 l 1
 -629 -60 l 1
 -235 -60 l 2
 -156 -60 -97 -105 -97 -171 c 2
 -97 -320 l 2
 -97 -411 -154 -487 -235 -487 c 2
 -404 -487 l 2
 -440 -487 -458 -497 -458 -517 c 2
 -458 -571 l 2
 -458 -593 -420 -616 -393 -616 c 2
 -196 -616 l 2
 -82 -616 -2 -535 -2 -448 c 2
 -2 -364 l 1
 192 -364 l 1
 192 -448 l 2
 192 -538 270 -615 349 -615 c 2
 388 -615 l 2
 438 -615 487 -571 487 -514 c 2
 487 171 l 2
182 -842 m 1
 14 -842 l 1
 14 -759 l 1
 97 -673 l 1
 182 -759 l 1
 182 -842 l 1
EndSplineSet
LCarets2: 1 0
EndChar

StartChar: ma.sub
Encoding: 222 -1 222
Width: 335
VWidth: 2047
Flags: HW
AnchorPoint: "Sub" -146 195 mark 0
AnchorPoint: "Sub" 963 -829 basemark 0
LayerCount: 2
Fore
SplineSet
566 -670 m 2
 616 -670 717 -650 818 -505 c 1
 957 -617 l 1
 879 -731 758 -839 625 -839 c 2
 186 -839 l 2
 36 -839 -105 -754 -105 -627 c 2
 -105 -418 l 2
 -105 -377 -68 -335 7 -293 c 2
 176 -197 l 1
 176 -41 l 2
 176 3 139 28 104 28 c 1
 104 193 l 1
 178 193 l 2
 287 193 371 125 371 29 c 2
 371 -112 l 1
 566 -112 l 2
 639 -112 704 -175 704 -264 c 2
 704 -403 l 2
 704 -478 650 -531 593 -531 c 2
 286 -531 l 2
 216 -531 186 -474 186 -430 c 2
 186 -395 l 1
 123 -430 91 -457 91 -477 c 2
 91 -600 l 2
 91 -633 139 -670 213 -670 c 2
 566 -670 l 2
494 -393 m 1
 532 -391 538 -360 539 -348 c 2
 539 -320 l 2
 539 -295 524 -283 494 -283 c 2
 370 -283 l 1
 370 -348 l 2
 370 -378 380 -393 400 -393 c 2
 494 -393 l 1
EndSplineSet
LCarets2: 1 0
EndChar

StartChar: ya.sub
Encoding: 228 -1 228
Width: 510
VWidth: 2047
Flags: HW
AnchorPoint: "Sub" -458 445 mark 0
AnchorPoint: "Sub" 581 -829 basemark 0
LayerCount: 2
Fore
SplineSet
538 505 m 2
 619 505 675 440 675 365 c 2
 677 195 l 1
 482 195 l 1
 482 281 l 2
 482 316 467 334 437 334 c 2
 343 334 l 1
 312 332 288 313 288 282 c 2
 288 170 l 2
 288 137 302 109 327 86 c 1
 466 -56 l 1
 533 -105 566 -170 566 -250 c 2
 566 -644 l 2
 566 -755 477 -837 383 -837 c 2
 -206 -837 l 2
 -285 -837 -355 -781 -355 -697 c 2
 -355 -626 l 2
 -355 -577 -336 -536 -299 -503 c 1
 -105 -363 l 1
 -69 -333 -51 -309 -51 -293 c 0
 -51 -267 -59 -253 -77 -253 c 2
 -152 -253 l 2
 -175 -253 -187 -267 -187 -293 c 2
 -187 -335 l 1
 -385 -335 l 1
 -385 -234 l 2
 -385 -155 -323 -86 -233 -86 c 2
 -11 -86 l 2
 88 -86 147 -159 147 -234 c 2
 147 -318 l 2
 147 -360 119 -404 62 -447 c 1
 -106 -558 l 2
 -143 -583 -162 -606 -162 -626 c 2
 -162 -643 l 1
 -161 -659 -152 -667 -136 -667 c 2
 311 -667 l 2
 353 -667 368 -617 368 -568 c 2
 368 -316 l 2
 368 -232 349 -177 311 -151 c 1
 175 -10 l 1
 118 41 89 82 89 112 c 2
 89 336 l 2
 89 429 169 505 258 505 c 2
 538 505 l 2
EndSplineSet
LCarets2: 1 0
EndChar

StartChar: ya.part
Encoding: 229 -1 229
Width: 1987
VWidth: 2047
Flags: HW
LayerCount: 2
Fore
SplineSet
2067 1055 m 2
 2067 1144 1984 1207 1900 1207 c 2
 1563 1207 l 1
 1563 1401 l 1
 1968 1401 l 1
 2048 1376 l 1
 2109 1353 2152 1327 2178 1302 c 0
 2229 1254 2289 1190 2289 1086 c 2
 2291 286 l 2
 2291 126 2170 6 2023 6 c 2
 1617 6 l 2
 1503 6 1417 67 1379 146 c 1
 1334 68 1244 6 1130 6 c 2
 653 6 l 2
 506 6 391 132 391 285 c 2
 391 1097 l 2
 391 1271 535 1403 707 1403 c 2
 1128 1403 l 2
 1305 1403 1453 1270 1453 1097 c 2
 1453 414 l 2
 1453 289 1557 200 1675 200 c 2
 1909 200 l 2
 2004 200 2067 278 2067 355 c 2
 2067 1055 l 2
1098 203 m 2
 1167 203 1226 264 1226 342 c 2
 1226 1086 l 2
 1226 1154 1173 1210 1114 1210 c 2
 734 1210 l 2
 659 1210 610 1143 610 1086 c 2
 610 331 l 2
 610 263 658 203 704 203 c 2
 1098 203 l 2
EndSplineSet
EndChar

StartChar: ya.part.i
Encoding: 230 -1 230
Width: 2216
VWidth: 2047
Flags: HW
LayerCount: 2
Fore
SplineSet
2023 1647 m 2
 2178 1647 2291 1498 2291 1342 c 2
 2287 364 l 2
 2287 182 2140 1 1935 1 c 2
 1643 1 l 2
 1513 1 1407 58 1366 141 c 1
 1341 101 1266 0 1116 0 c 2
 677 0 l 2
 510 0 390 151 390 303 c 2
 390 1089 l 2
 390 1261 543 1396 735 1396 c 2
 1128 1396 l 2
 1305 1396 1452 1260 1452 1089 c 2
 1452 407 l 2
 1452 290 1541 194 1647 194 c 2
 1939 194 l 2
 2010 194 2067 266 2067 351 c 2
 2067 1343 l 2
 2067 1396 2038 1454 1994 1454 c 2
 1927 1454 l 2
 1881 1454 1844 1431 1844 1397 c 2
 1844 1302 l 2
 1844 1259 1878 1232 1927 1232 c 2
 1980 1232 l 1
 1980 1035 l 1
 1881 1035 l 2
 1719 1035 1621 1166 1621 1274 c 2
 1621 1424 l 2
 1621 1548 1740 1647 1881 1647 c 2
 2023 1647 l 2
1099 194 m 2
 1169 194 1227 250 1227 333 c 2
 1227 1107 l 2
 1227 1169 1164 1200 1117 1200 c 2
 734 1200 l 2
 669 1200 612 1160 612 1107 c 2
 612 322 l 2
 612 254 657 194 706 194 c 2
 1099 194 l 2
EndSplineSet
EndChar

StartChar: ra.base
Encoding: 233 -1 233
Width: 1258
VWidth: 2047
Flags: HW
LayerCount: 2
Fore
SplineSet
1317 1371 m 1
 1482 1256 1605 1071 1605 870 c 2
 1604 325 l 2
 1604 147 1451 1 1264 1 c 2
 724 1 l 2
 526 1 372 147 372 326 c 2
 372 870 l 2
 372 1000 429 1111 541 1203 c 1
 402 1203 l 1
 402 1398 l 1
 1317 1398 l 1
 1317 1371 l 1
1242 196 m 2
 1322 196 1381 255 1378 335 c 1
 1378 870 l 2
 1378 1020 1278 1142 1185 1203 c 1
 792 1203 l 1
 687 1141 598 1022 598 870 c 2
 598 335 l 2
 598 259 658 196 739 196 c 2
 1242 196 l 2
EndSplineSet
EndChar

StartChar: ra.below
Encoding: 234 -1 234
Width: 44
VWidth: 2047
Flags: HW
AnchorPoint: "Sub" 325 -629 basemark 0
LayerCount: 2
Fore
SplineSet
-1212 -212 m 1
 -1193 -349 -1080 -463 -943 -463 c 2
 -104 -463 l 2
 18 -463 167 -369 195 -187 c 1
 383 -186 l 1
 355 -411 191 -631 -62 -631 c 2
 -979 -631 l 2
 -1229 -631 -1405 -406 -1405 -212 c 1
 -1212 -212 l 1
EndSplineSet
EndChar

StartChar: ra.imathra
Encoding: 235 -1 235
Width: 1538
VWidth: 2047
Flags: HW
LayerCount: 2
Fore
SplineSet
382 1621 m 2
 382 1747 501 1848 644 1848 c 2
 838 1848 l 2
 925 1848 1000 1815 1062 1750 c 1
 1329 1527 1610 1230 1610 998 c 2
 1608 335 l 2
 1608 121 1485 3 1385 3 c 2
 715 3 l 2
 540 3 382 147 382 336 c 2
 382 982 l 2
 382 1087 436 1185 546 1276 c 1
 472 1315 382 1387 382 1498 c 2
 382 1621 l 2
693 1651 m 2
 652 1651 609 1620 609 1586 c 2
 609 1500 l 2
 609 1452 637 1419 693 1401 c 1
 1142 1400 l 1
 978 1569 l 2
 925 1624 877 1651 832 1651 c 2
 693 1651 l 2
1260 199 m 2
 1332 199 1385 258 1386 337 c 1
 1386 983 l 2
 1386 1056 1354 1130 1288 1205 c 1
 746 1205 l 1
 652 1112 605 1037 605 983 c 2
 605 366 l 2
 605 281 664 199 746 199 c 2
 1260 199 l 2
EndSplineSet
LCarets2: 1 0
EndChar

StartChar: ra.below.ra
Encoding: 236 -1 236
Width: 311
VWidth: 2047
Flags: HW
AnchorPoint: "Sub" 259 -657 basemark 0
LayerCount: 2
Fore
SplineSet
-169 -504 m 2
 -5 -504 123 -360 123 -181 c 2
 123 559 l 1
 318 559 l 1
 319 -169 l 2
 319 -425 125 -669 -158 -669 c 2
 -522 -669 l 1
 -522 -504 l 1
 -169 -504 l 2
EndSplineSet
LCarets2: 1 0
EndChar

StartChar: ra.below.subcons
Encoding: 237 -1 237
Width: 311
VWidth: 2047
Flags: HW
LayerCount: 2
Fore
SplineSet
836 -362 m 2
 836 -457 814 -697 773 -774 c 1
 698 -910 554 -1025 360 -1025 c 2
 -316 -1025 l 1
 -316 -859 l 1
 349 -859 l 2
 431 -859 500 -828 556 -765 c 0
 608 -707 638 -490 638 -374 c 2
 638 425 l 1
 834 425 l 1
 836 -362 l 2
EndSplineSet
EndChar

StartChar: ra.below.large
Encoding: 238 -1 238
Width: 42
VWidth: 2047
Flags: HW
AnchorPoint: "Sub" -41 -627 basemark 0
LayerCount: 2
Fore
SplineSet
-1779 -212 m 1
 -1760 -349 -1646 -463 -1509 -463 c 2
 -493 -463 l 2
 -371 -463 -222 -369 -194 -187 c 1
 -4 -186 l 1
 -31 -404 -190 -631 -450 -631 c 2
 -1545 -631 l 2
 -1795 -631 -1971 -407 -1971 -212 c 1
 -1779 -212 l 1
EndSplineSet
EndChar

StartChar: ra_ailengthmark.sub
Encoding: 239 -1 239
Width: 363
VWidth: 2047
Flags: HW
LayerCount: 2
Fore
SplineSet
-170 -506 m 2
 -6 -506 122 -362 122 -183 c 2
 122 557 l 1
 317 557 l 1
 317 -172 l 2
 317 -249 301 -322 268 -393 c 1
 571 -393 l 1
 571 -588 l 1
 317 -588 l 1
 317 -633 367 -669 432 -669 c 2
 693 -669 l 2
 752 -669 791 -626 791 -559 c 2
 791 -403 l 2
 791 -355 753 -305 693 -305 c 2
 570 -305 l 1
 570 -111 l 1
 679 -111 l 2
 746 -111 791 -52 791 17 c 2
 791 168 l 2
 791 218 763 249 720 249 c 2
 458 249 l 1
 458 415 l 1
 804 415 l 2
 906 415 990 327 990 209 c 2
 990 -15 l 2
 990 -101 937 -174 877 -198 c 1
 953 -227 988 -305 988 -360 c 2
 988 -595 l 2
 988 -728 895 -835 775 -835 c 2
 372 -835 l 1
 372 -840 l 1
 217 -840 108 -715 93 -595 c 1
 -12 -665 -109 -671 -159 -671 c 2
 -523 -671 l 1
 -523 -506 l 1
 -170 -506 l 2
EndSplineSet
EndChar

StartChar: rra
Encoding: 240 3249 240
Width: 1630
VWidth: 2047
Flags: HW
LayerCount: 2
Fore
SplineSet
1749 1406 m 2
 1897 1406 2059 1308 2059 1141 c 2
 2055 286 l 2
 2055 136 1936 7 1776 7 c 1
 1776 2 l 1
 1494 2 l 2
 1373 2 1275 82 1240 186 c 1
 1203 83 1105 2 978 2 c 2
 698 2 l 2
 519 2 382 131 382 282 c 2
 382 1121 l 2
 382 1281 511 1400 660 1400 c 2
 1020 1400 l 1
 1020 1037 l 2
 1020 984 979 920 896 846 c 1
 1526 846 l 1
 1451 921 1414 987 1414 1042 c 2
 1414 1406 l 1
 1749 1406 l 2
1675 205 m 2
 1778 205 1828 309 1835 401 c 1
 1835 1100 l 2
 1835 1162 1782 1212 1723 1212 c 2
 1638 1212 l 1
 1638 1043 l 2
 1638 982 1685 916 1779 847 c 1
 1779 653 l 1
 660 653 l 1
 660 847 l 1
 753 923 799 989 799 1043 c 2
 799 1212 l 1
 715 1212 l 2
 658 1212 603 1141 603 1043 c 2
 603 360 l 2
 603 278 675 205 772 205 c 2
 922 205 l 2
 1038 205 1128 299 1128 426 c 1
 1352 426 l 1
 1352 291 1442 205 1540 205 c 2
 1675 205 l 2
EndSplineSet
LCarets2: 1 0
EndChar

StartChar: rra.imathra
Encoding: 241 -1 241
Width: 1630
VWidth: 2047
Flags: HW
LayerCount: 2
Fore
SplineSet
1749 1406 m 2
 1897 1406 2059 1308 2059 1141 c 2
 2055 286 l 2
 2055 136 1936 7 1776 7 c 1
 1776 2 l 1
 1494 2 l 2
 1373 2 1275 82 1240 186 c 1
 1203 83 1105 2 978 2 c 2
 698 2 l 2
 519 2 382 131 382 282 c 2
 382 1121 l 2
 382 1281 511 1400 660 1400 c 2
 1020 1400 l 1
 1020 1037 l 2
 1020 984 979 920 896 846 c 1
 1526 846 l 1
 1451 921 1414 987 1414 1042 c 2
 1414 1406 l 1
 1749 1406 l 2
1675 205 m 2
 1778 205 1828 309 1835 401 c 1
 1835 1100 l 2
 1835 1162 1782 1212 1723 1212 c 2
 1638 1212 l 1
 1638 1043 l 2
 1638 982 1685 916 1779 847 c 1
 1779 653 l 1
 660 653 l 1
 660 847 l 1
 753 923 799 989 799 1043 c 2
 799 1212 l 1
 715 1212 l 2
 658 1212 603 1141 603 1043 c 2
 603 360 l 2
 603 278 675 205 772 205 c 2
 922 205 l 2
 1038 205 1128 299 1128 426 c 1
 1352 426 l 1
 1352 291 1442 205 1540 205 c 2
 1675 205 l 2
1316 1960 m 2
 1394 1960 1446 1904 1446 1832 c 2
 1445 1627 l 2
 1445 1532 1379 1452 1297 1452 c 2
 1076 1451 l 1
 1076 1575 l 1
 1262 1575 l 2
 1288 1575 1305 1598 1305 1626 c 2
 1305 1802 l 2
 1305 1825 1293 1837 1270 1837 c 2
 1193 1837 l 2
 1175 1837 1167 1823 1167 1803 c 2
 1167 1779 l 2
 1167 1759 1183 1744 1197 1744 c 2
 1235 1744 l 1
 1235 1623 l 1
 1145 1623 l 2
 1074 1623 1025 1665 1025 1714 c 2
 1025 1838 l 2
 1025 1910 1080 1960 1159 1960 c 2
 1316 1960 l 2
EndSplineSet
LCarets2: 1 0
EndChar

StartChar: rra.sub
Encoding: 242 -1 242
Width: 311
VWidth: 2047
Flags: HW
AnchorPoint: "Sub" -620 -101 mark 0
AnchorPoint: "Sub" 729 -741 basemark 0
LayerCount: 2
Fore
SplineSet
530 -86 m 2
 648 -86 737 -180 737 -293 c 2
 736 -572 l 2
 736 -668 647 -756 538 -756 c 2
 218 -756 l 2
 148 -756 93 -714 53 -628 c 1
 24 -696 -49 -756 -133 -756 c 2
 -422 -756 l 2
 -531 -756 -620 -668 -620 -572 c 2
 -620 -293 l 2
 -620 -175 -527 -86 -414 -86 c 2
 -116 -86 l 1
 -177 -265 l 1
 315 -265 l 1
 232 -86 l 1
 530 -86 l 2
483 -585 m 2
 509 -585 536 -558 539 -532 c 1
 539 -305 l 2
 539 -273 517 -256 485 -253 c 1
 427 -253 l 1
 427 -365 l 1
 -309 -365 l 1
 -309 -253 l 1
 -366 -253 l 1
 -398 -256 -420 -273 -420 -305 c 2
 -420 -532 l 2
 -420 -558 -394 -587 -366 -587 c 2
 -198 -587 l 2
 -117 -587 -58 -527 -58 -458 c 2
 -58 -393 l 1
 165 -393 l 1
 165 -476 l 2
 165 -535 201 -585 247 -585 c 2
 483 -585 l 2
EndSplineSet
LCarets2: 1 0
EndChar

StartChar: la
Encoding: 243 3250 243
Width: 1763
VWidth: 2047
Flags: HW
LayerCount: 2
Fore
SplineSet
1536 1395 m 2
 1711 1395 1833 1256 1833 1089 c 2
 1832 353 l 2
 1832 161 1682 1 1495 1 c 2
 685 1 l 2
 525 1 381 138 381 336 c 2
 381 1092 l 2
 381 1275 533 1397 697 1397 c 2
 1048 1397 l 1
 1048 1090 l 2
 1048 919 912 781 742 781 c 2
 685 781 l 1
 685 979 l 1
 742 979 l 2
 774 979 823 1003 823 1076 c 2
 823 1200 l 1
 696 1200 l 2
 651 1200 601 1150 601 1088 c 2
 601 349 l 2
 601 277 655 221 713 221 c 2
 1470 221 l 2
 1528 221 1582 282 1582 360 c 2
 1582 1106 l 2
 1582 1161 1545 1200 1495 1200 c 2
 1360 1200 l 1
 1360 1395 l 1
 1536 1395 l 2
EndSplineSet
LCarets2: 1 0
EndChar

StartChar: la.base
Encoding: 244 -1 244
Width: 1484
VWidth: 2047
Flags: HW
LayerCount: 2
Fore
SplineSet
1501 1393 m 2
 1694 1393 1833 1224 1833 1047 c 2
 1832 325 l 2
 1832 140 1694 -11 1524 -11 c 2
 696 -11 l 1
 696 1 l 1
 533 1 380 141 380 335 c 2
 380 1080 l 2
 380 1264 527 1398 697 1398 c 2
 1048 1398 l 1
 1048 1080 l 2
 1048 914 916 783 754 783 c 2
 686 783 l 1
 686 981 l 1
 772 981 l 2
 793 981 825 999 825 1063 c 2
 825 1202 l 1
 714 1202 l 2
 654 1202 602 1150 602 1090 c 2
 602 334 l 2
 602 277 656 225 725 225 c 2
 1470 225 l 2
 1543 225 1609 281 1609 364 c 2
 1609 1036 l 2
 1609 1128 1547 1197 1470 1197 c 2
 1329 1197 l 1
 1329 1393 l 1
 1501 1393 l 2
EndSplineSet
EndChar

StartChar: la.imathra
Encoding: 245 -1 245
Width: 1763
VWidth: 2047
Flags: HW
LayerCount: 2
Fore
SplineSet
1562 1648 m 2
 1707 1648 1824 1515 1824 1344 c 2
 1826 357 l 2
 1826 175 1684 -4 1465 -4 c 2
 680 -4 l 1
 680 1 l 1
 516 1 373 163 373 364 c 2
 373 1081 l 2
 373 1252 510 1399 697 1399 c 2
 1043 1399 l 1
 1043 1092 l 2
 1043 919 918 783 766 783 c 2
 680 783 l 1
 680 981 l 1
 737 981 l 2
 786 981 819 1032 819 1091 c 2
 819 1203 l 1
 696 1203 l 2
 642 1203 595 1150 595 1081 c 2
 595 358 l 2
 595 274 661 221 722 221 c 2
 1480 221 l 2
 1542 221 1603 288 1603 379 c 2
 1603 1341 l 2
 1603 1402 1580 1452 1546 1452 c 2
 1492 1452 l 2
 1447 1452 1408 1424 1408 1383 c 2
 1408 1284 l 2
 1408 1252 1439 1230 1464 1230 c 2
 1546 1230 l 1
 1546 1032 l 1
 1453 1032 l 2
 1300 1032 1184 1151 1184 1273 c 2
 1184 1384 l 2
 1184 1530 1312 1648 1464 1648 c 2
 1562 1648 l 2
EndSplineSet
LCarets2: 1 0
EndChar

StartChar: la.sub
Encoding: 246 -1 246
Width: 335
VWidth: 2047
Flags: HW
AnchorPoint: "Sub" -655 -144 mark 0
AnchorPoint: "Sub" 666 -829 basemark 0
LayerCount: 2
Fore
SplineSet
452 -142 m 2
 560 -142 675 -228 675 -363 c 1
 677 -628 l 2
 677 -739 610 -839 511 -839 c 2
 343 -839 l 1
 343 -670 l 1
 410 -670 l 2
 447 -670 480 -640 480 -599 c 2
 480 -393 l 2
 480 -332 439 -308 399 -308 c 2
 212 -308 l 2
 143 -308 90 -349 90 -404 c 2
 90 -560 l 1
 -134 -560 l 1
 -134 -430 l 2
 -134 -368 -177 -308 -231 -308 c 2
 -400 -308 l 2
 -424 -308 -466 -329 -466 -378 c 2
 -466 -628 l 2
 -466 -652 -435 -670 -412 -670 c 2
 -354 -670 l 1
 -354 -839 l 1
 -467 -839 l 2
 -572 -839 -661 -764 -661 -671 c 2
 -661 -348 l 2
 -661 -220 -562 -142 -456 -142 c 2
 -187 -142 l 2
 -108 -142 -47 -198 -23 -265 c 1
 20 -183 80 -142 158 -142 c 2
 452 -142 l 2
EndSplineSet
LCarets2: 1 0
EndChar

StartChar: lla.base
Encoding: 248 -1 248
Width: 1249
VWidth: 2047
Flags: HW
LayerCount: 2
Fore
SplineSet
1256 1397 m 1
 1443 1380 1591 1246 1591 1079 c 2
 1591 811 l 2
 1591 641 1474 505 1321 505 c 2
 1228 505 l 1
 1264 481 1282 450 1282 412 c 2
 1282 226 l 2
 1282 121 1209 4 1087 4 c 2
 723 4 l 2
 612 4 528 94 528 188 c 2
 528 356 l 2
 528 404 561 455 625 507 c 1
 502 507 l 2
 326 507 191 649 191 813 c 2
 191 1165 l 2
 191 1296 323 1400 472 1400 c 2
 865 1400 l 1
 865 1082 l 2
 865 948 762 842 642 842 c 2
 529 842 l 1
 529 1037 l 1
 583 1037 l 2
 629 1037 641 1082 641 1109 c 2
 641 1203 l 1
 512 1203 l 2
 468 1203 418 1184 418 1145 c 2
 418 828 l 2
 418 766 480 700 566 700 c 2
 1211 700 l 2
 1297 700 1366 767 1366 840 c 2
 1366 1064 l 2
 1366 1119 1329 1183 1238 1202 c 1
 976 1202 l 1
 976 1397 l 1
 1256 1397 l 1
976 195 m 2
 1025 195 1057 248 1058 304 c 1
 1058 408 l 2
 1058 451 1034 483 987 502 c 1
 845 502 l 1
 783 471 752 430 752 380 c 2
 752 304 l 2
 752 248 795 195 845 195 c 2
 976 195 l 2
EndSplineSet
EndChar

StartChar: lla.imathra
Encoding: 249 -1 249
Width: 1533
VWidth: 2047
Flags: HW
LayerCount: 2
Fore
SplineSet
1386 1652 m 2
 1501 1652 1594 1537 1594 1387 c 2
 1591 782 l 2
 1591 633 1487 505 1356 505 c 2
 1228 505 l 1
 1264 481 1282 440 1282 383 c 2
 1282 171 l 2
 1282 80 1221 2 1140 2 c 2
 696 2 l 2
 601 2 529 94 529 186 c 2
 529 383 l 2
 529 423 553 464 601 505 c 1
 503 505 l 2
 327 505 192 647 192 811 c 2
 192 1162 l 2
 192 1293 324 1398 473 1398 c 2
 837 1398 l 1
 837 1080 l 2
 837 950 756 840 643 840 c 2
 530 840 l 1
 530 1035 l 1
 584 1035 l 2
 630 1035 642 1080 642 1107 c 2
 642 1201 l 1
 519 1201 l 2
 438 1201 419 1146 419 1119 c 2
 419 857 l 2
 419 763 498 700 574 700 c 2
 1246 700 l 2
 1313 700 1368 760 1368 841 c 2
 1368 1362 l 2
 1368 1414 1341 1457 1301 1457 c 2
 1247 1457 l 2
 1188 1457 1144 1421 1144 1373 c 2
 1144 1288 l 2
 1144 1247 1191 1205 1231 1205 c 2
 1259 1205 l 1
 1259 1011 l 1
 1079 1011 l 2
 993 1011 924 1095 924 1192 c 2
 924 1445 l 2
 924 1571 1006 1652 1091 1652 c 2
 1386 1652 l 2
980 198 m 2
 1027 198 1063 239 1062 283 c 1
 1062 410 l 2
 1062 454 1028 497 996 504 c 1
 827 504 l 1
 780 485 756 456 756 416 c 2
 756 287 l 2
 756 242 787 204 827 204 c 1
 827 198 l 1
 980 198 l 2
EndSplineSet
LCarets2: 1 0
EndChar

StartChar: lla.sub
Encoding: 250 -1 250
Width: 291
VWidth: 2047
Flags: HW
AnchorPoint: "Sub" -609 392 mark 0
AnchorPoint: "Sub" 562 -704 basemark 0
LayerCount: 2
Fore
SplineSet
388 502 m 1
 515 443 599 301 599 110 c 1
 594 -319 l 1
 594 -456 506 -559 410 -559 c 2
 313 -559 l 1
 313 -727 l 2
 313 -792 250 -838 179 -838 c 2
 -60 -838 l 2
 -125 -838 -182 -792 -182 -725 c 2
 -182 -558 l 1
 -351 -558 l 2
 -481 -558 -575 -456 -575 -347 c 2
 -575 -264 l 2
 -575 -145 -494 -58 -397 -58 c 2
 -101 -58 l 1
 -101 -319 l 1
 -269 -319 l 1
 -269 -225 l 1
 -340 -225 l 2
 -371 -225 -380 -251 -380 -264 c 2
 -380 -347 l 1
 -377 -375 -331 -392 -295 -392 c 2
 331 -392 l 2
 373 -392 405 -344 405 -293 c 2
 405 158 l 2
 405 251 345 337 265 362 c 1
 388 502 l 1
123 -647 m 1
 123 -561 l 1
 12 -561 l 1
 12 -658 l 2
 12 -686 21 -700 40 -700 c 2
 93 -700 l 2
 111 -700 122 -682 123 -647 c 1
EndSplineSet
LCarets2: 1 0
EndChar

StartChar: va.base
Encoding: 252 -1 252
Width: 1581
VWidth: 2047
Flags: HW
LayerCount: 2
Fore
SplineSet
1642 1358 m 1
 1801 1314 1927 1155 1927 950 c 2
 1927 305 l 2
 1927 143 1792 0 1617 0 c 2
 1378 0 l 2
 1259 0 1162 67 1142 158 c 1
 1130 62 1054 0 978 0 c 2
 557 0 l 2
 435 0 335 107 335 240 c 2
 335 839 l 1
 727 839 l 2
 839 839 922 732 922 603 c 2
 922 476 l 1
 698 476 l 1
 698 575 l 2
 698 614 676 644 644 644 c 2
 558 644 l 1
 558 304 l 2
 558 252 603 195 668 195 c 2
 903 195 l 2
 977 195 1031 245 1031 304 c 2
 1031 558 l 1
 1258 558 l 1
 1258 334 l 2
 1258 259 1310 195 1377 195 c 2
 1592 195 l 2
 1650 195 1703 249 1703 323 c 2
 1703 949 l 2
 1703 1095 1583 1201 1423 1201 c 2
 389 1201 l 1
 389 1396 l 1
 1642 1396 l 1
 1642 1358 l 1
EndSplineSet
EndChar

StartChar: va.imathra
Encoding: 253 -1 253
Width: 1857
VWidth: 2047
Flags: HW
LayerCount: 2
Fore
SplineSet
1677 1651 m 2
 1805 1651 1928 1516 1928 1316 c 2
 1927 335 l 2
 1927 152 1811 0 1658 0 c 2
 1352 0 l 2
 1246 0 1158 74 1142 157 c 1
 1131 69 1054 -1 949 -1 c 2
 558 -1 l 2
 436 -1 336 106 336 239 c 2
 336 838 l 1
 654 838 l 2
 803 838 903 711 903 575 c 2
 903 476 l 1
 680 476 l 1
 680 547 l 2
 680 601 649 645 597 645 c 2
 558 645 l 1
 558 305 l 2
 558 253 603 196 668 196 c 2
 895 196 l 2
 970 196 1031 252 1031 335 c 2
 1031 559 l 1
 1258 559 l 1
 1258 335 l 2
 1258 260 1310 196 1377 196 c 2
 1592 196 l 2
 1652 196 1702 265 1702 353 c 2
 1702 1315 l 2
 1702 1382 1668 1426 1617 1426 c 2
 1519 1426 l 2
 1486 1426 1455 1403 1455 1372 c 2
 1455 1233 l 2
 1455 1199 1485 1177 1507 1177 c 2
 1618 1177 l 1
 1618 983 l 1
 1483 983 l 2
 1337 983 1231 1097 1231 1222 c 2
 1231 1386 l 2
 1231 1538 1358 1651 1508 1651 c 2
 1677 1651 l 2
EndSplineSet
LCarets2: 1 0
EndChar

StartChar: va.sub
Encoding: 254 -1 254
Width: 311
VWidth: 2047
Flags: HW
AnchorPoint: "Sub" -657 -100 mark 0
AnchorPoint: "Sub" 637 -742 basemark 0
LayerCount: 2
Fore
SplineSet
370 -196 m 2
 413 -196 441 -161 441 -125 c 2
 441 69 l 1
 638 69 l 1
 638 -143 l 2
 638 -194 610 -241 553 -283 c 1
 610 -308 638 -348 638 -404 c 2
 640 -588 l 2
 640 -682 575 -756 501 -756 c 2
 218 -756 l 2
 148 -756 93 -714 53 -628 c 1
 24 -696 -49 -756 -133 -756 c 2
 -422 -756 l 2
 -531 -756 -620 -668 -620 -572 c 2
 -620 -293 l 2
 -620 -175 -527 -86 -414 -86 c 2
 -116 -86 l 1
 -116 -365 l 1
 -310 -365 l 1
 -310 -253 l 1
 -367 -253 l 1
 -399 -256 -421 -273 -421 -305 c 2
 -421 -532 l 2
 -421 -558 -395 -587 -367 -587 c 2
 -199 -587 l 2
 -118 -587 -59 -527 -59 -458 c 2
 -59 -393 l 1
 164 -393 l 1
 164 -476 l 2
 164 -535 200 -585 246 -585 c 2
 387 -585 l 2
 421 -585 441 -555 441 -531 c 2
 441 -418 l 1
 437 -370 403 -364 388 -364 c 2
 220 -364 l 1
 220 -196 l 1
 370 -196 l 2
EndSplineSet
LCarets2: 1 0
EndChar

StartChar: sha.base
Encoding: 256 -1 256
Width: 1197
VWidth: 2047
Flags: HW
LayerCount: 2
Fore
SplineSet
1257 1359 m 1
 1413 1287 1539 1121 1539 898 c 2
 1539 292 l 2
 1539 111 1405 -5 1277 -5 c 2
 577 -5 l 2
 432 -5 308 92 308 217 c 2
 308 500 l 2
 308 619 420 698 560 698 c 2
 896 698 l 2
 975 698 1035 778 1035 868 c 2
 1035 1133 l 2
 1035 1159 1020 1200 951 1200 c 2
 728 1200 l 2
 680 1200 647 1160 647 1106 c 2
 647 1032 l 2
 647 1000 680 978 718 978 c 0
 742 978 757 1008 757 1032 c 2
 757 1116 l 1
 981 1116 l 1
 981 977 l 2
 981 866 900 778 801 778 c 2
 618 778 l 2
 509 778 421 874 421 976 c 2
 421 1086 l 2
 421 1112 440 1147 478 1190 c 1
 337 1190 l 1
 337 1385 l 1
 1257 1385 l 1
 1257 1359 l 1
1195 185 m 2
 1260 185 1319 245 1315 312 c 1
 1315 898 l 2
 1315 979 1296 1039 1259 1079 c 1
 1259 826 l 2
 1259 665 1136 494 926 494 c 2
 649 494 l 2
 581 494 538 446 538 399 c 2
 538 287 l 2
 538 229 583 185 637 185 c 2
 1195 185 l 2
EndSplineSet
EndChar

StartChar: sha.imathra
Encoding: 257 -1 257
Width: 1427
VWidth: 2047
Flags: HW
LayerCount: 2
Fore
SplineSet
1198 1308 m 1
 1363 1216 1480 1073 1480 916 c 2
 1480 364 l 2
 1480 140 1328 1 1189 1 c 2
 556 1 l 2
 416 1 304 116 304 241 c 2
 304 494 l 2
 304 608 430 698 584 698 c 2
 824 698 l 2
 906 698 976 770 976 856 c 2
 976 1118 l 2
 976 1148 962 1201 907 1201 c 2
 836 1201 l 1
 874 1152 893 1120 893 1107 c 2
 893 949 l 2
 893 873 833 810 752 810 c 2
 573 810 l 2
 471 810 389 894 389 995 c 2
 389 1160 l 2
 389 1286 518 1396 684 1396 c 2
 976 1396 l 1
 976 1507 l 1
 696 1507 l 2
 596 1507 529 1596 529 1673 c 2
 529 1815 l 2
 529 1891 602 1953 697 1953 c 2
 1018 1953 l 2
 1126 1953 1198 1883 1198 1802 c 2
 1198 1308 l 1
725 1714 m 2
 725 1686 770 1669 808 1669 c 2
 975 1667 l 1
 975 1750 l 2
 975 1784 945 1806 906 1806 c 2
 797 1806 l 2
 756 1806 725 1787 725 1768 c 2
 725 1714 l 2
658 979 m 1
 682 979 696 1014 697 1032 c 1
 697 1106 l 2
 697 1149 684 1178 659 1193 c 1
 629 1187 613 1151 613 1083 c 2
 613 1014 l 1
 616 989 640 974 658 974 c 1
 658 979 l 1
1063 187 m 2
 1173 187 1260 263 1257 345 c 1
 1257 932 l 2
 1257 998 1238 1044 1200 1070 c 1
 1200 847 l 2
 1200 652 1051 496 867 496 c 2
 631 496 l 2
 577 496 531 468 531 425 c 2
 531 290 l 2
 531 231 578 187 632 187 c 2
 1063 187 l 2
EndSplineSet
LCarets2: 1 0
EndChar

StartChar: sha.sub
Encoding: 258 -1 258
Width: 335
VWidth: 2047
Flags: HW
AnchorPoint: "Sub" -100 488 mark 0
AnchorPoint: "Sub" 963 -827 basemark 0
LayerCount: 2
Fore
SplineSet
733 -55 m 2
 851 -55 955 -122 955 -221 c 2
 957 -650 l 2
 957 -755 878 -834 764 -834 c 2
 37 -834 l 1
 37 -839 l 1
 -43 -839 -104 -787 -104 -727 c 2
 -104 -541 l 2
 -104 -480 -49 -418 38 -418 c 2
 384 -418 l 2
 420 -418 454 -388 454 -347 c 2
 454 -224 l 1
 300 -224 l 2
 255 -224 232 -233 232 -251 c 2
 232 -334 l 1
 38 -334 l 1
 38 -195 l 2
 38 -111 125 -59 213 -59 c 2
 453 -59 l 1
 453 297 l 2
 453 397 364 474 260 491 c 1
 326 630 l 1
 480 587 649 475 649 298 c 2
 649 -55 l 1
 733 -55 l 2
687 -667 m 2
 725 -667 760 -630 760 -584 c 2
 760 -290 l 2
 760 -250 729 -223 686 -223 c 2
 648 -223 l 1
 648 -362 l 2
 648 -493 560 -584 463 -584 c 2
 128 -584 l 2
 106 -584 89 -600 89 -626 c 0
 89 -654 99 -667 117 -667 c 2
 687 -667 l 2
EndSplineSet
LCarets2: 1 0
EndChar

